<?xml version="1.0" encoding="UTF-8"?>
<svg id="Capa_1" data-name="Capa 1" xmlns="http://www.w3.org/2000/svg" xmlns:xlink="http://www.w3.org/1999/xlink" viewBox="0 0 394.93 394.93">
  <defs>
    <style>
      .cls-1 {
        clip-path: url(#clippath);
      }

      .cls-2 {
        fill: none;
      }

      .cls-2, .cls-3, .cls-4, .cls-5, .cls-6, .cls-7 {
        stroke-width: 0px;
      }

      .cls-3 {
        fill: url(#radial-gradient);
      }

      .cls-4 {
        fill: #223c72;
      }

      .cls-5 {
        fill: #303f66;
      }

      .cls-6 {
        fill: #ef3827;
      }

      .cls-7 {
        fill: #efebe7;
      }
    </style>
    <clipPath id="clippath">
      <path class="cls-2" d="m197.3,0C108.67,0,28.08,60.11,5.83,150.03c-26.21,105.85,38.36,212.88,144.2,239.06,105.86,26.2,212.88-38.36,239.08-144.21,26.19-105.85-38.35-212.88-144.21-239.06C228.97,1.89,213.02,0,197.32,0h-.01"/>
    </clipPath>
    <radialGradient id="radial-gradient" cx="1734.8" cy="2312.73" fx="1734.8" fy="2312.73" r="1" gradientTransform="translate(-342370.55 456886.8) scale(197.47 -197.47)" gradientUnits="userSpaceOnUse">
      <stop offset="0" stop-color="#fff"/>
      <stop offset=".78" stop-color="#fff"/>
      <stop offset=".82" stop-color="#f9f8f7"/>
      <stop offset=".88" stop-color="#e9e5e3"/>
      <stop offset=".94" stop-color="#cfc8c1"/>
      <stop offset="1" stop-color="#b6aba1"/>
    </radialGradient>
  </defs>
  <g class="cls-1">
    <rect class="cls-3" x="-20.38" y="0" width="435.68" height="415.3"/>
  </g>
  <path class="cls-4" d="m5.83,150.04C32.02,44.17,139.07-20.37,244.9,5.83c105.86,26.19,170.4,133.21,144.21,239.06-26.2,105.85-133.22,170.41-239.08,144.21C44.2,362.91-20.38,255.88,5.83,150.04"/>
  <path class="cls-7" d="m337.52,58.27l-79.39,52.92V9.6c-4.33-1.39-8.74-2.66-13.23-3.77-37.25-9.22-74.64-7.19-108.61,3.92v101.46L57.21,58.49c-18.11,18.24-32.82,40.2-42.82,65.07l20.94,13.96H9.38c-1.3,4.1-2.5,8.27-3.55,12.51-9.29,37.51-7.17,75.17,4.15,109.33h25.87l-20.72,13.81c10.05,24.14,24.82,46.15,43.46,64.63l77.7-51.79v99.14c4.5,1.46,9.08,2.78,13.75,3.93,37.06,9.18,74.26,7.21,108.09-3.75v-99.33l78.01,51.99c18.32-18.04,33.29-39.83,43.57-64.56l-21.15-14.1h26.38c1.56-4.73,2.95-9.56,4.17-14.48,9.1-36.79,7.23-73.73-3.51-107.36h-26.51l21.35-14.23c-9.85-24.24-24.43-46.39-42.92-65.03"/>
  <path class="cls-6" d="m105.92,137.53l-73.31-48.76c-4.88,7.4-9.29,15.17-13.18,23.3l38.27,25.46h48.22Zm256.1-49.14c-4.92-7.44-10.36-14.54-16.26-21.27l-87.63,58.28v12.14h30.01l73.88-49.14ZM33.16,306.9c4.94,7.42,10.39,14.51,16.3,21.22l86.83-57.75v-11.01h-31.65l-71.48,47.54Zm358.73-144h-159.13V3.23c-24.12-4.4-48.14-4.21-71.09.04v159.63H3.11c-4.32,24.12-4.03,48.13.3,71.06h158.26v157.64c24.12,4.47,48.14,4.34,71.09.15v-157.79h158.73c4.56-24.1,4.49-48.11.4-71.06m-102.05,96.47l71.84,47.78c4.92-7.37,9.37-15.12,13.31-23.22l-36.93-24.56h-48.22Z"/>
  <path class="cls-5" d="m258.13,30.15h0v12.8c.78-2.43,1.18-4.73,1.19-6.89,0-2.12-.38-4.1-1.19-5.92"/>
</svg>