<?xml version="1.0" encoding="UTF-8"?>
<svg id="Capa_1" data-name="Capa 1" xmlns="http://www.w3.org/2000/svg" viewBox="0 0 394.94 394.93">
  <defs>
    <style>
      .cls-1 {
        fill: #ef3827;
      }

      .cls-1, .cls-2 {
        stroke-width: 0px;
      }

      .cls-2 {
        fill: #ffd203;
      }
    </style>
  </defs>
  <path class="cls-1" d="m5.83,150.04C32.02,44.17,139.06-20.37,244.9,5.83c105.86,26.19,170.4,133.21,144.21,239.06-26.2,105.85-133.22,170.41-239.08,144.21C44.2,362.92-20.38,255.88,5.83,150.04"/>
  <path class="cls-1" d="m11.51,131.15h371.92c-21.52-60.19-71.82-108.81-138.54-125.32C145.52-18.77,45.08,36.64,11.51,131.15"/>
  <path class="cls-2" d="m390.68,238.05c.09-.42.17-.84.26-1.26.15-.73.29-1.47.44-2.2.08-.43.16-.85.24-1.28.14-.76.28-1.52.41-2.28.07-.38.14-.76.2-1.15.16-.95.31-1.9.45-2.85.03-.19.06-.37.09-.56.17-1.14.33-2.28.48-3.42.04-.3.07-.6.11-.91.11-.84.21-1.67.3-2.51.05-.4.09-.79.13-1.19.08-.75.16-1.5.23-2.25.04-.41.08-.83.12-1.24.07-.76.13-1.51.19-2.27.03-.38.06-.77.09-1.15.06-.87.12-1.74.17-2.61.02-.26.04-.53.05-.79.06-1.14.12-2.28.16-3.42,0-.19.01-.37.02-.56.03-.95.06-1.89.08-2.83,0-.36.01-.72.02-1.07.01-.78.02-1.56.02-2.33,0-.39,0-.78,0-1.17,0-.76,0-1.52-.02-2.28,0-.38-.01-.75-.02-1.13-.02-.83-.04-1.67-.07-2.5,0-.29-.02-.58-.03-.87-.08-2.26-.21-4.51-.37-6.76-.02-.29-.05-.59-.07-.89-.06-.82-.13-1.64-.2-2.47-.03-.36-.07-.71-.1-1.07-.07-.77-.15-1.55-.24-2.32-.04-.35-.07-.71-.11-1.06-.09-.82-.19-1.64-.29-2.46-.04-.29-.07-.57-.11-.86-.29-2.24-.62-4.47-.98-6.69-.03-.2-.07-.4-.1-.6-.15-.9-.3-1.79-.47-2.69-.06-.31-.11-.61-.17-.92-.15-.8-.3-1.6-.46-2.4-.06-.32-.13-.64-.19-.95-.17-.82-.34-1.64-.52-2.45-.06-.27-.12-.54-.18-.82-.23-1-.45-2-.69-3l-.05-.22c-.25-1.05-.51-2.09-.78-3.13h0c-1.5-5.79-3.25-11.49-5.25-17.09H11.51c-2.18,6.14-4.08,12.43-5.68,18.89-6.56,26.49-7.42,53.06-3.38,78.41.02.11.04.23.05.34.15.93.3,1.85.47,2.77.04.19.07.39.11.58.15.86.31,1.73.48,2.59.05.26.1.51.15.77.16.81.32,1.63.49,2.44.06.31.13.61.2.92.17.77.33,1.54.51,2.3.08.36.17.71.25,1.07.17.72.33,1.44.51,2.15.13.54.27,1.08.41,1.62.21.81.41,1.62.63,2.43.21.8.43,1.6.65,2.39.1.35.2.7.3,1.05.22.75.43,1.51.66,2.26.11.35.22.7.32,1.05.23.75.46,1.49.7,2.24.11.35.22.69.33,1.03.24.75.49,1.5.75,2.24.11.34.23.67.35,1.01.26.75.52,1.5.79,2.25.06.17.12.35.18.53h0c.17.46.33.93.5,1.39h370.41c.17-.46.32-.93.49-1.39h.03c.42-1.16.81-2.32,1.21-3.49.04-.12.08-.23.12-.34.51-1.52,1.01-3.06,1.49-4.6.07-.22.14-.43.2-.65.44-1.44.86-2.89,1.27-4.35.09-.31.18-.61.27-.92.48-1.74.94-3.48,1.37-5.24.28-1.14.55-2.27.81-3.41.08-.36.16-.73.24-1.09.17-.78.34-1.56.51-2.34"/>
</svg>