<?xml version="1.0" encoding="UTF-8"?>
<svg id="Capa_1" data-name="Capa 1" xmlns="http://www.w3.org/2000/svg" viewBox="0 0 394.94 394.93">
  <defs>
    <style>
      .cls-1 {
        fill: #3e3e3f;
      }

      .cls-1, .cls-2, .cls-3, .cls-4 {
        stroke-width: 0px;
      }

      .cls-2 {
        fill: #223c72;
      }

      .cls-3 {
        fill: #ef3827;
      }

      .cls-4 {
        fill: #f1f2f2;
      }
    </style>
  </defs>
  <g>
    <path class="cls-4" d="m5.83,150.04C32.02,44.17,139.06-20.37,244.9,5.83c105.86,26.19,170.4,133.21,144.21,239.06-26.2,105.85-133.22,170.41-239.08,144.21C44.19,362.92-20.38,255.88,5.83,150.04"/>
    <path class="cls-3" d="m276.51,186.28c3.74,41.25-26.65,77.72-67.88,81.48-41.23,3.76-77.71-26.6-81.46-67.85-3.76-41.23,26.63-77.72,67.85-81.46,41.23-3.76,77.69,26.6,81.48,67.83"/>
    <path class="cls-2" d="m137.71,154.35c-10.71,17.72-5.1,40.74,12.6,51.45,17.7,10.73,40.72,5.08,51.45-12.62,10.69-17.7,33.7-23.31,51.42-12.6,17.68,10.71,23.33,33.73,12.6,51.4-21.44,35.4-67.45,46.66-102.85,25.24-35.38-21.44-46.66-67.48-25.22-102.87"/>
  </g>
  <path class="cls-1" d="m80.05,276.84l19.48,28.87,9.75-6.54-19.5-28.87-9.73,6.55Zm-3.09-4.56l9.75-6.57-19.5-28.9-9.75,6.54,19.5,28.92Zm-34.46-18.79l42.08,62.35,9.71-6.54-42.07-62.36-9.71,6.55Zm29.97-20.22l42.07,62.36,9.7-6.57-42.05-62.38-9.73,6.59Zm258.73-80.32l-19.46-28.92-9.73,6.57,19.48,28.9,9.71-6.55Zm-22.57-33.48l-19.46-28.92-9.73,6.57,19.48,28.89,9.71-6.54Zm42.87,19.81l9.71-6.57-19.5-28.89-9.73,6.57,19.52,28.9Zm-12.87-40.05l-19.5-28.89-9.73,6.57,19.5,28.9,9.73-6.57Zm7.57,43.61l-42.03-62.38-9.75,6.54,42.07,62.36,9.71-6.52Zm-36.8,166.45l9.73,6.54,19.5-28.9-9.75-6.56-19.48,28.92Zm22.58-33.48l9.73,6.54,19.5-28.87-9.75-6.55-19.48,28.87Zm-18.08-5.52l-19.48,28.87,9.7,6.59,19.5-28.9-9.73-6.57Zm32.3-26.91l-9.71-6.57-19.5,28.9,9.71,6.57,19.5-28.9Zm-47.29,16.79l-19.5,28.9,9.75,6.57,19.46-28.9-9.71-6.57Zm12.82,2.01l19.46-28.9-9.71-6.59-19.5,28.9,9.75,6.59Zm-239.27-109.22l9.73,6.55,42.05-62.38-9.7-6.55-42.07,62.38Zm-5.28-3.56l42.1-62.38-9.75-6.54-42.07,62.38,9.73,6.54Zm27.09-72.48l-9.71-6.57-42.1,62.38,9.73,6.57,42.07-62.38Z"/>
</svg>