<?xml version="1.0" encoding="UTF-8"?>
<svg id="OBJECTS" xmlns="http://www.w3.org/2000/svg" xmlns:xlink="http://www.w3.org/1999/xlink" viewBox="0 0 500 500">
  <defs>
    <style>
      .cls-1 {
        clip-path: url(#clippath);
      }

      .cls-2, .cls-3, .cls-4, .cls-5, .cls-6, .cls-7, .cls-8, .cls-9, .cls-10, .cls-11, .cls-12, .cls-13, .cls-14, .cls-15, .cls-16, .cls-17 {
        stroke-width: 0px;
      }

      .cls-2, .cls-18 {
        fill: none;
      }

      .cls-3 {
        opacity: .2;
      }

      .cls-3, .cls-12 {
        fill: #fff;
      }

      .cls-19 {
        clip-path: url(#clippath-1);
      }

      .cls-18 {
        stroke: #fff;
        stroke-miterlimit: 10;
      }

      .cls-5 {
        fill: #53034d;
      }

      .cls-6 {
        fill: #87bc9d;
      }

      .cls-7 {
        fill: #93cdd6;
      }

      .cls-8 {
        fill: #c7c7c7;
      }

      .cls-9 {
        fill: #b58c6d;
      }

      .cls-10 {
        fill: #302f2f;
      }

      .cls-11 {
        fill: #ff837a;
      }

      .cls-13 {
        fill: #ffd9bc;
      }

      .cls-14 {
        fill: #ea2c37;
      }

      .cls-15 {
        fill: #f5b669;
      }

      .cls-16 {
        fill: #0260a8;
      }

      .cls-17 {
        fill: #0083e9;
      }
    </style>
    <clipPath id="clippath">
      <rect class="cls-2" width="500" height="500"/>
    </clipPath>
    <clipPath id="clippath-1">
      <polygon class="cls-2" points="383.37 362.31 272.36 379.17 286.97 474.77 399.05 459.7 383.37 362.31"/>
    </clipPath>
  </defs>
  <g class="cls-1">
    <ellipse class="cls-3" cx="250" cy="217.88" rx="195.31" ry="192.25"/>
    <circle class="cls-12" cx="25.82" cy="120.03" r="2.5"/>
    <circle class="cls-12" cx="417.68" cy="266.97" r="2.5"/>
    <circle class="cls-12" cx="369.11" cy="87.82" r="2.5"/>
    <circle class="cls-12" cx="235.82" cy="85.03" r="2.5"/>
    <circle class="cls-12" cx="52.32" cy="316.03" r="2.5"/>
    <circle class="cls-12" cx="28.32" cy="220.38" r="2.5"/>
    <circle class="cls-12" cx="449.32" cy="107.38" r="2.5"/>
    <circle class="cls-12" cx="427.73" cy="211.72" r="2.5"/>
    <circle class="cls-12" cx="109.82" cy="53.38" r="2.5"/>
    <g>
      <circle class="cls-18" cx="66.74" cy="187.74" r="2.5"/>
      <circle class="cls-18" cx="64.24" cy="269.74" r="2.5"/>
      <circle class="cls-18" cx="43.24" cy="379.24" r="2.5"/>
      <circle class="cls-18" cx="471.24" cy="322.89" r="2.5"/>
      <circle class="cls-18" cx="370.24" cy="227.24" r="2.5"/>
      <circle class="cls-18" cx="303.24" cy="57.74" r="2.5"/>
      <circle class="cls-18" cx="367.74" cy="142.89" r="2.5"/>
      <circle class="cls-18" cx="103.24" cy="131.89" r="2.5"/>
      <circle class="cls-18" cx="40.74" cy="60.24" r="2.5"/>
      <circle class="cls-18" cx="186.24" cy="42.34" r="2.5"/>
      <circle class="cls-18" cx="426.74" cy="47.34" r="2.5"/>
    </g>
    <g>
      <path class="cls-17" d="m334.1,248.2c14.73,14.85,43.05,7.24,57.31,22.53,6.8,7.29,8.4,17.87,9.69,27.76,5.41,41.61,10.82,83.23,16.23,124.84,1.95,15.03,3.36,32.05-6.44,43.61-8.33,9.82-22.15,12.47-34.86,14.52-33.95,5.48-67.9,10.95-101.85,16.43-10.63,1.72-22.65,3.11-31.16-3.49-7.14-5.54-9.59-15.07-11.52-23.89-10.67-48.66-19.2-97.79-26.34-147.64,14.31-17.29,31.29-32.36,50.16-44.51,2.73-1.76,5.68-3.51,8.93-3.52,3.93,0,7.33,2.51,10.75,4.43,11.21,6.3,25.57,6.63,37.06.86,11.5-5.77,19.8-17.48,22.04-31.94Z"/>
      <g>
        <polygon class="cls-15" points="383.37 362.31 272.36 379.17 286.97 474.77 399.05 459.7 383.37 362.31"/>
        <g class="cls-19">
          <g>
            <path class="cls-14" d="m351.14,447.2c10.36-1.41,20.91-1.33,31.02.22,1.51.23,3.17.6,3.89,1.7,1.12,1.73-1.04,4.01-3.42,4.56-2.38.55-4.82,0-7.23-.12-3.03-.16-6.91.91-7.41,3.43-.18.9.12,1.87-.42,2.69-.67,1.01-2.26,1.26-3.62,1.39-15.17,1.42-30.34,2.84-45.5,4.27-4.99.47-10.09.93-14.87,0,3.61-3.62,9.71-4.45,15.2-5.01,12.67-1.3,25.34-2.59,38.01-3.89-10-5.72-26.13,1.35-36.02-4.49,13.76-1.48,27.52-2.95,41.27-4.43"/>
            <path class="cls-14" d="m382.93,458.75c4.9-.92,10.11-.1,14.04,2.2-5.16.91-10.34,1.73-15.52,2.55l-67.62,10.71c-2.22.35-5.32.21-5.52-1.62-.18-1.71,2.46-2.67,4.53-3.04,24.03-4.29,48.07-8.58,70.09-10.8Z"/>
            <path class="cls-14" d="m294.69,436.15c12.69-3.43,25.85-5.44,38.98-5.96,1.7-.07,4.03.51,3.59,1.89-.26.82-1.42,1.2-2.4,1.44-7.53,1.83-15.06,3.67-22.6,5.5,1.93-.59,3.9,1.09,3.66,2.75-.24,1.67-2.04,3.02-3.96,3.62-1.93.6-3.99.61-6.01.71-9.03.44-17.88,2.76-26.76,4.57-1.61.33-3.33.63-4.82.15s-2.48-2.09-1.52-3.23c.56-.67,1.56-.96,2.48-1.21,7.3-1.97,14.61-3.95,21.91-5.92-2.85-.61-5.7-1.22-8.56-1.82-.8-.17-1.73-.44-1.92-1.11-.3-1.07,1.45-1.77,2.79-1.99,3.17-.52,6.34-1.04,5.14.63Z"/>
          </g>
          <g>
            <path class="cls-4" d="m267.81,387.08c32.41-5.79,65.02-11.6,97.82-12.8,6.08-.22,12.35-.26,17.83,1.65.68.24,1.43.61,1.45,1.23.02.93-1.47,1.33-2.6,1.41-4.52.32-9.04.65-13.57.97-4.41.32-9.58,1.02-11.85,4.26,10.09-.51,20.18.03,29.95,1.59,1.27.2,2.59.44,3.55,1.14.96.69,1.4,1.98.63,2.89-.76.9-2.26,1.05-3.54,1.06-10.59.08-20.89-3.47-31.41-1.81-8.66,1.36-16.16,6.06-24.25,9.17-8.43,3.25-17.53,4.78-26.53,6.3-12.68,2.13-25.36,4.26-38.04,6.39-1.31.22-2.67.44-3.95.22-1.28-.22-2.47-1.01-2.58-2.1-.18-1.76,2.27-2.95,4.32-3.58,25.82-7.99,54.43-7.95,78.99-18.59-1.44-2.51-5.84-2.22-9.23-1.58-8.81,1.67-17.63,3.35-26.44,5.02-1.52.29-3.47.43-4.15-.68-.89-1.45,1.46-2.95,3.39-3.54,5.97-1.84,12.2-3.01,18.45-3.44-5.78-1.49-12.19.36-18.16,1.95-14.75,3.94-29.98,6.41-45.23,7.32-.48.03-.97.05-1.39-.11-1.22-.46-.88-2.14.27-2.81,1.15-.67,2.58-.86,6.28-1.52Z"/>
            <path class="cls-4" d="m394.83,392.94c-10.88.86-21.77,1.72-32.65,2.57-1.4.11-2.85.23-4.09.83-1.24.6-2.2,1.81-1.87,2.91.22.72.92,1.25,1.18,1.96.32.87-.16,1.94-1.11,2.47-.95.54-2.29.5-3.11-.09.37,1.32,2.2,1.98,3.86,1.85,1.66-.13,3.19-.85,4.71-1.48,7.77-3.22,16.59-4.47,24.91-3.52,1.77.2,3.55.5,5.35.39,1.81-.11,3.71-.71,4.83-1.94,1.12-1.23,1.12-3.17-2.01-5.96Z"/>
            <path class="cls-4" d="m273.9,415.17c20.2-5.35,40.76-9.58,61.49-12.63,1.9-.28,3.83-.55,5.7-.34,1.87.21,3.71.98,4.57,2.34-24.87,1.88-49.63,6.58-73.38,13.9-.84.26-1.82.52-2.56.16-.75-.36-.81-2.12,4.19-3.44Z"/>
            <path class="cls-4" d="m297.87,416.79c17.29-4.95,35.5-7.26,53.4-6.78-9.24,4.49-20.57,2.73-30.82,4.94-4.71,1.01-9.15,2.86-13.74,4.27s-9.55,2.37-14.18,1.53c1.15-1.39,2.54-3.15,5.33-3.95Z"/>
            <path class="cls-4" d="m401.46,428.86c-13.59,1.06-27.16,2.81-40.59,5.24-1.52.27-3.41.91-3.46,2.18-.04.93,1.1,1.61,2.22,1.65,1.12.04,2.22-.38,3.27-.77,11.33-4.15,23.87-5.69,35.78-4.41,1.39.15,2.92.31,4.16-.33,1.23-.64,1.56-2.46-1.39-3.56Z"/>
            <path class="cls-4" d="m341.36,445.62c6.89-.56,13.5-2.9,20.29-4.23s14.41-1.51,19.74,1.83c-4.64.43-9.28.86-13.92,1.29-9.32.86-18.79,1.76-27.58,4.8-1.07.37-2.17.78-3.29.74-1.13-.03-2.27-.68-2.28-1.61,0-.93,1.65-1.71,7.04-2.82Z"/>
            <path class="cls-4" d="m278.83,450.3c16.82-4.89,34.12-9.85,51.56-9.43,1.22.03,2.69.23,3.06,1.18.28.72-.27,1.56-1.06,2.02-.78.46-1.74.62-2.66.78-5.69.95-11.38,1.9-17.07,2.84-1.05.18-2.4.64-2.35,1.51.04.83,1.29,1.09,2.28,1.16,4.05.26,11.66-1.19,12.16.78.51,2.05-8.56,3.27-13.18,3.38-4.62.11-9.28-.27-13.84.57-3.99.73-7.72,2.34-11.62,3.42-3.9,1.08-10.17,3.09-11.8.12-1.42-2.59,15.59-6.46,24.01-6.63,1-.02,2.04-.02,2.95-.41.91-.39,1.62-1.3,1.26-2.05-.58-1.21-2.8-.74-4.28-.14-6.94,2.81-14.56,4.33-22.1,4.42.04-.99,1.17-1.92,2.69-3.51Z"/>
          </g>
          <path class="cls-12" d="m371.68,385.56c-13.69.14-28.53.59-39.73,7.7-2.69,1.71-5.09,3.76-7.98,5.21-8.02,4.01-18.13,2.64-26.69,5.7-1.15.41-2.38,1.01-2.78,1.99-.56,1.39.96,2.76,2.65,2.99s3.44-.35,5.09-.87c14.11-4.47,28.99-6.47,43.74-8.45,7.4-.99,14.8-1.98,22.2-2.97,2.38-.32,4.83-.66,6.95-1.67s3.89-2.88,3.8-4.85-2.35-4.82-7.26-4.77Z"/>
          <path class="cls-12" d="m318.12,374.35c1.28-.34,2.64-.43,3.93-.27l9.33,1.13c1.19.14,2.52.36,3.12,1.21.68.96.02,2.32-1.1,3.05-1.12.73-2.55.97-3.92,1.16-7.89,1.08-16.07,1.2-23.49,3.89-5.28,1.91-9.86,5.02-15.01,7.18-5.15,2.16-11.46,3.29-16.22,1.03-1.42-.67-2.73-1.86-2.44-3.24.33-1.6,2.5-2.47,4.36-3.04,13.39-4.12,26.78-8.24,41.45-12.09Z"/>
          <path class="cls-7" d="m401.2,438.66c-9.39,2.48-18.79,4.97-28.18,7.45-1.44.38-2.97.81-3.97,1.77-1,.96-1.15,2.63.1,3.24,1.52.74,4.46-.16,4.74,1.31.21,1.11-1.64,1.69-3,1.84-4.79.54-9.52,1.68-13.99,3.37-.91.34-1.84.74-2.46,1.39-.62.66-.8,1.66-.16,2.23.64.57,1.75.51,2.72.41,10.92-1.13,21.85-2.26,32.78-3.39,6.56-.68,14.06-1.82,17.76-6.51,3.29-4.17,1.66-10.26-6.32-13.12Z"/>
          <path class="cls-7" d="m272.16,460.28c18.02-5.66,37.1-8.62,55.98-8.67,1.36,0,2.94.11,3.6,1.06.73,1.06-.27,2.55-1.65,3.14-1.38.59-2.97.54-4.48.52-12.01-.18-24.26,2.34-35.11,7.22,6.62,2.02,14.19.4,21.33-.78,7.14-1.19,17.02-2.37,13.45,2.99-3.3,4.95-27.34,5.24-44.62,8.43-2.35.43-4.82.87-7.08.36-4.53-1.02-6.4-6.32-1.42-14.25Z"/>
          <path class="cls-7" d="m378.87,416.11c-14.08,1.19-28.16,2.37-42.24,3.56-1.24.1-2.74.36-3.25,1.32-.74,1.4,1.34,2.53,3.1,2.78,1.76.25,3.98.58,4.3,2.03-6.29,1.5-20.27,1.97-18.86,4.51,2.76,4.98,15.68.27,23.51-.89,11.67-1.73,23.31-3.7,34.94-5.68,1.72-.29,3.5-.61,4.96-1.46,1.46-.86,2.49-2.42,1.97-3.77-.53-1.34-2.96-2.86-8.43-2.4Z"/>
          <path class="cls-7" d="m273.6,432.96c11.22-2.65,22.85-3.78,34.28-3.34,1.11.04,2.53.35,2.53,1.28,0,.74-.95,1.24-1.78,1.55-4.13,1.54-8.6,2.36-13.02,2.4-1.45.01-3.01-.04-4.26.63-1.26.67-1.8,2.39-.6,3.01,1.18.61,3.48.02,3.67,1.18.14.87-1.28,1.33-2.35,1.44-7.75.82-15.5,1.65-23.25,2.47-1.57.17-3.18.33-4.69.04-1.51-.29-2.93-1.13-3.29-2.37-.36-1.25.71-2.83,2.28-2.96"/>
          <g>
            <path class="cls-13" d="m345.93,434.32c7.86-1.97,16.14-2.47,24.04-1.46,1.17.15,2.57.53,2.7,1.51.17,1.35-2.07,1.97-3.72,2.06-4.61.24-9.22.48-13.82.72-4,.21-8.23.48-11.63,2.39-1.64.92-2.99,2.18-4.66,3.08-3.46,1.86-7.74,1.91-11.75,1.9-4.48-.02-8.96-.03-13.45-.05-1.46,0-3.24-.2-3.67-1.33-.52-1.39,1.51-2.59,3.2-3.19,10.11-3.56,20.77-5.91,32.76-5.63Z"/>
            <path class="cls-13" d="m337.97,404.43c12.54-3.62,26.04-4.46,38.67-2.39-9.97,2.11-19.94,4.22-29.91,6.33,1.55-.16,2.16,1.78,1.15,2.81-1.01,1.03-2.72,1.29-4.27,1.48-9.49,1.15-18.98,2.3-28.46,3.45-.94.11-2.08.16-2.59-.48-.65-.82.35-1.91,1.3-2.59,6.86-4.9,15.59-7.94,24.11-8.61Z"/>
            <path class="cls-13" d="m370.23,412.11c3.59-1.3,7.61-1.66,11.32-1.01,1.11.19,2.32.56,2.74,1.42.5,1.02-.4,2.28-1.62,2.85-1.21.57-2.64.63-4,.7-11.64.54-23.28,2.22-34.61,4.98-7.22,1.76-15.26,3.92-21.66,1.15,5.3-3.34,12.19-4.04,18.67-4.29,6.48-.25,13.18-.22,19.21-2.47,2.25-.84,4.36-1.99,6.69-2.64,2.33-.65,5.05-.72,3.27-.69Z"/>
            <path class="cls-13" d="m273.71,379.1c16.94-4.06,49.53-20.7,51.76-6.57.74,4.66-19.47,3.89-28.35,8.09-2.11,1-3.98,2.34-6.09,3.34-3.19,1.52-6.78,2.21-10.32,2.87-4.87.92-9.73,1.84-14.6,2.76-1.51.29-3.13.57-4.53.13-3.16-.99-3-5.1-.51-7.2,2.49-2.1,6.18-2.7,12.63-3.42Z"/>
          </g>
          <g>
            <path class="cls-5" d="m383.05,440.41c-18.6,1.94-37.66,3.99-54.69,11.12,8.42.52,17.12-.68,25.11-3.49,3.14-1.1,6.44-2.48,9.69-2.03,2,.28,3.72,1.22,5.61,1.78,4.25,1.27,9.09.57,13.67-.15,1.7-.27,3.45-.55,4.95-1.31,1.5-.77,2.7-2.15,2.55-3.55s-2.1-2.86-6.89-2.36Z"/>
            <path class="cls-5" d="m296.84,460.17c17.24-3.27,34.84-4.83,52.27-4.65.98.01,2.06.06,2.71.63,1.03.91.23,2.59-1.14,3.27-1.37.68-3.02.64-4.56.62-13.51-.21-27.22,1.83-40.11,5.96-2.02.65-4.08,1.36-6.21,1.44-2.13.08-4.39-.63-5.28-2.18-.89-1.55-.07-4.64,2.32-5.09Z"/>
            <path class="cls-5" d="m381.44,365.47c-15.37.6-30.77,3.33-45.37,8.03,1.38,1.34,3.74,1.75,5.93,1.55,2.19-.2,4.3-.91,6.42-1.5,5.84-1.62,12-2.28,18.01-1.95,3.31.18,6.61.67,9.95.32,3.33-.35,6.83-1.73,5.07-6.46Z"/>
          </g>
          <g>
            <path class="cls-11" d="m390.95,372.22c-9.07,6.35-23.31,3.75-32.78,9.69,1.47-.08,2.23,1.48,1.79,2.66-.44,1.18-1.59,2.1-2.39,3.16s-1.2,2.56-.17,3.38c.54.44,1.35.56,2.13.61,9.14.55,17.61-7.3,26.61-6.12,2.27.3,4.35,1.17,6.59,1.56,2.25.39,4.93.18,6.55-1.28,1.31-1.19,1.58-2.94,1.17-4.44s-1.42-2.81-9.49-9.21Z"/>
            <path class="cls-11" d="m396.13,399.45c-14.05,1.26-28.19,2.54-41.87,5.9-.85.21-1.75.45-2.38.98s-.86,1.47-.25,1.96c.39.31.99.36,1.54.39,4.18.25,8.36.51,12.54.76-.48.4-.14,1.12.46,1.32.6.2,1.3.06,1.95-.09,6.43-1.44,12.86-2.88,19.3-4.32,2.98-.67,6.06-1.37,8.71-6.9Z"/>
            <path class="cls-11" d="m264.59,399.49c11.5-3.46,23.05-6.94,34.95-8.91,11.9-1.97,34.22-4.92,33.35-1.3-1.94,8.03-33.52-.46-32.48,9.23.16,1.48,2.99,1.73,2.43,3.18-.56,1.45-2.33,2.44-4.11,2.8-1.78.36-3.61.2-5.4.12-7.21-.34-14.58.48-21.59,2.41-3,.82-6.19,1.86-9.13,1.17-2.94-.69-6.11-6.26,1.98-8.69Z"/>
            <path class="cls-11" d="m268.1,417.46c17.71-5.34,36.43-7.97,54.88-7.72,1.68.02,3.85.45,3.86,1.85,0,1.38-2.12,2.05-3.78,2.29-9.15,1.33-18.3,2.65-27.45,3.98-1.5.22-3.08.46-4.31,1.26-1.22.8-1.9,2.35-1.03,3.33,1.26,1.42,4.81.94,5.17,2.7.31,1.52-2.22,2.36-4.11,2.55-5.32.53-10.65,1.06-15.97,1.59-2.37.24-4.8.47-7.05-.06-2.24-.52-4.27-1.99-4.43-3.94-.17-1.95,2.21-4.06,4.23-7.82Z"/>
          </g>
        </g>
      </g>
      <g>
        <path class="cls-17" d="m358.41,260.95c24.32.47,47.67,11.63,65.82,27.83,18.15,16.2,31.51,37.15,41.97,59.12,10.36,21.76,18.2,45.41,17.19,69.49-1.44,34.36-20.43,65.25-30.98,98.23-29.02-1.56-57.84-6.79-88.2-14.89-1.63-20.24,5.42-40.12,13.53-58.74,8.1-18.61,16.32-43.34,20.18-64.22-17.65-41.97-34.29-78.1-39.5-116.82Z"/>
        <path class="cls-17" d="m233.22,307.06c7.35,38.35,32.1,87.78,58.27,116.76,26.18,28.98,60.55,36.98,71.18,78.05-12.98-1.13-31.23,1.2-44.2,2.48-12.97,1.28-25.97,5.14-36.28,11.64-14.45-15.45-29.03-31.05-39.83-49.24-14.3-24.08-21.4-51.64-28.32-78.78-3.7-14.52-7.44-29.39-6.08-44.31s8.83-30.18,25.26-36.6Z"/>
        <path class="cls-17" d="m236.98,449.79c-15.63,8.83-26.5,24.47-33.02,41.19-6.51,16.72-9.12,34.67-11.68,52.44-.6,4.14-1.08,8.77,1.4,12.14,2.57,3.48,7.34,4.31,11.64,4.76,15.38,1.6,30.87,1.72,46.33,1.84,61.06.47,122.18.94,183.13-2.79,12.86-.79,25.98-1.82,37.88-6.78,11.24-4.68,31.56-9.43,40.38-17.81,18.11-17.19,23.18-39.96,36.21-61.26,2.43-3.97,4.84-8.34,4.45-12.98-.45-5.32-4.64-9.75-9.52-11.91s-10.36-2.43-15.7-2.43c-25.4.03-50.78,5.75-74.5,15.71-71.73,6.86-144.59,1.83-217.01-12.13Z"/>
      </g>
      <g>
        <path class="cls-16" d="m237.96,373.31c14.69,10.69,32.94,18.82,41.58,35.72-10.88-15.19-28.54-22.8-41.58-35.72h0Z"/>
        <path class="cls-16" d="m238.34,387.21c9.81,7.01,19.28,14.38,28.46,22.19-10.75-5.53-20.47-13.13-28.46-22.19h0Z"/>
        <path class="cls-16" d="m241.71,410.84c18.56,18.93,47.33,25.73,62.43,48.33-17.11-20.64-45.7-27.31-62.43-48.33h0Z"/>
        <path class="cls-16" d="m338.47,462.39c10.76,12.37,18.95,33.83,19.47,50.21-1.8-8.87-4.54-17.45-7.8-25.86-3.27-8.41-6.93-16.63-11.67-24.35h0Z"/>
        <path class="cls-16" d="m249.01,361.98c5.83,8.38,10.53,17.54,13.91,27.18-5.84-8.38-10.52-17.55-13.91-27.18h0Z"/>
        <path class="cls-16" d="m247.71,458.78c37.85,7.84,61.95,43.05,98.04,54.98-37.24-9.38-61.24-44.56-98.04-54.98h0Z"/>
        <path class="cls-16" d="m241.79,464.94c17.89,4.29,30.47,19.03,44.07,30.24,13.75,11.52,30.41,18.68,47.01,25.19-17.22-5.05-34.35-12.04-48.28-23.65-13.73-11.38-25.42-25.95-42.79-31.78h0Z"/>
        <path class="cls-16" d="m230.32,476.84c35.17,4.53,79.69,48.96,115.63,43.07,2.8-.4,5.58-1.41,8.18-2.52,1.3-.6,2.54-1.34,3.82-2.01-36.49,24.68-90.93-31.68-127.62-38.54h0Z"/>
        <path class="cls-16" d="m434.27,343.43c-6.28,26.12-33,39.61-43.75,63.32,8.27-25.13,35.04-38.41,43.75-63.32h0Z"/>
        <path class="cls-16" d="m396.98,273c15.51,35.11-.5,74.64,10.1,110.73-13.37-35.6,2.69-74.99-10.1-110.73h0Z"/>
        <path class="cls-16" d="m364.31,268.77c12.94,25.98,15.34,57.2,35.26,79.5-22.15-20.58-24.96-52.64-35.26-79.5h0Z"/>
        <path class="cls-16" d="m445.54,342.63c-4.66,21.14-18.19,40.42-36.49,51.99,16.51-13.79,29.15-31.76,36.49-51.99h0Z"/>
        <path class="cls-16" d="m431.42,415.99c-9.14,23.32-35.92,31.77-49.64,51.59,11.57-21.64,38.18-29.84,49.64-51.59h0Z"/>
        <path class="cls-16" d="m513.05,456.46c-4.57,16.63-15.2,31.08-27.04,43.37-9.15,8.32-20.22,14.13-30.96,19.99-4.34,2.28-8.73,4.45-13.19,6.5-4.22,1.78-8.37,3.94-12.87,4.9-.26.04-.82.06-.66-.33-.01.08-.04.15,0,.21.05.05.12.08.19.08,1.06-.04,2.05-.57,3.03-.95,3.37-1.42,6.63-3.11,9.88-4.8,8.65-4.52,17.17-9.31,25.48-14.41,6.14-3.84,12.42-7.68,17.72-12.6,11.81-12.12,22.59-25.92,28.41-41.98h0Z"/>
        <path class="cls-16" d="m368.67,464.38c-2.72,7.91-3.29,15.9-3.3,24.21-.03.38-.08,1.15-.08,1.53-.2,3.41,1.36,6.58,3.65,9.12,2.66,2.97,6.15,5.21,9.63,7.45-6.61-2.52-14.4-7.11-15.2-14.97-.14-9.25.56-19.15,5.31-27.34h0Z"/>
        <path class="cls-16" d="m451.22,427.58c-13.22,20.25-36.56,33.82-60.7,35.28,23.59-4.3,45.29-16.9,60.7-35.28h0Z"/>
        <path class="cls-16" d="m464.75,371.16c-4.84,36.42,3.7,65.35-31.11,90.31-9,6.53-18.98,11.36-28.94,16.04,14.31-8.01,29.08-15.92,39.99-28.36,19.82-21.41,14.14-51.68,20.06-77.99h0Z"/>
        <path class="cls-16" d="m479.76,456.46c-6.52,8.67-11.71,18.3-15.25,28.54-3.7,9.86-4.26,24.02-15.6,28.59-9.08-.15-27.36-.55-36.43-.82-12.02-.36-24.83-.86-35.58-6.87,11.13,5.22,23.56,5.18,35.6,5.26,0,0,18.22.16,18.22.16l18.22.29s-.44.09-.44.09c10.31-4.92,10.66-17.82,14.59-27.22,3.85-10.23,9.52-19.78,16.66-28.02h0Z"/>
      </g>
      <path class="cls-13" d="m318.16,222.68c.14,11.83,2.73,23.62,8.65,35.72-3.19,22.46-6.37,44.92-9.56,67.39-.42,2.93-1.54,6.58-4.49,6.84-2.27.2-4.03-1.85-5.36-3.7-12.81-17.72-25.63-35.44-39.81-53.01-.52-5.45-3.57-10.29-6.54-14.89,23.28-2.21,44.88-17.5,57.12-38.35Z"/>
      <g>
        <g>
          <ellipse class="cls-13" cx="276.92" cy="216.1" rx="45.1" ry="57.46" transform="translate(-29.58 44.51) rotate(-8.73)"/>
          <g>
            <path class="cls-13" d="m315.58,193.19c5.84-1.19,12.28,1.81,15.14,7.04s1.9,12.27-2.26,16.54c-2.27,2.33-5.26,3.8-8.25,5.08-1.44-9.89-2.89-19.79-4.63-28.66Z"/>
            <g>
              <path class="cls-9" d="m320.44,199.43c3.61-.9,7.96,1.66,8.22,5.51-2.67-2.21-5.34-3.61-8.22-5.51h0Z"/>
              <path class="cls-9" d="m323.92,200.93c3.82,3.42,2.75,10.89-1.51,13.52,1.73-4.36,2.53-8.89,1.51-13.52h0Z"/>
            </g>
          </g>
          <g>
            <path class="cls-13" d="m233.52,204.32c-5.93.62-11.17,5.41-12.33,11.26-1.16,5.84,1.87,12.27,7.11,15.1,2.86,1.54,6.16,2.05,9.39,2.38-1.59-9.87-3.18-19.74-4.18-28.73Z"/>
            <g>
              <path class="cls-9" d="m230.22,210.9c-2.18,2.67-4.31,4.8-6.19,7.72-.91-3.75,2.47-7.5,6.19-7.72h0Z"/>
              <path class="cls-9" d="m227.35,213.38c.42,4.73,2.54,8.81,5.5,12.45-4.85-1.24-8.12-8.04-5.5-12.45h0Z"/>
            </g>
          </g>
          <g>
            <path class="cls-9" d="m266.28,270.59c3.91,1.81,8.5,2.01,12.76,2.18,10.78.17,21.28-4.96,28.28-13.07,1.42-1.65,2.62-3.46,3.77-5.35-.75,2.07-1.75,4.08-2.99,5.94-6.36,9.27-17.88,14.98-29.13,14.03-4.35-.47-9.07-1.15-12.69-3.74h0Z"/>
            <path class="cls-9" d="m273.06,203.25c1.92,3.73,4.85,9.95-.21,12.52-1.71.85-4.11,1.55-4.92,3.37-.34.73.11,2.01.63,3.02,1.19,2.07,3.43,3.67,5.34,5.51-3.52-1.63-8.67-4.46-7.78-9.1.75-2.29,3.04-3.32,5.04-4.18,5.06-1.52,2.29-7.41,1.9-11.14h0Z"/>
            <path class="cls-4" d="m249.34,214.16c-.24-1.55.58-2.96,1.83-3.15,1.25-.19,2.45.91,2.69,2.46.24,1.55-.58,2.96-1.83,3.15-1.25.19-2.45-.91-2.69-2.46Z"/>
            <path class="cls-4" d="m292.92,207.47c-.24-1.55.58-2.96,1.83-3.15,1.25-.19,2.45.91,2.69,2.46.24,1.55-.58,2.96-1.83,3.15-1.25.19-2.45-.91-2.69-2.46Z"/>
            <path class="cls-9" d="m293.93,228.29c-.59,10.93-12.52,18.65-22.81,14.95-3.3-1.08-6.3-3.13-8.24-5.9,2.56,2.19,5.54,3.67,8.67,4.4,9.75,2.53,19.63-3.93,22.39-13.45h0Z"/>
            <path class="cls-4" d="m241.97,206.03c1.6-1.71,3.75-2.29,5.16-3.02,1.74-.91,4.43-1.95,6.36-2.27.86-.14,2.63-.58,3.44-.24.56.24,1.09,1.58.61,2.31-.4.6-1.19.76-1.89.9-5.35,1.02-10.47,3.25-14.88,6.49-.27.2-.48-1.64,1.21-4.16Z"/>
            <path class="cls-4" d="m303.15,196.84c-3.77-1.77-8.9-1.78-12.53-1.27-.86.12-2.68.24-3.35.81-.47.4-.57,1.83.11,2.38.56.45,1.36.37,2.08.29,5.41-.63,10.97-.04,16.14,1.73.32.11-1.11-3.17-2.45-3.93Z"/>
          </g>
        </g>
        <g>
          <path class="cls-4" d="m232.82,198.33c-2.02-13.47-3.59-32.41,3.38-43.92,5.17-8.55,14.64-13.69,24.26-14.59,9.62-.89,19.32,2.13,27.69,7.18,15.91,9.6,27.29,23.98,28.88,45.98-22.3-10.79-70-4.24-84.21,5.34Z"/>
          <path class="cls-4" d="m235.1,165.98c-6.15,4.05-12.44,8.25-16.77,14.36-4.32,6.11-6.3,14.67-2.98,21.43.51,1.05,1.31,2.14,2.44,2.2.84.05,1.58-.51,2.26-1.03,4.24-3.32,8.48-6.63,12.72-9.95,1.37-1.07,2.77-2.17,3.69-3.68,2.02-3.28,1.34-7.59.37-11.36-.97-3.77-2.16-7.8-1.73-11.97Z"/>
          <path class="cls-4" d="m297.45,161.08c4.5-3.04,7.67-7.75,11.32-11.86,3.65-4.11,8.3-7.86,13.66-7.93,3.95-.05,7.74,1.97,10.63,4.8,2.89,2.82,5.01,6.4,6.94,10.02,1.52,2.84,2.97,5.82,3.32,9.06.35,3.24-.61,6.81-3.12,8.73-2.24,1.71-5.28,1.81-7.99,1.22s-5.27-1.81-7.95-2.54c-6.82-1.84-14.41-.28-20.06,4.13-3.23-4.08-5.65-8.86-6.75-15.63Z"/>
          <path class="cls-4" d="m316.08,189.02c-5.35-20.37-10.69-40.73-16.04-61.1-1.48-5.64-3.11-11.55-7.08-15.65-3.89-4.02-9.54-5.72-15.01-5.78-5.46-.06-10.84,1.33-16.14,2.72-8.75,2.29-18.58,5.45-22.51,13.96-2.37,5.11-2.02,11.09-1.61,16.76.8,11.29,1.61,22.57,2.41,33.86.16,2.23.45,4.72,2.12,6.1,1.85,1.53,4.51.99,6.81.46,21.71-5.03,44.86-3.06,67.04,8.68Z"/>
        </g>
      </g>
      <g>
        <path class="cls-12" d="m321.75,245.71c1,8.4,1.62,16.79.8,25.21-2.07,21.14-2.82,37.45-9.48,53.78,0,0-46.42-52.25-46.59-53.57-.13-.95-5.63-1.27-5.44,2.94.17,3.81,3.21,16.81,9.64,34.2,3.2,8.66,5.74,17.71,10.97,25.32,5.23,7.61,13.2,13.86,22.38,14.8,6.27.64,12.53-1.21,18.36-3.6,5.29-2.17,10.57-4.93,14.09-9.44,5.55-7.11,5.61-16.92,5.43-25.94-.27-13.27-.54-26.54-.82-39.82-.11-5.42-.23-10.92-1.81-16.1-1.58-5.19-2.69-5.87-7.97-8.27-1.24-.56-9.84-1.86-9.56.5Z"/>
        <path class="cls-8" d="m313.07,324.7c-2.36,7.84-5.86,15.54-7.73,23.53-.87-8.47,2.84-16.81,7.73-23.53h0Z"/>
      </g>
    </g>
    <g>
      <path class="cls-13" d="m159.38,231.83c0,14.6-7.38,30.46-13.09,40.5-1.39,2.45,12.46,22.68,28.66,44.71,2.45,3.34,4.99,6.75,8.48,8.98,1.66,1.06,3.93,1.8,5.53.65,1.23-.88,1.57-2.53,1.82-4.02,1.88-11.51,3.2-23.15,6.37-34.37s8.38-22.16,16.88-30.16c-16.34-3.15-40.02-15.95-54.64-26.3Z"/>
      <g>
        <g>
          <path class="cls-13" d="m175.45,173.51c8.46-6.39,20.43-7.03,30.27-3.07,9.84,3.96,17.64,12.01,22.92,21.21,5.28,9.2,8.25,19.53,10.52,29.89,1.32,6.01,2.44,12.16,1.99,18.3s-2.61,12.35-7.02,16.65c-4.82,4.69-11.77,6.61-18.5,6.85-20.36.74-39.76-13.04-48.2-31.58-8.44-18.54-10.22-44.48,8.02-58.25Z"/>
          <path class="cls-13" d="m225.99,193.84c5.21,4.52,10.41,9.03,15.62,13.55,1.82,1.57,3.82,3.7,3.2,6.02-.52,1.97-2.67,2.95-4.57,3.68-2.03.78-4.51,1.5-6.23.15-.97-.76-1.4-1.99-1.79-3.16-2.05-6.13-4.11-12.26-6.23-20.25Z"/>
          <path class="cls-9" d="m239.82,224.68c.03,6.73-9.85,8.79-12.51,2.61,4.24,3.12,9.89,1.95,12.51-2.61h0Z"/>
          <path class="cls-9" d="m232.46,199.39c2.26,2.74,5.41,4.37,8.3,6.31,3.17,1.96,7.49,5.26,4.47,9.34-1.5,1.92-3.76,2.9-5.37,4.66,0,0,.27-.9.27-.9,1.71,8.9,2.74,18.47-.06,27.25,1.21-9.04-.12-18-1.89-26.86-.07-.34.04-.67.27-.9,1.56-1.72,3.8-2.69,5.29-4.42,2.33-2.9-1.68-5.4-3.73-7.11-2.65-2.12-5.89-4.35-7.53-7.38h0Z"/>
          <path class="cls-4" d="m208.18,199.93c1.59-2.39,2.8-3.66,3.82-4.56,1.26-1.11,2.79-2.45,4.33-3.1.69-.29,2.08-1.01,2.82-.89.52.09,1.23,1.09.97,1.8-.21.58-.84.88-1.4,1.13-4.26,1.93-8.07,4.82-11.09,8.4-.19.22-.1-1.63.55-2.79Z"/>
          <path class="cls-4" d="m205.87,169.79c1.38,9.82-5.56,17.77-11.38,25.81-3.37,4.65-7.8,8.62-10.14,13.86-2.59,5.81-2.28,12.45-1.92,18.8.25,4.42.73,9.5,1.11,13.08.37,3.52-1.03,7.04-3.85,9.17-.37.28-.72.49-1.01.59-6.36,2.14-23.61-.69-25.67-7.89-3.98-13.91-3.25-21.99-1.2-33.77,2.07-11.96,4.52-20.85,11.09-31.06,9.1-14.12,34.13-15.24,42.98-8.59Z"/>
          <path class="cls-4" d="m171.47,175.19c-5.95-8.93-17.03-14.16-27.71-13.08-10.68,1.08-20.49,8.42-24.54,18.36-6.24,15.33.97,33.4-4.26,49.1-4.82,14.45-19.01,23.66-26.43,36.96-9.9,17.76-6.41,39.89-12.03,59.44-2.21,7.69-5.85,14.99-7.22,22.88s.06,16.97,6.29,22.01c4.49-14.49,9.13-29.29,18.11-41.52,11.5-15.64,29.98-27.03,35.12-45.74,1.91-6.95,1.79-14.48,4.82-21.02,3.04-6.54,8.87-11.31,12.98-17.24,14.36-20.68,5.82-51.66,24.86-70.14Z"/>
          <path class="cls-4" d="m223.55,198.9c2.93,4.1-1.52,9.52-6.18,7.55-1.31-.48-2.46-1.39-3.04-2.6,1.17.6,2.31.94,3.43,1.08,3.64.65,6-2.58,5.79-6.04h0Z"/>
        </g>
        <path class="cls-10" d="m178.85,175.52c-.68,13.01-1.37,26.12-4.53,38.76-3.15,12.64-8.96,24.94-18.5,33.81,5.1-2.01,8.58-6.73,11.39-11.43,10.59-17.7,15.77-38.58,14.69-59.17-.04-.71-.11-1.48-.6-1.98-.49-.51-1.55-.45-2.46.01Z"/>
        <g>
          <path class="cls-13" d="m175.37,217.63c-2.82-1.41-6.46.36-7.94,3.14-1.49,2.78-1.27,6.17-.48,9.22.81,3.14,2.22,6.18,4.43,8.55,2.21,2.37,5.29,4.03,8.53,4.16,3.24.13,6.6-1.42,8.28-4.19-2.64-4.56-.96-10.71-5.59-17.96-.89-1.4-3.64-1.8-7.23-2.92Z"/>
          <g>
            <path class="cls-9" d="m178.45,242.53c1.31-.39,2.74-.72,4-1.06,1.27-.34,2.65-.77,3.99-1.08-1.05,3.07-5.54,4.26-7.99,2.14h0Z"/>
            <path class="cls-9" d="m175.83,222.24c-2.27,2.31-3.68,4.69-4.65,7.78-2.1-3.18.86-8.12,4.65-7.78h0Z"/>
            <path class="cls-9" d="m172.38,225.81c1.4.73,2.92,1.79,4.22,2.61,1.28.85,2.86,1.8,4.1,2.79-3.56.73-7.52-1.86-8.31-5.4h0Z"/>
          </g>
          <circle class="cls-12" cx="182.33" cy="237.5" r="4.24"/>
        </g>
        <path class="cls-4" d="m194.89,195.06c-1.29,2.24-3.12,4.32-3.91,6.77-.79,2.46-1.05,5.16-.25,7.61.81,2.46,2.62,4.52,3.27,7.02,1.13,4.37-1.52,9.01-.61,13.43.74,3.57,3.68,6.38,4.38,9.96.79,4.08-1.51,8.13-4.26,11.24.65-4.28-.74-8.83-3.67-12.02-1.5-1.63-3.45-3.06-3.99-5.2-.46-1.84.24-3.75.23-5.64-.01-3.03-1.87-5.81-4.26-7.67s-2.2-1.45-5.03-2.52c1.14-3.11,4.68-13.06,8.74-16.51,4.06-3.45,5.49-4.44,9.38-6.48Z"/>
        <circle class="cls-14" cx="213.49" cy="220.89" r="7.75"/>
      </g>
      <g>
        <path class="cls-12" d="m151.87,261.39c18.81,18.81,28.11,37.23,37.88,60.5.43-10.07.97-20.55,5.87-29.36,3.5,21.95,5.7,44.11,6.61,66.32.07,1.82.03,3.91-1.36,5.09-1.47,1.25-3.83.79-5.28-.49-1.45-1.27-2.2-3.14-2.93-4.92-8.5-20.82-19.73-40.53-33.31-58.46-4.7-6.2-11.25-16.02-14.67-23.01-1.94-3.97.72-9.17,7.2-15.66Z"/>
        <path class="cls-14" d="m212.75,343.61c-1.76-13.78-6.41-27.43-15.05-38.29,1.05,14.66.19,29.84-1.58,45.18-4.07-2.51-7.22-6.57-9.31-10.94-2.7-5.62-3.94-11.8-5.51-17.83-4.37-16.8-11.41-32.9-20.78-47.51-4.26-6.64-10.43-13.69-18.3-13.08-7.8.6-12.79,8.34-16.51,15.22-9.64,17.79-19.27,35.57-28.91,53.36-8.58,15.83-17.4,32.66-16.74,50.65.73,19.9,12.88,37.33,24.64,53.4,14.89,20.35,31.37,41.73,55.25,49.82,4.42,1.5,9.51,2.43,13.58.16.66-.37,1.26-.81,1.8-1.29.33,1.01.9,1.87,1.85,2.44,2.83,1.68,6.29-.82,8.35-3.39,6.29-7.83,9.55-17.62,12.35-27.27,6.55-22.59,11.25-45.72,14.03-69.08,1.65-13.79,2.62-27.77.86-41.55Z"/>
      </g>
      <g>
        <path class="cls-14" d="m122.69,284.08c5.22-3.16,11.64-3.42,17.12-.73,17.13,8.4,30.02,24.52,42.61,39.35,11.78,13.88,25.59,27.98,42.3,33.87,8.01,2.82,13.73,9.86,14.63,18.3,2.15,20.17,2.14,40.57-1.58,60.47-4.68,25.05-15.51,49.32-33.24,67.62-22.05,22.76-53.33,34.84-84.74,39.07-31.41,4.22-63.31,1.24-94.8-2.29-11.3-1.27-24.78-4.25-28.57-14.97-2.24-6.34-.14-13.29,1.96-19.68,8.56-26.02,17.37-52.53,33.6-74.59,11.24-15.29,19.35-33.78,29.69-49.69,10.37-15.95,18.87-33.01,25.58-50.81,6.45-17.1,18.98-35.97,35.46-45.92Z"/>
        <g>
          <path class="cls-6" d="m187.97,334.42c1.02-1.31,1.13-3.12.26-4.53-6.47-10.43-17.46-18.83-29.67-18.54-13.79.33-25.04,11.34-32.16,23.16-7.12,11.82-11.74,25.21-20.52,35.86-4.11,4.98-9.2,9.5-11.14,15.66-1.76,5.57-.63,11.62-1.36,17.42-1.54,12.22-11.21,22.05-22.06,27.88-10.85,5.83-23.05,8.54-34.65,12.67-11.6,4.13-23.22,10.16-29.96,20.47-4.39,6.71-6.45,14.85-11.56,21.03-6.03,7.28-15.6,10.95-21.52,18.31-5.48,6.82-7.12,16.54-4.18,24.78,2.94,8.24,10.36,14.73,18.92,16.54,9.43-4.3,11.23-16.51,14.13-26.46,6.9-23.66,27.77-42.66,51.97-47.33,7.2-1.39,14.67-1.61,21.62-3.95,8.6-2.89,16.77-10.04,15.07-20.12-.56-3.33-.32-6.79,1.19-9.81,3.85-7.67,10.52-3.7,16.15-4.98,4.09-.92,7.11-4.56,8.56-8.49,1.45-3.93,1.63-8.19,1.99-12.37,1.91-22.11,4.87-27.04,17.17-45.51,5.09-7.64,17.69-21.94,26.26-25.23,7.11-2.73,15.41-2.99,20.11-2.89,1.62.03,3.14-.7,4.13-1.98l1.24-1.6Z"/>
          <path class="cls-15" d="m184.5,332.35c8.77.64,17.13,5.52,22.31,14.32-14.64,25.43-26.02,52.74-33.77,81.04-4.57,16.67-8.25,34.43-19.55,47.51-7.92,9.17-19,15.25-26.62,24.66-7.28,8.99-10.89,20.36-16.86,30.27-12.16,20.18-34.74,33.68-58.28,34.83-6.58.32-13.83-.54-18.44-5.24-5.09-5.19-5.35-13.62-2.91-20.47,5.33-14.94,20.5-23.71,34.73-30.71,14.24-7,29.72-14.46,36.99-28.56,3.28-6.37,4.76-13.9,9.82-18.97,6.79-6.8,18.35-7.39,24.42-14.85,4.69-5.77,4.68-14.05,3.18-21.33-1.5-7.28-4.26-14.4-4.29-21.84-.04-10.25,5.08-19.72,10.06-28.68,4.91-8.83,9.86-17.72,16.47-25.35,6.61-7.63,14.68-17.22,22.74-16.63Z"/>
          <path class="cls-11" d="m203.65,345.09c3.07-3.07,12.26,4.05,21.47,6.31,7.17,1.76,10.28,6.81,10.94,14.17.8,8.89-3.31,17.38-6.92,25.55-6.87,15.56-12.24,31.79-16.03,48.37-2.65,11.62-4.54,23.45-8.15,34.81-3.61,11.36-9.12,22.42-17.88,30.51-9.34,8.62-22.05,13.62-29.48,23.93-7.09,9.84-8.41,23.32-16.88,32-9.7,9.93-25.44,10.31-39.2,8.48-6.36-.84-13.91-3.08-15.51-9.3-1.07-4.15,1.07-8.38,3.15-12.12,9.9-17.89,19.8-35.77,29.7-53.66,3.64-6.57,7.45-13.35,13.49-17.81,5.77-4.26,13.27-6.18,18.06-11.52,6.17-6.89,5.96-17.13,6.64-26.35,2.5-34.12,35-81.77,46.6-93.37Z"/>
          <path class="cls-7" d="m233.22,356.84c6.55,1,18.14-.28,28.19,27.07,2.5,6.82-4.19,18.7-7.53,27.35-9.51,24.56-15.34,38.17-27.64,63.8-10.95,22.81-25.06,28.25-32.62,52.4-2.53,8.06-3.26,16.81-7.5,24.1-4.7,8.06-13.27,13.35-22.31,15.68-9.04,2.33-18.55,1.99-27.82.88,1.82-21.16,15.51-39.28,29.83-54.96,14.32-15.68,30.21-30.82,38.3-50.45,6.35-15.44,7.36-32.45,9.33-49.03,1.97-16.58,7.13-33.57,19.79-56.84Z"/>
        </g>
      </g>
      <g>
        <path class="cls-14" d="m164.61,132.19c-8.85-.25-15.98,7.12-15.51,15.96.11,2.12.19,4.24.35,6.35.43,5.68,1.67,11.64,5.53,15.83,3.78,4.1,9.48,5.83,15,6.59,8.12,1.11,16.36.48,24.53-.15,4.04-.31,8.39-.75,11.46-3.39,2.95-2.54,4.06-6.56,5.02-10.34,0,0,3.09-23.65-10.1-27.69-16.18-4.95-21.41-2.73-36.11-3.16h-.17Z"/>
        <g>
          <path class="cls-15" d="m191.39,128.11c0-2.46,1.93-4.46,4.31-4.46s4.31,1.99,4.31,4.46-1.93,4.46-4.31,4.46-4.31-1.99-4.31-4.46Z"/>
          <path class="cls-15" d="m178.22,127.1c0-2.46,1.93-4.46,4.31-4.46s4.31,1.99,4.31,4.46-1.93,4.46-4.31,4.46-4.31-1.99-4.31-4.46Z"/>
          <path class="cls-15" d="m166.69,127.1c0-2.46,1.93-4.46,4.31-4.46s4.31,1.99,4.31,4.46-1.93,4.46-4.31,4.46-4.31-1.99-4.31-4.46Z"/>
          <path class="cls-15" d="m155.72,128.64c0-2.46,1.93-4.46,4.31-4.46s4.31,1.99,4.31,4.46-1.93,4.46-4.31,4.46-4.31-1.99-4.31-4.46Z"/>
          <path class="cls-6" d="m157.13,122.65c0-1.35,1.09-2.44,2.44-2.44s2.44,1.09,2.44,2.44-1.09,2.44-2.44,2.44-2.44-1.09-2.44-2.44Z"/>
          <circle class="cls-6" cx="170.71" cy="121.21" r="2.44"/>
          <path class="cls-6" d="m180.33,121.74c0-1.35,1.09-2.44,2.44-2.44s2.44,1.09,2.44,2.44-1.09,2.44-2.44,2.44-2.44-1.09-2.44-2.44Z"/>
          <path class="cls-6" d="m193.98,122.65c0-1.35,1.09-2.44,2.44-2.44s2.44,1.09,2.44,2.44-1.09,2.44-2.44,2.44-2.44-1.09-2.44-2.44Z"/>
        </g>
        <g>
          <circle class="cls-12" cx="156.86" cy="132.05" r="3.16"/>
          <circle class="cls-12" cx="162.74" cy="131.8" r="3.16"/>
          <path class="cls-12" d="m165.71,131.8c0-1.75,1.42-3.16,3.16-3.16s3.16,1.42,3.16,3.16-1.42,3.16-3.16,3.16-3.16-1.42-3.16-3.16Z"/>
          <circle class="cls-12" cx="174.68" cy="131.27" r="3.16"/>
          <circle class="cls-12" cx="180.18" cy="131.8" r="3.16"/>
          <path class="cls-12" d="m182.77,131.8c0-1.75,1.42-3.16,3.16-3.16s3.16,1.42,3.16,3.16-1.42,3.16-3.16,3.16-3.16-1.42-3.16-3.16Z"/>
          <circle class="cls-12" cx="191.39" cy="132.05" r="3.16"/>
          <circle class="cls-12" cx="197.14" cy="132.63" r="3.16"/>
          <circle class="cls-12" cx="202.9" cy="134.43" r="3.16"/>
        </g>
        <path class="cls-15" d="m210.01,146.83c-1.67,3.42-3.33,6.84-5,10.27-.92,1.89-1.86,3.94-1.49,6.01.26,1.41,1.17,2.7,2.41,3.41,1.25.72,2.81.85,4.17.1,1.94-6.56,2.02-13.67-.1-19.78Z"/>
        <path class="cls-15" d="m188.95,153.33c0-2.38,1.93-4.31,4.31-4.31s4.31,1.93,4.31,4.31-1.93,4.31-4.31,4.31-4.31-1.93-4.31-4.31Z"/>
        <circle class="cls-15" cx="175.88" cy="153.33" r="4.31"/>
        <path class="cls-15" d="m155.46,153.33c0-2.38,1.93-4.31,4.31-4.31s4.31,1.93,4.31,4.31-1.93,4.31-4.31,4.31-4.31-1.93-4.31-4.31Z"/>
      </g>
    </g>
  </g>
</svg>