<?xml version="1.0" encoding="UTF-8"?>
<svg id="OBJECTS" xmlns="http://www.w3.org/2000/svg" viewBox="0 0 189.97 324.54">
  <defs>
    <style>
      .cls-1 {
        stroke-width: .69px;
      }

      .cls-1, .cls-2 {
        fill: none;
        stroke: #430f00;
        stroke-linecap: round;
        stroke-linejoin: round;
      }

      .cls-2 {
        stroke-width: .69px;
      }

      .cls-3 {
        fill: #606060;
      }

      .cls-3, .cls-4, .cls-5, .cls-6, .cls-7, .cls-8, .cls-9, .cls-10 {
        stroke-width: 0px;
      }

      .cls-4 {
        fill: #430f00;
      }

      .cls-5 {
        fill: #cb5140;
      }

      .cls-6 {
        fill: #c19f87;
      }

      .cls-7 {
        fill: #c1885d;
      }

      .cls-8 {
        fill: #f2b705;
      }

      .cls-9 {
        fill: #fff;
      }

      .cls-10 {
        fill: #efefef;
      }
    </style>
  </defs>
  <g>
    <line class="cls-1" x1="93.31" y1="43.53" x2="93.31" y2="2.48"/>
    <g>
      <path class="cls-8" d="m90.02,43.84h6.59c2.76,0,5,2.24,5,5v4.42h-16.59v-4.42c0-2.76,2.24-5,5-5Z"/>
      <path class="cls-1" d="m90.02,43.84h6.59c2.76,0,5,2.24,5,5v4.42h-16.59v-4.42c0-2.76,2.24-5,5-5Z"/>
    </g>
    <g>
      <path class="cls-8" d="m97.93,39.18c0,2.55-2.07,4.62-4.62,4.62s-4.62-2.07-4.62-4.62,2.07-4.62,4.62-4.62,4.62,2.07,4.62,4.62Z"/>
      <path class="cls-1" d="m97.93,39.18c0,2.55-2.07,4.62-4.62,4.62s-4.62-2.07-4.62-4.62,2.07-4.62,4.62-4.62,4.62,2.07,4.62,4.62Z"/>
    </g>
    <g>
      <path class="cls-8" d="m96.55,11.25c0,1.79-1.45,3.23-3.23,3.23s-3.23-1.45-3.23-3.23,1.45-3.23,3.23-3.23,3.23,1.45,3.23,3.23Z"/>
      <path class="cls-1" d="m96.55,11.25c0,1.79-1.45,3.23-3.23,3.23s-3.23-1.45-3.23-3.23,1.45-3.23,3.23-3.23,3.23,1.45,3.23,3.23Z"/>
    </g>
    <g>
      <path class="cls-8" d="m95.53,2.56c0,1.22-.99,2.21-2.21,2.21s-2.21-.99-2.21-2.21.99-2.21,2.21-2.21,2.21.99,2.21,2.21Z"/>
      <path class="cls-1" d="m95.53,2.56c0,1.22-.99,2.21-2.21,2.21s-2.21-.99-2.21-2.21.99-2.21,2.21-2.21,2.21.99,2.21,2.21Z"/>
    </g>
    <g>
      <path class="cls-8" d="m101.03,34.44h-15.43c0-1.62,1.31-2.93,2.93-2.93h9.57c1.62,0,2.93,1.31,2.93,2.93h0Z"/>
      <path class="cls-1" d="m101.03,34.44h-15.43c0-1.62,1.31-2.93,2.93-2.93h9.57c1.62,0,2.93,1.31,2.93,2.93h0Z"/>
    </g>
    <g>
      <path class="cls-8" d="m101.03,29.54h-15.43c0-1.62,1.31-2.93,2.93-2.93h9.57c1.62,0,2.93,1.31,2.93,2.93h0Z"/>
      <path class="cls-1" d="m101.03,29.54h-15.43c0-1.62,1.31-2.93,2.93-2.93h9.57c1.62,0,2.93,1.31,2.93,2.93h0Z"/>
    </g>
    <g>
      <path class="cls-8" d="m101.03,24.64h-15.43c0-1.62,1.31-2.93,2.93-2.93h9.57c1.62,0,2.93,1.31,2.93,2.93h0Z"/>
      <path class="cls-1" d="m101.03,24.64h-15.43c0-1.62,1.31-2.93,2.93-2.93h9.57c1.62,0,2.93,1.31,2.93,2.93h0Z"/>
    </g>
    <g>
      <path class="cls-8" d="m101.03,19.74h-15.43c0-1.62,1.31-2.93,2.93-2.93h9.57c1.62,0,2.93,1.31,2.93,2.93h0Z"/>
      <path class="cls-1" d="m101.03,19.74h-15.43c0-1.62,1.31-2.93,2.93-2.93h9.57c1.62,0,2.93,1.31,2.93,2.93h0Z"/>
    </g>
  </g>
  <g>
    <g>
      <rect class="cls-2" x="58.09" y="269.98" width="73.78" height="54.1"/>
      <rect class="cls-2" x="58.09" y="269.98" width="73.78" height="54.1"/>
    </g>
    <g>
      <rect class="cls-6" x="58.09" y="269.98" width="73.78" height="54.1"/>
      <rect class="cls-5" x="58.09" y="286.51" width="73.78" height="24.88"/>
    </g>
    <g>
      <rect class="cls-2" x="58.09" y="269.98" width="73.78" height="54.1"/>
      <rect class="cls-2" x="58.09" y="269.98" width="73.78" height="54.1"/>
    </g>
  </g>
  <rect class="cls-4" x="57.48" y="286.19" width="74.4" height="1.08"/>
  <rect class="cls-4" x="57.48" y="322.85" width="74.4" height="1.08"/>
  <rect class="cls-4" x="58.15" y="271.93" width="73.8" height="2.43"/>
  <rect class="cls-4" x="58.15" y="276.85" width="73.8" height="2.43"/>
  <g>
    <rect class="cls-8" x="78.35" y="271" width="4.11" height="4.98"/>
    <rect class="cls-1" x="78.35" y="271" width="4.11" height="4.98"/>
  </g>
  <g>
    <rect class="cls-8" x="105.21" y="271" width="4.11" height="4.98"/>
    <rect class="cls-1" x="105.21" y="271" width="4.11" height="4.98"/>
  </g>
  <g>
    <g>
      <rect class="cls-4" x="82.92" y="286.57" width="21.82" height="37.62"/>
      <rect class="cls-1" x="82.92" y="286.57" width="21.82" height="37.62"/>
    </g>
    <g>
      <rect class="cls-5" x="86.72" y="288.89" width="14.24" height="32.99"/>
      <rect class="cls-1" x="86.72" y="288.89" width="14.24" height="32.99"/>
      <g>
        <g>
          <path class="cls-8" d="m90.34,292.42c0,.37-.3.68-.68.68s-.68-.3-.68-.68.3-.68.68-.68.68.3.68.68Z"/>
          <path class="cls-8" d="m93.12,292.42c0,.37-.3.68-.68.68s-.68-.3-.68-.68.3-.68.68-.68.68.3.68.68Z"/>
          <path class="cls-8" d="m95.9,292.42c0,.37-.3.68-.68.68s-.68-.3-.68-.68.3-.68.68-.68.68.3.68.68Z"/>
          <path class="cls-8" d="m98.68,292.42c0,.37-.3.68-.68.68s-.68-.3-.68-.68.3-.68.68-.68.68.3.68.68Z"/>
        </g>
        <g>
          <path class="cls-8" d="m90.34,295.66c0,.37-.3.68-.68.68s-.68-.3-.68-.68.3-.68.68-.68.68.3.68.68Z"/>
          <path class="cls-8" d="m93.12,295.66c0,.37-.3.68-.68.68s-.68-.3-.68-.68.3-.68.68-.68.68.3.68.68Z"/>
          <path class="cls-8" d="m95.9,295.66c0,.37-.3.68-.68.68s-.68-.3-.68-.68.3-.68.68-.68.68.3.68.68Z"/>
          <path class="cls-8" d="m98.68,295.66c0,.37-.3.68-.68.68s-.68-.3-.68-.68.3-.68.68-.68.68.3.68.68Z"/>
        </g>
        <g>
          <path class="cls-8" d="m90.34,298.9c0,.37-.3.68-.68.68s-.68-.3-.68-.68.3-.68.68-.68.68.3.68.68Z"/>
          <path class="cls-8" d="m93.12,298.9c0,.37-.3.68-.68.68s-.68-.3-.68-.68.3-.68.68-.68.68.3.68.68Z"/>
          <path class="cls-8" d="m95.9,298.9c0,.37-.3.68-.68.68s-.68-.3-.68-.68.3-.68.68-.68.68.3.68.68Z"/>
          <path class="cls-8" d="m98.68,298.9c0,.37-.3.68-.68.68s-.68-.3-.68-.68.3-.68.68-.68.68.3.68.68Z"/>
        </g>
        <g>
          <path class="cls-8" d="m90.34,302.14c0,.37-.3.68-.68.68s-.68-.3-.68-.68.3-.68.68-.68.68.3.68.68Z"/>
          <path class="cls-8" d="m93.12,302.14c0,.37-.3.68-.68.68s-.68-.3-.68-.68.3-.68.68-.68.68.3.68.68Z"/>
          <path class="cls-8" d="m95.9,302.14c0,.37-.3.68-.68.68s-.68-.3-.68-.68.3-.68.68-.68.68.3.68.68Z"/>
          <path class="cls-8" d="m98.68,302.14c0,.37-.3.68-.68.68s-.68-.3-.68-.68.3-.68.68-.68.68.3.68.68Z"/>
        </g>
        <g>
          <path class="cls-8" d="m90.34,305.38c0,.37-.3.68-.68.68s-.68-.3-.68-.68.3-.68.68-.68.68.3.68.68Z"/>
          <path class="cls-8" d="m93.12,305.38c0,.37-.3.68-.68.68s-.68-.3-.68-.68.3-.68.68-.68.68.3.68.68Z"/>
          <path class="cls-8" d="m95.9,305.38c0,.37-.3.68-.68.68s-.68-.3-.68-.68.3-.68.68-.68.68.3.68.68Z"/>
          <path class="cls-8" d="m98.68,305.38c0,.37-.3.68-.68.68s-.68-.3-.68-.68.3-.68.68-.68.68.3.68.68Z"/>
        </g>
        <g>
          <path class="cls-8" d="m90.34,308.63c0,.37-.3.68-.68.68s-.68-.3-.68-.68.3-.68.68-.68.68.3.68.68Z"/>
          <path class="cls-8" d="m93.12,308.63c0,.37-.3.68-.68.68s-.68-.3-.68-.68.3-.68.68-.68.68.3.68.68Z"/>
          <path class="cls-8" d="m95.9,308.63c0,.37-.3.68-.68.68s-.68-.3-.68-.68.3-.68.68-.68.68.3.68.68Z"/>
          <path class="cls-8" d="m98.68,308.63c0,.37-.3.68-.68.68s-.68-.3-.68-.68.3-.68.68-.68.68.3.68.68Z"/>
        </g>
        <g>
          <path class="cls-8" d="m90.34,311.87c0,.37-.3.68-.68.68s-.68-.3-.68-.68.3-.68.68-.68.68.3.68.68Z"/>
          <path class="cls-8" d="m93.51,311.87c0,.59-.48,1.06-1.06,1.06s-1.06-.48-1.06-1.06.48-1.06,1.06-1.06,1.06.48,1.06,1.06Z"/>
          <path class="cls-8" d="m96.42,311.87c0,.59-.47,1.06-1.06,1.06s-1.06-.48-1.06-1.06.48-1.06,1.06-1.06,1.06.48,1.06,1.06Z"/>
          <path class="cls-8" d="m98.68,311.87c0,.37-.3.68-.68.68s-.68-.3-.68-.68.3-.68.68-.68.68.3.68.68Z"/>
        </g>
        <g>
          <path class="cls-8" d="m90.34,315.11c0,.37-.3.68-.68.68s-.68-.3-.68-.68.3-.68.68-.68.68.3.68.68Z"/>
          <path class="cls-8" d="m93.12,315.11c0,.37-.3.68-.68.68s-.68-.3-.68-.68.3-.68.68-.68.68.3.68.68Z"/>
          <path class="cls-8" d="m95.9,315.11c0,.37-.3.68-.68.68s-.68-.3-.68-.68.3-.68.68-.68.68.3.68.68Z"/>
          <path class="cls-8" d="m98.68,315.11c0,.37-.3.68-.68.68s-.68-.3-.68-.68.3-.68.68-.68.68.3.68.68Z"/>
        </g>
        <g>
          <path class="cls-8" d="m90.34,318.35c0,.37-.3.68-.68.68s-.68-.3-.68-.68.3-.68.68-.68.68.3.68.68Z"/>
          <path class="cls-8" d="m93.12,318.35c0,.37-.3.68-.68.68s-.68-.3-.68-.68.3-.68.68-.68.68.3.68.68Z"/>
          <path class="cls-8" d="m95.9,318.35c0,.37-.3.68-.68.68s-.68-.3-.68-.68.3-.68.68-.68.68.3.68.68Z"/>
          <path class="cls-8" d="m98.68,318.35c0,.37-.3.68-.68.68s-.68-.3-.68-.68.3-.68.68-.68.68.3.68.68Z"/>
        </g>
      </g>
    </g>
  </g>
  <g>
    <rect class="cls-9" x="111.44" y="288.19" width="14.53" height="21.53"/>
    <rect class="cls-4" x="111.44" y="288.19" width="14.53" height="21.53"/>
    <rect class="cls-3" x="113.41" y="290.36" width="10.59" height="17.19"/>
    <rect class="cls-1" x="111.44" y="288.19" width="14.53" height="21.53"/>
    <rect class="cls-1" x="111.44" y="288.19" width="14.53" height="21.53"/>
    <rect class="cls-1" x="113.41" y="290.36" width="10.59" height="17.19"/>
  </g>
  <g>
    <g>
      <path class="cls-7" d="m133.26,324.16h-6.56v-32.99c0-1.81,1.47-3.28,3.28-3.28h0c1.81,0,3.28,1.47,3.28,3.28v32.99Z"/>
      <path class="cls-1" d="m133.26,324.16h-6.56v-32.99c0-1.81,1.47-3.28,3.28-3.28h0c1.81,0,3.28,1.47,3.28,3.28v32.99Z"/>
    </g>
    <rect class="cls-7" x="125.73" y="284.89" width="8.51" height="3.82"/>
    <rect class="cls-1" x="125.73" y="284.89" width="8.51" height="3.82"/>
  </g>
  <g>
    <g>
      <path class="cls-7" d="m110.5,324.16h-6.56v-32.99c0-1.81,1.47-3.28,3.28-3.28h0c1.81,0,3.28,1.47,3.28,3.28v32.99Z"/>
      <path class="cls-1" d="m110.5,324.16h-6.56v-32.99c0-1.81,1.47-3.28,3.28-3.28h0c1.81,0,3.28,1.47,3.28,3.28v32.99Z"/>
    </g>
    <g>
      <rect class="cls-7" x="102.68" y="284.89" width="8.51" height="3.82"/>
      <rect class="cls-1" x="102.68" y="284.89" width="8.51" height="3.82"/>
    </g>
  </g>
  <g>
    <rect class="cls-9" x="62.59" y="288.19" width="14.53" height="21.53"/>
    <rect class="cls-4" x="62.59" y="288.19" width="14.53" height="21.53"/>
    <rect class="cls-3" x="64.56" y="290.36" width="10.59" height="17.19"/>
    <rect class="cls-1" x="62.59" y="288.19" width="14.53" height="21.53"/>
    <rect class="cls-1" x="62.59" y="288.19" width="14.53" height="21.53"/>
    <rect class="cls-1" x="64.56" y="290.36" width="10.59" height="17.19"/>
  </g>
  <g>
    <g>
      <path class="cls-7" d="m81.12,287.81h.01c1.81,0,3.27,1.47,3.27,3.27v32.84h-6.56v-32.84c0-1.81,1.47-3.27,3.27-3.27Z"/>
      <path class="cls-2" d="m81.12,287.81h.01c1.81,0,3.27,1.47,3.27,3.27v32.84h-6.56v-32.84c0-1.81,1.47-3.27,3.27-3.27Z"/>
    </g>
    <rect class="cls-7" x="76.88" y="284.89" width="8.51" height="3.82"/>
    <rect class="cls-1" x="76.88" y="284.89" width="8.51" height="3.82"/>
  </g>
  <g>
    <g>
      <path class="cls-7" d="m61.64,324.16h-6.56v-32.99c0-1.81,1.47-3.28,3.28-3.28h0c1.81,0,3.28,1.47,3.28,3.28v32.99Z"/>
      <path class="cls-1" d="m61.64,324.16h-6.56v-32.99c0-1.81,1.47-3.28,3.28-3.28h0c1.81,0,3.28,1.47,3.28,3.28v32.99Z"/>
    </g>
    <g>
      <rect class="cls-7" x="53.83" y="284.89" width="8.51" height="3.82"/>
      <rect class="cls-1" x="53.83" y="284.89" width="8.51" height="3.82"/>
    </g>
  </g>
  <rect class="cls-1" x="75.42" y="278.7" width="12.27" height="4.82"/>
  <rect class="cls-1" x="100.42" y="278.7" width="12.27" height="4.82"/>
  <rect class="cls-1" x="125.43" y="278.7" width="6.48" height="4.82"/>
  <rect class="cls-1" x="58.02" y="278.7" width="6.48" height="4.82"/>
  <g>
    <g>
      <g>
        <rect class="cls-4" x="131.92" y="271.17" width="28.68" height="2.6"/>
        <rect class="cls-1" x="131.92" y="271.17" width="28.68" height="2.6"/>
      </g>
      <polyline class="cls-9" points="131.78 278.18 131.83 282.06 158.4 269.9"/>
      <polygon class="cls-4" points="131.83 282.06 158.4 269.9 151.63 269.9 131.78 278.18 131.83 282.06"/>
      <polyline class="cls-1" points="131.78 278.18 131.83 282.06 158.4 269.9"/>
      <polygon class="cls-1" points="131.83 282.06 158.4 269.9 151.63 269.9 131.78 278.18 131.83 282.06"/>
    </g>
    <g>
      <g>
        <rect class="cls-4" x="29.26" y="271.17" width="28.68" height="2.6" transform="translate(87.2 544.95) rotate(180)"/>
        <rect class="cls-1" x="29.26" y="271.17" width="28.68" height="2.6" transform="translate(87.2 544.95) rotate(180)"/>
      </g>
      <polyline class="cls-9" points="58.08 278.18 58.02 282.06 31.45 269.9"/>
      <polygon class="cls-4" points="58.02 282.06 31.45 269.9 38.23 269.9 58.08 278.18 58.02 282.06"/>
      <polyline class="cls-1" points="58.08 278.18 58.02 282.06 31.45 269.9"/>
      <polygon class="cls-1" points="58.02 282.06 31.45 269.9 38.23 269.9 58.08 278.18 58.02 282.06"/>
    </g>
    <g>
      <g>
        <g>
          <polygon class="cls-3" points="131.13 252.23 58.12 252.54 .35 266.31 93.88 266.31 96.08 266.31 189.62 266.31 131.13 252.23"/>
          <polygon class="cls-1" points="131.13 252.23 58.12 252.54 .35 266.31 93.88 266.31 96.08 266.31 189.62 266.31 131.13 252.23"/>
          <g>
            <line class="cls-1" x1="5.19" y1="265.18" x2="5.19" y2="266.14"/>
            <line class="cls-1" x1="10.99" y1="263.83" x2="10.99" y2="266.14"/>
            <line class="cls-1" x1="16.78" y1="262.61" x2="16.78" y2="266.14"/>
            <line class="cls-1" x1="22.58" y1="261.45" x2="22.58" y2="266.14"/>
            <line class="cls-1" x1="28.37" y1="259.72" x2="28.37" y2="266.14"/>
            <line class="cls-1" x1="34.17" y1="258.44" x2="34.17" y2="266.14"/>
            <line class="cls-1" x1="39.96" y1="256.94" x2="39.96" y2="266.14"/>
            <line class="cls-1" x1="45.76" y1="255.61" x2="45.76" y2="266.14"/>
            <line class="cls-1" x1="51.55" y1="254.24" x2="51.55" y2="266.14"/>
            <line class="cls-1" x1="57.35" y1="252.69" x2="57.35" y2="266.14"/>
            <line class="cls-1" x1="63.15" y1="252.54" x2="63.15" y2="266.14"/>
            <line class="cls-1" x1="68.94" y1="252.54" x2="68.94" y2="266.14"/>
            <line class="cls-1" x1="74.74" y1="252.54" x2="74.74" y2="266.14"/>
            <line class="cls-1" x1="80.53" y1="252.53" x2="80.53" y2="266.14"/>
            <line class="cls-1" x1="86.33" y1="252.53" x2="86.33" y2="266.14"/>
            <line class="cls-1" x1="92.12" y1="252.53" x2="92.12" y2="266.14"/>
            <line class="cls-1" x1="97.92" y1="252.53" x2="97.92" y2="266.14"/>
            <line class="cls-1" x1="103.72" y1="252.53" x2="103.72" y2="266.14"/>
            <line class="cls-1" x1="109.51" y1="252.52" x2="109.51" y2="266.14"/>
            <line class="cls-1" x1="115.31" y1="252.52" x2="115.31" y2="266.14"/>
            <line class="cls-1" x1="121.1" y1="252.52" x2="121.1" y2="266.14"/>
            <line class="cls-1" x1="126.9" y1="252.39" x2="126.9" y2="266.14"/>
            <line class="cls-1" x1="132.69" y1="252.72" x2="132.69" y2="266.14"/>
            <line class="cls-1" x1="138.49" y1="254.06" x2="138.49" y2="266.14"/>
            <line class="cls-1" x1="144.28" y1="255.49" x2="144.28" y2="266.14"/>
            <line class="cls-1" x1="150.08" y1="256.86" x2="150.08" y2="266.14"/>
            <line class="cls-1" x1="155.88" y1="258.23" x2="155.88" y2="266.14"/>
            <line class="cls-1" x1="161.67" y1="259.63" x2="161.67" y2="266.14"/>
            <line class="cls-1" x1="167.47" y1="261.4" x2="167.47" y2="266.14"/>
            <line class="cls-1" x1="173.26" y1="262.46" x2="173.26" y2="266.14"/>
            <line class="cls-1" x1="179.06" y1="263.8" x2="179.06" y2="266.14"/>
            <line class="cls-1" x1="184.85" y1="265.2" x2="184.85" y2="266.14"/>
          </g>
        </g>
        <g>
          <rect class="cls-4" x="8.28" y="266.31" width="173.41" height="3.43"/>
          <g>
            <rect class="cls-1" x="8.28" y="266.31" width="173.41" height="3.43"/>
            <g>
              <path class="cls-8" d="m12.42,268.01c0,.42-.34.75-.75.75s-.75-.34-.75-.75.34-.75.75-.75.75.34.75.75Z"/>
              <path class="cls-8" d="m17.83,268.01c0,.42-.34.75-.75.75s-.75-.34-.75-.75.34-.75.75-.75.75.34.75.75Z"/>
              <path class="cls-8" d="m23.23,268.01c0,.42-.34.75-.75.75s-.75-.34-.75-.75.34-.75.75-.75.75.34.75.75Z"/>
              <circle class="cls-8" cx="27.89" cy="268.01" r=".75"/>
              <path class="cls-8" d="m34.05,268.01c0,.42-.34.75-.75.75s-.75-.34-.75-.75.34-.75.75-.75.75.34.75.75Z"/>
              <path class="cls-8" d="m39.45,268.01c0,.42-.34.75-.75.75s-.75-.34-.75-.75.34-.75.75-.75.75.34.75.75Z"/>
              <path class="cls-8" d="m44.86,268.01c0,.42-.34.75-.75.75s-.75-.34-.75-.75.34-.75.75-.75.75.34.75.75Z"/>
              <path class="cls-8" d="m50.27,268.01c0,.42-.34.75-.75.75s-.75-.34-.75-.75.34-.75.75-.75.75.34.75.75Z"/>
              <circle class="cls-8" cx="54.92" cy="268.01" r=".75"/>
              <path class="cls-8" d="m61.08,268.01c0,.42-.34.75-.75.75s-.75-.34-.75-.75.34-.75.75-.75.75.34.75.75Z"/>
              <circle class="cls-8" cx="65.74" cy="268.01" r=".75"/>
              <path class="cls-8" d="m71.9,268.01c0,.42-.34.75-.75.75s-.75-.34-.75-.75.34-.75.75-.75.75.34.75.75Z"/>
              <path class="cls-8" d="m77.3,268.01c0,.42-.34.75-.75.75s-.75-.34-.75-.75.34-.75.75-.75.75.34.75.75Z"/>
              <path class="cls-8" d="m82.71,268.01c0,.42-.34.75-.75.75s-.75-.34-.75-.75.34-.75.75-.75.75.34.75.75Z"/>
              <path class="cls-8" d="m88.12,268.01c0,.42-.34.75-.75.75s-.75-.34-.75-.75.34-.75.75-.75.75.34.75.75Z"/>
              <circle class="cls-8" cx="92.77" cy="268.01" r=".75"/>
              <path class="cls-8" d="m98.93,268.01c0,.42-.34.75-.75.75s-.75-.34-.75-.75.34-.75.75-.75.75.34.75.75Z"/>
              <path class="cls-8" d="m104.34,268.01c0,.42-.34.75-.75.75s-.75-.34-.75-.75.34-.75.75-.75.75.34.75.75Z"/>
              <path class="cls-8" d="m109.75,268.01c0,.42-.34.75-.75.75s-.75-.34-.75-.75.34-.75.75-.75.75.34.75.75Z"/>
              <path class="cls-8" d="m115.16,268.01c0,.42-.34.75-.75.75s-.75-.34-.75-.75.34-.75.75-.75.75.34.75.75Z"/>
              <path class="cls-8" d="m120.56,268.01c0,.42-.34.75-.75.75s-.75-.34-.75-.75.34-.75.75-.75.75.34.75.75Z"/>
              <path class="cls-8" d="m125.97,268.01c0,.42-.34.75-.75.75s-.75-.34-.75-.75.34-.75.75-.75.75.34.75.75Z"/>
              <circle class="cls-8" cx="130.63" cy="268.01" r=".75"/>
              <path class="cls-8" d="m136.78,268.01c0,.42-.34.75-.75.75s-.75-.34-.75-.75.34-.75.75-.75.75.34.75.75Z"/>
              <circle class="cls-8" cx="141.44" cy="268.01" r=".75"/>
              <path class="cls-8" d="m147.6,268.01c0,.42-.34.75-.75.75s-.75-.34-.75-.75.34-.75.75-.75.75.34.75.75Z"/>
              <path class="cls-8" d="m153.01,268.01c0,.42-.34.75-.75.75s-.75-.34-.75-.75.34-.75.75-.75.75.34.75.75Z"/>
              <path class="cls-8" d="m158.41,268.01c0,.42-.34.75-.75.75s-.75-.34-.75-.75.34-.75.75-.75.75.34.75.75Z"/>
              <path class="cls-8" d="m163.82,268.01c0,.42-.34.75-.75.75s-.75-.34-.75-.75.34-.75.75-.75.75.34.75.75Z"/>
              <path class="cls-8" d="m169.23,268.01c0,.42-.34.75-.75.75s-.75-.34-.75-.75.34-.75.75-.75.75.34.75.75Z"/>
              <path class="cls-8" d="m174.63,268.01c0,.42-.34.75-.75.75s-.75-.34-.75-.75.34-.75.75-.75.75.34.75.75Z"/>
              <path class="cls-8" d="m180.04,268.01c0,.42-.34.75-.75.75s-.75-.34-.75-.75.34-.75.75-.75.75.34.75.75Z"/>
            </g>
          </g>
        </g>
      </g>
      <g>
        <path class="cls-3" d="m144.27,255.25s27.49,4.58,36.06,2.82l-1.51,5.37-34.55-8.19Z"/>
        <path class="cls-1" d="m144.27,255.25s27.49,4.58,36.06,2.82l-1.51,5.37-34.55-8.19Z"/>
        <path class="cls-1" d="m160.09,259c6.49,2.09,13.79,1.73,20.15-.73"/>
      </g>
      <g>
        <path class="cls-3" d="m45.93,255.25s-27.49,4.58-36.06,2.82l1.51,5.37,34.55-8.19Z"/>
        <path class="cls-1" d="m45.93,255.25s-27.49,4.58-36.06,2.82l1.51,5.37,34.55-8.19Z"/>
        <path class="cls-1" d="m30.11,259c-6.49,2.09-13.79,1.73-20.15-.73"/>
      </g>
    </g>
  </g>
  <g>
    <g>
      <rect class="cls-6" x="62.92" y="224.78" width="64.13" height="27.44"/>
      <g>
        <g>
          <rect class="cls-4" x="80.21" y="234.16" width="11.19" height="4.32"/>
          <g>
            <rect class="cls-10" x="82.37" y="233.84" width="2.75" height="2.72"/>
            <rect class="cls-10" x="86.95" y="233.84" width="2.75" height="2.72"/>
          </g>
          <rect class="cls-1" x="80.21" y="234.16" width="11.19" height="4.32"/>
          <g>
            <rect class="cls-1" x="82.37" y="233.84" width="2.75" height="2.72"/>
            <rect class="cls-1" x="86.95" y="233.84" width="2.75" height="2.72"/>
          </g>
        </g>
        <g>
          <rect class="cls-4" x="98.56" y="234.16" width="11.19" height="4.32"/>
          <g>
            <rect class="cls-10" x="100.72" y="233.84" width="2.75" height="2.72"/>
            <rect class="cls-10" x="105.3" y="233.84" width="2.75" height="2.72"/>
          </g>
          <rect class="cls-1" x="98.56" y="234.16" width="11.19" height="4.32"/>
          <g>
            <rect class="cls-1" x="100.72" y="233.84" width="2.75" height="2.72"/>
            <rect class="cls-1" x="105.3" y="233.84" width="2.75" height="2.72"/>
          </g>
        </g>
      </g>
      <rect class="cls-4" x="63.03" y="229.11" width="64.25" height="1.62"/>
      <rect class="cls-4" x="63.03" y="226.68" width="64.25" height="1.62"/>
      <g>
        <g>
          <rect class="cls-8" x="83.2" y="226.19" width="4.11" height="4.98"/>
          <rect class="cls-1" x="83.2" y="226.19" width="4.11" height="4.98"/>
        </g>
        <g>
          <rect class="cls-8" x="102.65" y="226.19" width="4.11" height="4.98"/>
          <rect class="cls-1" x="102.65" y="226.19" width="4.11" height="4.98"/>
        </g>
      </g>
      <rect class="cls-1" x="62.92" y="224.78" width="64.13" height="27.44"/>
      <line class="cls-1" x1="60.81" y1="243.48" x2="129.16" y2="243.48"/>
      <line class="cls-1" x1="60.81" y1="240.7" x2="129.16" y2="240.7"/>
      <line class="cls-1" x1="60.81" y1="247.19" x2="129.16" y2="247.19"/>
      <rect class="cls-4" x="62.92" y="250.08" width="64.19" height="1.85"/>
      <polygon class="cls-4" points="73.51 251.69 71.18 250.14 73.51 247.02 75.84 250.11 73.51 251.69"/>
      <polygon class="cls-4" points="93.65 251.69 91.32 250.14 93.65 247.02 95.98 250.11 93.65 251.69"/>
      <polygon class="cls-4" points="113.79 251.69 111.46 250.14 113.79 247.02 116.13 250.11 113.79 251.69"/>
      <line class="cls-1" x1="85.84" y1="240.76" x2="85.84" y2="250.83"/>
      <line class="cls-1" x1="104.24" y1="240.82" x2="104.24" y2="250.96"/>
      <rect class="cls-4" x="62.92" y="232.71" width="64.19" height="2.66"/>
    </g>
    <g>
      <g>
        <g>
          <rect class="cls-4" x="127.13" y="226.1" width="28.68" height="2.6"/>
          <rect class="cls-1" x="127.13" y="226.1" width="28.68" height="2.6"/>
        </g>
        <polyline class="cls-9" points="126.99 233.11 127.05 236.99 153.62 224.83"/>
        <polygon class="cls-4" points="127.05 236.99 153.62 224.83 146.84 224.83 126.99 233.11 127.05 236.99"/>
        <polyline class="cls-1" points="126.99 233.11 127.05 236.99 153.62 224.83"/>
        <polygon class="cls-1" points="127.05 236.99 153.62 224.83 146.84 224.83 126.99 233.11 127.05 236.99"/>
      </g>
      <g>
        <g>
          <rect class="cls-4" x="34.21" y="226.1" width="28.68" height="2.6" transform="translate(97.09 454.81) rotate(180)"/>
          <rect class="cls-1" x="34.21" y="226.1" width="28.68" height="2.6" transform="translate(97.09 454.81) rotate(180)"/>
        </g>
        <polyline class="cls-9" points="63.03 233.11 62.97 236.99 36.4 224.83"/>
        <polygon class="cls-4" points="62.97 236.99 36.4 224.83 43.18 224.83 63.03 233.11 62.97 236.99"/>
        <polyline class="cls-1" points="63.03 233.11 62.97 236.99 36.4 224.83"/>
        <polygon class="cls-1" points="62.97 236.99 36.4 224.83 43.18 224.83 63.03 233.11 62.97 236.99"/>
      </g>
      <g>
        <g>
          <g>
            <polygon class="cls-3" points="131.13 207.16 58.12 207.47 .35 221.24 93.88 221.24 96.08 221.24 189.62 221.24 131.13 207.16"/>
            <polygon class="cls-1" points="131.13 207.16 58.12 207.47 .35 221.24 93.88 221.24 96.08 221.24 189.62 221.24 131.13 207.16"/>
            <g>
              <line class="cls-1" x1="5.19" y1="220.11" x2="5.19" y2="221.07"/>
              <line class="cls-1" x1="10.99" y1="218.76" x2="10.99" y2="221.07"/>
              <line class="cls-1" x1="16.78" y1="217.54" x2="16.78" y2="221.07"/>
              <line class="cls-1" x1="22.58" y1="216.38" x2="22.58" y2="221.07"/>
              <line class="cls-1" x1="28.37" y1="214.65" x2="28.37" y2="221.07"/>
              <line class="cls-1" x1="34.17" y1="213.37" x2="34.17" y2="221.07"/>
              <line class="cls-1" x1="39.96" y1="211.87" x2="39.96" y2="221.07"/>
              <line class="cls-1" x1="45.76" y1="210.54" x2="45.76" y2="221.07"/>
              <line class="cls-1" x1="51.55" y1="209.17" x2="51.55" y2="221.07"/>
              <line class="cls-1" x1="57.35" y1="207.62" x2="57.35" y2="221.07"/>
              <line class="cls-1" x1="63.15" y1="207.47" x2="63.15" y2="221.07"/>
              <line class="cls-1" x1="68.94" y1="207.47" x2="68.94" y2="221.07"/>
              <line class="cls-1" x1="74.74" y1="207.46" x2="74.74" y2="221.07"/>
              <line class="cls-1" x1="80.53" y1="207.46" x2="80.53" y2="221.07"/>
              <line class="cls-1" x1="86.33" y1="207.46" x2="86.33" y2="221.07"/>
              <line class="cls-1" x1="92.12" y1="207.46" x2="92.12" y2="221.07"/>
              <line class="cls-1" x1="97.92" y1="207.46" x2="97.92" y2="221.07"/>
              <line class="cls-1" x1="103.72" y1="207.46" x2="103.72" y2="221.07"/>
              <line class="cls-1" x1="109.51" y1="207.45" x2="109.51" y2="221.07"/>
              <line class="cls-1" x1="115.31" y1="207.45" x2="115.31" y2="221.07"/>
              <line class="cls-1" x1="121.1" y1="207.45" x2="121.1" y2="221.07"/>
              <line class="cls-1" x1="126.9" y1="207.32" x2="126.9" y2="221.07"/>
              <line class="cls-1" x1="132.69" y1="207.65" x2="132.69" y2="221.07"/>
              <line class="cls-1" x1="138.49" y1="208.99" x2="138.49" y2="221.07"/>
              <line class="cls-1" x1="144.28" y1="210.42" x2="144.28" y2="221.07"/>
              <line class="cls-1" x1="150.08" y1="211.79" x2="150.08" y2="221.07"/>
              <line class="cls-1" x1="155.88" y1="213.16" x2="155.88" y2="221.07"/>
              <line class="cls-1" x1="161.67" y1="214.56" x2="161.67" y2="221.07"/>
              <line class="cls-1" x1="167.47" y1="216.33" x2="167.47" y2="221.07"/>
              <line class="cls-1" x1="173.26" y1="217.39" x2="173.26" y2="221.07"/>
              <line class="cls-1" x1="179.06" y1="218.73" x2="179.06" y2="221.07"/>
              <line class="cls-1" x1="184.85" y1="220.13" x2="184.85" y2="221.07"/>
            </g>
          </g>
          <g>
            <rect class="cls-4" x="8.28" y="221.24" width="173.41" height="3.43"/>
            <g>
              <rect class="cls-1" x="8.28" y="221.24" width="173.41" height="3.43"/>
              <g>
                <path class="cls-8" d="m12.42,222.94c0,.42-.34.75-.75.75s-.75-.34-.75-.75.34-.75.75-.75.75.34.75.75Z"/>
                <path class="cls-8" d="m17.83,222.94c0,.42-.34.75-.75.75s-.75-.34-.75-.75.34-.75.75-.75.75.34.75.75Z"/>
                <path class="cls-8" d="m23.23,222.94c0,.42-.34.75-.75.75s-.75-.34-.75-.75.34-.75.75-.75.75.34.75.75Z"/>
                <circle class="cls-8" cx="27.89" cy="222.94" r=".75"/>
                <path class="cls-8" d="m34.05,222.94c0,.42-.34.75-.75.75s-.75-.34-.75-.75.34-.75.75-.75.75.34.75.75Z"/>
                <path class="cls-8" d="m39.45,222.94c0,.42-.34.75-.75.75s-.75-.34-.75-.75.34-.75.75-.75.75.34.75.75Z"/>
                <path class="cls-8" d="m44.86,222.94c0,.42-.34.75-.75.75s-.75-.34-.75-.75.34-.75.75-.75.75.34.75.75Z"/>
                <path class="cls-8" d="m50.27,222.94c0,.42-.34.75-.75.75s-.75-.34-.75-.75.34-.75.75-.75.75.34.75.75Z"/>
                <circle class="cls-8" cx="54.92" cy="222.94" r=".75"/>
                <path class="cls-8" d="m61.08,222.94c0,.42-.34.75-.75.75s-.75-.34-.75-.75.34-.75.75-.75.75.34.75.75Z"/>
                <circle class="cls-8" cx="65.74" cy="222.94" r=".75"/>
                <path class="cls-8" d="m71.9,222.94c0,.42-.34.75-.75.75s-.75-.34-.75-.75.34-.75.75-.75.75.34.75.75Z"/>
                <path class="cls-8" d="m77.3,222.94c0,.42-.34.75-.75.75s-.75-.34-.75-.75.34-.75.75-.75.75.34.75.75Z"/>
                <path class="cls-8" d="m82.71,222.94c0,.42-.34.75-.75.75s-.75-.34-.75-.75.34-.75.75-.75.75.34.75.75Z"/>
                <path class="cls-8" d="m88.12,222.94c0,.42-.34.75-.75.75s-.75-.34-.75-.75.34-.75.75-.75.75.34.75.75Z"/>
                <circle class="cls-8" cx="92.77" cy="222.94" r=".75"/>
                <path class="cls-8" d="m98.93,222.94c0,.42-.34.75-.75.75s-.75-.34-.75-.75.34-.75.75-.75.75.34.75.75Z"/>
                <path class="cls-8" d="m104.34,222.94c0,.42-.34.75-.75.75s-.75-.34-.75-.75.34-.75.75-.75.75.34.75.75Z"/>
                <path class="cls-8" d="m109.75,222.94c0,.42-.34.75-.75.75s-.75-.34-.75-.75.34-.75.75-.75.75.34.75.75Z"/>
                <path class="cls-8" d="m115.16,222.94c0,.42-.34.75-.75.75s-.75-.34-.75-.75.34-.75.75-.75.75.34.75.75Z"/>
                <path class="cls-8" d="m120.56,222.94c0,.42-.34.75-.75.75s-.75-.34-.75-.75.34-.75.75-.75.75.34.75.75Z"/>
                <path class="cls-8" d="m125.97,222.94c0,.42-.34.75-.75.75s-.75-.34-.75-.75.34-.75.75-.75.75.34.75.75Z"/>
                <circle class="cls-8" cx="130.63" cy="222.94" r=".75"/>
                <path class="cls-8" d="m136.78,222.94c0,.42-.34.75-.75.75s-.75-.34-.75-.75.34-.75.75-.75.75.34.75.75Z"/>
                <circle class="cls-8" cx="141.44" cy="222.94" r=".75"/>
                <path class="cls-8" d="m147.6,222.94c0,.42-.34.75-.75.75s-.75-.34-.75-.75.34-.75.75-.75.75.34.75.75Z"/>
                <path class="cls-8" d="m153.01,222.94c0,.42-.34.75-.75.75s-.75-.34-.75-.75.34-.75.75-.75.75.34.75.75Z"/>
                <path class="cls-8" d="m158.41,222.94c0,.42-.34.75-.75.75s-.75-.34-.75-.75.34-.75.75-.75.75.34.75.75Z"/>
                <path class="cls-8" d="m163.82,222.94c0,.42-.34.75-.75.75s-.75-.34-.75-.75.34-.75.75-.75.75.34.75.75Z"/>
                <path class="cls-8" d="m169.23,222.94c0,.42-.34.75-.75.75s-.75-.34-.75-.75.34-.75.75-.75.75.34.75.75Z"/>
                <path class="cls-8" d="m174.63,222.94c0,.42-.34.75-.75.75s-.75-.34-.75-.75.34-.75.75-.75.75.34.75.75Z"/>
                <path class="cls-8" d="m180.04,222.94c0,.42-.34.75-.75.75s-.75-.34-.75-.75.34-.75.75-.75.75.34.75.75Z"/>
              </g>
            </g>
          </g>
        </g>
        <g>
          <path class="cls-3" d="m144.27,210.18s27.49,4.58,36.06,2.82l-1.51,5.37-34.55-8.19Z"/>
          <path class="cls-1" d="m144.27,210.18s27.49,4.58,36.06,2.82l-1.51,5.37-34.55-8.19Z"/>
          <path class="cls-1" d="m160.09,213.93c6.49,2.09,13.79,1.73,20.15-.73"/>
        </g>
        <g>
          <path class="cls-3" d="m45.93,210.18s-27.49,4.58-36.06,2.82l1.51,5.37,34.55-8.19Z"/>
          <path class="cls-1" d="m45.93,210.18s-27.49,4.58-36.06,2.82l1.51,5.37,34.55-8.19Z"/>
          <path class="cls-1" d="m30.11,213.93c-6.49,2.09-13.79,1.73-20.15-.73"/>
        </g>
      </g>
    </g>
  </g>
  <g>
    <g>
      <rect class="cls-6" x="62.92" y="179.64" width="64.13" height="27.44"/>
      <g>
        <g>
          <rect class="cls-4" x="80.21" y="189.01" width="11.19" height="4.32"/>
          <g>
            <rect class="cls-10" x="82.37" y="188.7" width="2.75" height="2.72"/>
            <rect class="cls-10" x="86.95" y="188.7" width="2.75" height="2.72"/>
          </g>
          <rect class="cls-1" x="80.21" y="189.01" width="11.19" height="4.32"/>
          <g>
            <rect class="cls-1" x="82.37" y="188.7" width="2.75" height="2.72"/>
            <rect class="cls-1" x="86.95" y="188.7" width="2.75" height="2.72"/>
          </g>
        </g>
        <g>
          <rect class="cls-4" x="98.56" y="189.01" width="11.19" height="4.32"/>
          <g>
            <rect class="cls-10" x="100.72" y="188.7" width="2.75" height="2.72"/>
            <rect class="cls-10" x="105.3" y="188.7" width="2.75" height="2.72"/>
          </g>
          <rect class="cls-1" x="98.56" y="189.01" width="11.19" height="4.32"/>
          <g>
            <rect class="cls-1" x="100.72" y="188.7" width="2.75" height="2.72"/>
            <rect class="cls-1" x="105.3" y="188.7" width="2.75" height="2.72"/>
          </g>
        </g>
      </g>
      <rect class="cls-4" x="63.03" y="183.96" width="64.25" height="1.62"/>
      <rect class="cls-4" x="63.03" y="181.53" width="64.25" height="1.62"/>
      <g>
        <g>
          <rect class="cls-8" x="83.2" y="181.05" width="4.11" height="4.98"/>
          <rect class="cls-1" x="83.2" y="181.05" width="4.11" height="4.98"/>
        </g>
        <g>
          <rect class="cls-8" x="102.65" y="181.05" width="4.11" height="4.98"/>
          <rect class="cls-1" x="102.65" y="181.05" width="4.11" height="4.98"/>
        </g>
      </g>
      <rect class="cls-1" x="62.92" y="179.64" width="64.13" height="27.44"/>
      <line class="cls-1" x1="60.81" y1="198.33" x2="129.16" y2="198.33"/>
      <line class="cls-1" x1="60.81" y1="195.55" x2="129.16" y2="195.55"/>
      <line class="cls-1" x1="60.81" y1="202.04" x2="129.16" y2="202.04"/>
      <rect class="cls-4" x="62.92" y="204.93" width="64.19" height="1.85"/>
      <polygon class="cls-4" points="73.51 206.54 71.18 204.99 73.51 201.88 75.84 204.96 73.51 206.54"/>
      <polygon class="cls-4" points="93.65 206.54 91.32 204.99 93.65 201.88 95.98 204.96 93.65 206.54"/>
      <polygon class="cls-4" points="113.79 206.54 111.46 204.99 113.79 201.88 116.13 204.96 113.79 206.54"/>
      <line class="cls-1" x1="85.84" y1="195.61" x2="85.84" y2="205.69"/>
      <line class="cls-1" x1="104.24" y1="195.67" x2="104.24" y2="205.81"/>
      <rect class="cls-4" x="62.92" y="187.57" width="64.19" height="2.66"/>
    </g>
    <g>
      <g>
        <g>
          <rect class="cls-4" x="127.13" y="180.96" width="28.68" height="2.6"/>
          <rect class="cls-1" x="127.13" y="180.96" width="28.68" height="2.6"/>
        </g>
        <polyline class="cls-9" points="126.99 187.96 127.05 191.84 153.62 179.69"/>
        <polygon class="cls-4" points="127.05 191.84 153.62 179.69 146.84 179.69 126.99 187.96 127.05 191.84"/>
        <polyline class="cls-1" points="126.99 187.96 127.05 191.84 153.62 179.69"/>
        <polygon class="cls-1" points="127.05 191.84 153.62 179.69 146.84 179.69 126.99 187.96 127.05 191.84"/>
      </g>
      <g>
        <g>
          <rect class="cls-4" x="34.21" y="180.96" width="28.68" height="2.6" transform="translate(97.09 364.51) rotate(180)"/>
          <rect class="cls-1" x="34.21" y="180.96" width="28.68" height="2.6" transform="translate(97.09 364.51) rotate(180)"/>
        </g>
        <polyline class="cls-9" points="63.03 187.96 62.97 191.84 36.4 179.69"/>
        <polygon class="cls-4" points="62.97 191.84 36.4 179.69 43.18 179.69 63.03 187.96 62.97 191.84"/>
        <polyline class="cls-1" points="63.03 187.96 62.97 191.84 36.4 179.69"/>
        <polygon class="cls-1" points="62.97 191.84 36.4 179.69 43.18 179.69 63.03 187.96 62.97 191.84"/>
      </g>
      <g>
        <g>
          <g>
            <polygon class="cls-3" points="131.13 162.01 58.12 162.32 .35 176.1 93.88 176.1 96.08 176.1 189.62 176.1 131.13 162.01"/>
            <polygon class="cls-1" points="131.13 162.01 58.12 162.32 .35 176.1 93.88 176.1 96.08 176.1 189.62 176.1 131.13 162.01"/>
            <g>
              <line class="cls-1" x1="5.19" y1="174.96" x2="5.19" y2="175.93"/>
              <line class="cls-1" x1="10.99" y1="173.61" x2="10.99" y2="175.93"/>
              <line class="cls-1" x1="16.78" y1="172.39" x2="16.78" y2="175.93"/>
              <line class="cls-1" x1="22.58" y1="171.23" x2="22.58" y2="175.93"/>
              <line class="cls-1" x1="28.37" y1="169.5" x2="28.37" y2="175.93"/>
              <line class="cls-1" x1="34.17" y1="168.23" x2="34.17" y2="175.93"/>
              <line class="cls-1" x1="39.96" y1="166.72" x2="39.96" y2="175.93"/>
              <line class="cls-1" x1="45.76" y1="165.39" x2="45.76" y2="175.93"/>
              <line class="cls-1" x1="51.55" y1="164.02" x2="51.55" y2="175.93"/>
              <line class="cls-1" x1="57.35" y1="162.48" x2="57.35" y2="175.93"/>
              <line class="cls-1" x1="63.15" y1="162.32" x2="63.15" y2="175.93"/>
              <line class="cls-1" x1="68.94" y1="162.32" x2="68.94" y2="175.93"/>
              <line class="cls-1" x1="74.74" y1="162.32" x2="74.74" y2="175.93"/>
              <line class="cls-1" x1="80.53" y1="162.32" x2="80.53" y2="175.93"/>
              <line class="cls-1" x1="86.33" y1="162.31" x2="86.33" y2="175.93"/>
              <line class="cls-1" x1="92.12" y1="162.31" x2="92.12" y2="175.93"/>
              <line class="cls-1" x1="97.92" y1="162.31" x2="97.92" y2="175.93"/>
              <line class="cls-1" x1="103.72" y1="162.31" x2="103.72" y2="175.93"/>
              <line class="cls-1" x1="109.51" y1="162.31" x2="109.51" y2="175.93"/>
              <line class="cls-1" x1="115.31" y1="162.3" x2="115.31" y2="175.93"/>
              <line class="cls-1" x1="121.1" y1="162.3" x2="121.1" y2="175.93"/>
              <line class="cls-1" x1="126.9" y1="162.18" x2="126.9" y2="175.93"/>
              <line class="cls-1" x1="132.69" y1="162.5" x2="132.69" y2="175.93"/>
              <line class="cls-1" x1="138.49" y1="163.84" x2="138.49" y2="175.93"/>
              <line class="cls-1" x1="144.28" y1="165.27" x2="144.28" y2="175.93"/>
              <line class="cls-1" x1="150.08" y1="166.64" x2="150.08" y2="175.93"/>
              <line class="cls-1" x1="155.88" y1="168.01" x2="155.88" y2="175.93"/>
              <line class="cls-1" x1="161.67" y1="169.41" x2="161.67" y2="175.93"/>
              <line class="cls-1" x1="167.47" y1="171.18" x2="167.47" y2="175.93"/>
              <line class="cls-1" x1="173.26" y1="172.24" x2="173.26" y2="175.93"/>
              <line class="cls-1" x1="179.06" y1="173.58" x2="179.06" y2="175.93"/>
              <line class="cls-1" x1="184.85" y1="174.98" x2="184.85" y2="175.93"/>
            </g>
          </g>
          <g>
            <rect class="cls-4" x="8.28" y="176.1" width="173.41" height="3.43"/>
            <g>
              <rect class="cls-1" x="8.28" y="176.1" width="173.41" height="3.43"/>
              <g>
                <path class="cls-8" d="m12.42,177.79c0,.42-.34.75-.75.75s-.75-.34-.75-.75.34-.75.75-.75.75.34.75.75Z"/>
                <path class="cls-8" d="m17.83,177.79c0,.42-.34.75-.75.75s-.75-.34-.75-.75.34-.75.75-.75.75.34.75.75Z"/>
                <path class="cls-8" d="m23.23,177.79c0,.42-.34.75-.75.75s-.75-.34-.75-.75.34-.75.75-.75.75.34.75.75Z"/>
                <circle class="cls-8" cx="27.89" cy="177.79" r=".75"/>
                <path class="cls-8" d="m34.05,177.79c0,.42-.34.75-.75.75s-.75-.34-.75-.75.34-.75.75-.75.75.34.75.75Z"/>
                <path class="cls-8" d="m39.45,177.79c0,.42-.34.75-.75.75s-.75-.34-.75-.75.34-.75.75-.75.75.34.75.75Z"/>
                <path class="cls-8" d="m44.86,177.79c0,.42-.34.75-.75.75s-.75-.34-.75-.75.34-.75.75-.75.75.34.75.75Z"/>
                <path class="cls-8" d="m50.27,177.79c0,.42-.34.75-.75.75s-.75-.34-.75-.75.34-.75.75-.75.75.34.75.75Z"/>
                <circle class="cls-8" cx="54.92" cy="177.79" r=".75"/>
                <path class="cls-8" d="m61.08,177.79c0,.42-.34.75-.75.75s-.75-.34-.75-.75.34-.75.75-.75.75.34.75.75Z"/>
                <circle class="cls-8" cx="65.74" cy="177.79" r=".75"/>
                <path class="cls-8" d="m71.9,177.79c0,.42-.34.75-.75.75s-.75-.34-.75-.75.34-.75.75-.75.75.34.75.75Z"/>
                <path class="cls-8" d="m77.3,177.79c0,.42-.34.75-.75.75s-.75-.34-.75-.75.34-.75.75-.75.75.34.75.75Z"/>
                <path class="cls-8" d="m82.71,177.79c0,.42-.34.75-.75.75s-.75-.34-.75-.75.34-.75.75-.75.75.34.75.75Z"/>
                <path class="cls-8" d="m88.12,177.79c0,.42-.34.75-.75.75s-.75-.34-.75-.75.34-.75.75-.75.75.34.75.75Z"/>
                <circle class="cls-8" cx="92.77" cy="177.79" r=".75"/>
                <path class="cls-8" d="m98.93,177.79c0,.42-.34.75-.75.75s-.75-.34-.75-.75.34-.75.75-.75.75.34.75.75Z"/>
                <path class="cls-8" d="m104.34,177.79c0,.42-.34.75-.75.75s-.75-.34-.75-.75.34-.75.75-.75.75.34.75.75Z"/>
                <path class="cls-8" d="m109.75,177.79c0,.42-.34.75-.75.75s-.75-.34-.75-.75.34-.75.75-.75.75.34.75.75Z"/>
                <path class="cls-8" d="m115.16,177.79c0,.42-.34.75-.75.75s-.75-.34-.75-.75.34-.75.75-.75.75.34.75.75Z"/>
                <path class="cls-8" d="m120.56,177.79c0,.42-.34.75-.75.75s-.75-.34-.75-.75.34-.75.75-.75.75.34.75.75Z"/>
                <path class="cls-8" d="m125.97,177.79c0,.42-.34.75-.75.75s-.75-.34-.75-.75.34-.75.75-.75.75.34.75.75Z"/>
                <circle class="cls-8" cx="130.63" cy="177.79" r=".75"/>
                <path class="cls-8" d="m136.78,177.79c0,.42-.34.75-.75.75s-.75-.34-.75-.75.34-.75.75-.75.75.34.75.75Z"/>
                <circle class="cls-8" cx="141.44" cy="177.79" r=".75"/>
                <path class="cls-8" d="m147.6,177.79c0,.42-.34.75-.75.75s-.75-.34-.75-.75.34-.75.75-.75.75.34.75.75Z"/>
                <path class="cls-8" d="m153.01,177.79c0,.42-.34.75-.75.75s-.75-.34-.75-.75.34-.75.75-.75.75.34.75.75Z"/>
                <path class="cls-8" d="m158.41,177.79c0,.42-.34.75-.75.75s-.75-.34-.75-.75.34-.75.75-.75.75.34.75.75Z"/>
                <path class="cls-8" d="m163.82,177.79c0,.42-.34.75-.75.75s-.75-.34-.75-.75.34-.75.75-.75.75.34.75.75Z"/>
                <path class="cls-8" d="m169.23,177.79c0,.42-.34.75-.75.75s-.75-.34-.75-.75.34-.75.75-.75.75.34.75.75Z"/>
                <path class="cls-8" d="m174.63,177.79c0,.42-.34.75-.75.75s-.75-.34-.75-.75.34-.75.75-.75.75.34.75.75Z"/>
                <path class="cls-8" d="m180.04,177.79c0,.42-.34.75-.75.75s-.75-.34-.75-.75.34-.75.75-.75.75.34.75.75Z"/>
              </g>
            </g>
          </g>
        </g>
        <g>
          <path class="cls-3" d="m144.27,165.03s27.49,4.58,36.06,2.82l-1.51,5.37-34.55-8.19Z"/>
          <path class="cls-1" d="m144.27,165.03s27.49,4.58,36.06,2.82l-1.51,5.37-34.55-8.19Z"/>
          <path class="cls-1" d="m160.09,168.78c6.49,2.09,13.79,1.73,20.15-.73"/>
        </g>
        <g>
          <path class="cls-3" d="m45.93,165.03s-27.49,4.58-36.06,2.82l1.51,5.37,34.55-8.19Z"/>
          <path class="cls-1" d="m45.93,165.03s-27.49,4.58-36.06,2.82l1.51,5.37,34.55-8.19Z"/>
          <path class="cls-1" d="m30.11,168.78c-6.49,2.09-13.79,1.73-20.15-.73"/>
        </g>
      </g>
    </g>
  </g>
  <g>
    <g>
      <rect class="cls-6" x="62.92" y="134.49" width="64.13" height="27.44"/>
      <g>
        <g>
          <rect class="cls-4" x="80.21" y="143.87" width="11.19" height="4.32"/>
          <g>
            <rect class="cls-10" x="82.37" y="143.55" width="2.75" height="2.72"/>
            <rect class="cls-10" x="86.95" y="143.55" width="2.75" height="2.72"/>
          </g>
          <rect class="cls-1" x="80.21" y="143.87" width="11.19" height="4.32"/>
          <g>
            <rect class="cls-1" x="82.37" y="143.55" width="2.75" height="2.72"/>
            <rect class="cls-1" x="86.95" y="143.55" width="2.75" height="2.72"/>
          </g>
        </g>
        <g>
          <rect class="cls-4" x="98.56" y="143.87" width="11.19" height="4.32"/>
          <g>
            <rect class="cls-10" x="100.72" y="143.55" width="2.75" height="2.72"/>
            <rect class="cls-10" x="105.3" y="143.55" width="2.75" height="2.72"/>
          </g>
          <rect class="cls-1" x="98.56" y="143.87" width="11.19" height="4.32"/>
          <g>
            <rect class="cls-1" x="100.72" y="143.55" width="2.75" height="2.72"/>
            <rect class="cls-1" x="105.3" y="143.55" width="2.75" height="2.72"/>
          </g>
        </g>
      </g>
      <rect class="cls-4" x="63.03" y="138.81" width="64.25" height="1.62"/>
      <rect class="cls-4" x="63.03" y="136.38" width="64.25" height="1.62"/>
      <g>
        <g>
          <rect class="cls-8" x="83.2" y="135.9" width="4.11" height="4.98"/>
          <rect class="cls-1" x="83.2" y="135.9" width="4.11" height="4.98"/>
        </g>
        <g>
          <rect class="cls-8" x="102.65" y="135.9" width="4.11" height="4.98"/>
          <rect class="cls-1" x="102.65" y="135.9" width="4.11" height="4.98"/>
        </g>
      </g>
      <rect class="cls-1" x="62.92" y="134.49" width="64.13" height="27.44"/>
      <line class="cls-1" x1="60.81" y1="153.19" x2="129.16" y2="153.19"/>
      <line class="cls-1" x1="60.81" y1="150.41" x2="129.16" y2="150.41"/>
      <line class="cls-1" x1="60.81" y1="156.89" x2="129.16" y2="156.89"/>
      <rect class="cls-4" x="62.92" y="159.78" width="64.19" height="1.85"/>
      <polygon class="cls-4" points="73.51 161.39 71.18 159.84 73.51 156.73 75.84 159.81 73.51 161.39"/>
      <polygon class="cls-4" points="93.65 161.39 91.32 159.84 93.65 156.73 95.98 159.81 93.65 161.39"/>
      <polygon class="cls-4" points="113.79 161.39 111.46 159.84 113.79 156.73 116.13 159.81 113.79 161.39"/>
      <line class="cls-1" x1="85.84" y1="150.47" x2="85.84" y2="160.54"/>
      <line class="cls-1" x1="104.24" y1="150.52" x2="104.24" y2="160.66"/>
      <rect class="cls-4" x="62.92" y="142.42" width="64.19" height="2.66"/>
    </g>
    <g>
      <g>
        <g>
          <rect class="cls-4" x="127.13" y="135.81" width="28.68" height="2.6"/>
          <rect class="cls-1" x="127.13" y="135.81" width="28.68" height="2.6"/>
        </g>
        <polyline class="cls-9" points="126.99 142.82 127.05 146.69 153.62 134.54"/>
        <polygon class="cls-4" points="127.05 146.69 153.62 134.54 146.84 134.54 126.99 142.82 127.05 146.69"/>
        <polyline class="cls-1" points="126.99 142.82 127.05 146.69 153.62 134.54"/>
        <polygon class="cls-1" points="127.05 146.69 153.62 134.54 146.84 134.54 126.99 142.82 127.05 146.69"/>
      </g>
      <g>
        <g>
          <rect class="cls-4" x="34.21" y="135.81" width="28.68" height="2.6" transform="translate(97.09 274.22) rotate(180)"/>
          <rect class="cls-1" x="34.21" y="135.81" width="28.68" height="2.6" transform="translate(97.09 274.22) rotate(180)"/>
        </g>
        <polyline class="cls-9" points="63.03 142.82 62.97 146.69 36.4 134.54"/>
        <polygon class="cls-4" points="62.97 146.69 36.4 134.54 43.18 134.54 63.03 142.82 62.97 146.69"/>
        <polyline class="cls-1" points="63.03 142.82 62.97 146.69 36.4 134.54"/>
        <polygon class="cls-1" points="62.97 146.69 36.4 134.54 43.18 134.54 63.03 142.82 62.97 146.69"/>
      </g>
      <g>
        <g>
          <g>
            <polygon class="cls-3" points="131.13 116.87 58.12 117.17 .35 130.95 93.88 130.95 96.08 130.95 189.62 130.95 131.13 116.87"/>
            <polygon class="cls-1" points="131.13 116.87 58.12 117.17 .35 130.95 93.88 130.95 96.08 130.95 189.62 130.95 131.13 116.87"/>
            <g>
              <line class="cls-1" x1="5.19" y1="129.82" x2="5.19" y2="130.78"/>
              <line class="cls-1" x1="10.99" y1="128.46" x2="10.99" y2="130.78"/>
              <line class="cls-1" x1="16.78" y1="127.25" x2="16.78" y2="130.78"/>
              <line class="cls-1" x1="22.58" y1="126.08" x2="22.58" y2="130.78"/>
              <line class="cls-1" x1="28.37" y1="124.35" x2="28.37" y2="130.78"/>
              <line class="cls-1" x1="34.17" y1="123.08" x2="34.17" y2="130.78"/>
              <line class="cls-1" x1="39.96" y1="121.57" x2="39.96" y2="130.78"/>
              <line class="cls-1" x1="45.76" y1="120.24" x2="45.76" y2="130.78"/>
              <line class="cls-1" x1="51.55" y1="118.87" x2="51.55" y2="130.78"/>
              <line class="cls-1" x1="57.35" y1="117.33" x2="57.35" y2="130.78"/>
              <line class="cls-1" x1="63.15" y1="117.17" x2="63.15" y2="130.78"/>
              <line class="cls-1" x1="68.94" y1="117.17" x2="68.94" y2="130.78"/>
              <line class="cls-1" x1="74.74" y1="117.17" x2="74.74" y2="130.78"/>
              <line class="cls-1" x1="80.53" y1="117.17" x2="80.53" y2="130.78"/>
              <line class="cls-1" x1="86.33" y1="117.17" x2="86.33" y2="130.78"/>
              <line class="cls-1" x1="92.12" y1="117.16" x2="92.12" y2="130.78"/>
              <line class="cls-1" x1="97.92" y1="117.16" x2="97.92" y2="130.78"/>
              <line class="cls-1" x1="103.72" y1="117.16" x2="103.72" y2="130.78"/>
              <line class="cls-1" x1="109.51" y1="117.16" x2="109.51" y2="130.78"/>
              <line class="cls-1" x1="115.31" y1="117.16" x2="115.31" y2="130.78"/>
              <line class="cls-1" x1="121.1" y1="117.15" x2="121.1" y2="130.78"/>
              <line class="cls-1" x1="126.9" y1="117.03" x2="126.9" y2="130.78"/>
              <line class="cls-1" x1="132.69" y1="117.35" x2="132.69" y2="130.78"/>
              <line class="cls-1" x1="138.49" y1="118.69" x2="138.49" y2="130.78"/>
              <line class="cls-1" x1="144.28" y1="120.12" x2="144.28" y2="130.78"/>
              <line class="cls-1" x1="150.08" y1="121.49" x2="150.08" y2="130.78"/>
              <line class="cls-1" x1="155.88" y1="122.86" x2="155.88" y2="130.78"/>
              <line class="cls-1" x1="161.67" y1="124.27" x2="161.67" y2="130.78"/>
              <line class="cls-1" x1="167.47" y1="126.03" x2="167.47" y2="130.78"/>
              <line class="cls-1" x1="173.26" y1="127.1" x2="173.26" y2="130.78"/>
              <line class="cls-1" x1="179.06" y1="128.44" x2="179.06" y2="130.78"/>
              <line class="cls-1" x1="184.85" y1="129.84" x2="184.85" y2="130.78"/>
            </g>
          </g>
          <g>
            <rect class="cls-4" x="8.28" y="130.95" width="173.41" height="3.43"/>
            <g>
              <rect class="cls-1" x="8.28" y="130.95" width="173.41" height="3.43"/>
              <g>
                <path class="cls-8" d="m12.42,132.65c0,.42-.34.75-.75.75s-.75-.34-.75-.75.34-.75.75-.75.75.34.75.75Z"/>
                <path class="cls-8" d="m17.83,132.65c0,.42-.34.75-.75.75s-.75-.34-.75-.75.34-.75.75-.75.75.34.75.75Z"/>
                <path class="cls-8" d="m23.23,132.65c0,.42-.34.75-.75.75s-.75-.34-.75-.75.34-.75.75-.75.75.34.75.75Z"/>
                <circle class="cls-8" cx="27.89" cy="132.65" r=".75"/>
                <path class="cls-8" d="m34.05,132.65c0,.42-.34.75-.75.75s-.75-.34-.75-.75.34-.75.75-.75.75.34.75.75Z"/>
                <path class="cls-8" d="m39.45,132.65c0,.42-.34.75-.75.75s-.75-.34-.75-.75.34-.75.75-.75.75.34.75.75Z"/>
                <path class="cls-8" d="m44.86,132.65c0,.42-.34.75-.75.75s-.75-.34-.75-.75.34-.75.75-.75.75.34.75.75Z"/>
                <path class="cls-8" d="m50.27,132.65c0,.42-.34.75-.75.75s-.75-.34-.75-.75.34-.75.75-.75.75.34.75.75Z"/>
                <circle class="cls-8" cx="54.92" cy="132.65" r=".75"/>
                <path class="cls-8" d="m61.08,132.65c0,.42-.34.75-.75.75s-.75-.34-.75-.75.34-.75.75-.75.75.34.75.75Z"/>
                <circle class="cls-8" cx="65.74" cy="132.65" r=".75"/>
                <path class="cls-8" d="m71.9,132.65c0,.42-.34.75-.75.75s-.75-.34-.75-.75.34-.75.75-.75.75.34.75.75Z"/>
                <path class="cls-8" d="m77.3,132.65c0,.42-.34.75-.75.75s-.75-.34-.75-.75.34-.75.75-.75.75.34.75.75Z"/>
                <path class="cls-8" d="m82.71,132.65c0,.42-.34.75-.75.75s-.75-.34-.75-.75.34-.75.75-.75.75.34.75.75Z"/>
                <path class="cls-8" d="m88.12,132.65c0,.42-.34.75-.75.75s-.75-.34-.75-.75.34-.75.75-.75.75.34.75.75Z"/>
                <circle class="cls-8" cx="92.77" cy="132.65" r=".75"/>
                <path class="cls-8" d="m98.93,132.65c0,.42-.34.75-.75.75s-.75-.34-.75-.75.34-.75.75-.75.75.34.75.75Z"/>
                <path class="cls-8" d="m104.34,132.65c0,.42-.34.75-.75.75s-.75-.34-.75-.75.34-.75.75-.75.75.34.75.75Z"/>
                <path class="cls-8" d="m109.75,132.65c0,.42-.34.75-.75.75s-.75-.34-.75-.75.34-.75.75-.75.75.34.75.75Z"/>
                <path class="cls-8" d="m115.16,132.65c0,.42-.34.75-.75.75s-.75-.34-.75-.75.34-.75.75-.75.75.34.75.75Z"/>
                <path class="cls-8" d="m120.56,132.65c0,.42-.34.75-.75.75s-.75-.34-.75-.75.34-.75.75-.75.75.34.75.75Z"/>
                <path class="cls-8" d="m125.97,132.65c0,.42-.34.75-.75.75s-.75-.34-.75-.75.34-.75.75-.75.75.34.75.75Z"/>
                <circle class="cls-8" cx="130.63" cy="132.65" r=".75"/>
                <path class="cls-8" d="m136.78,132.65c0,.42-.34.75-.75.75s-.75-.34-.75-.75.34-.75.75-.75.75.34.75.75Z"/>
                <circle class="cls-8" cx="141.44" cy="132.65" r=".75"/>
                <path class="cls-8" d="m147.6,132.65c0,.42-.34.75-.75.75s-.75-.34-.75-.75.34-.75.75-.75.75.34.75.75Z"/>
                <path class="cls-8" d="m153.01,132.65c0,.42-.34.75-.75.75s-.75-.34-.75-.75.34-.75.75-.75.75.34.75.75Z"/>
                <path class="cls-8" d="m158.41,132.65c0,.42-.34.75-.75.75s-.75-.34-.75-.75.34-.75.75-.75.75.34.75.75Z"/>
                <path class="cls-8" d="m163.82,132.65c0,.42-.34.75-.75.75s-.75-.34-.75-.75.34-.75.75-.75.75.34.75.75Z"/>
                <path class="cls-8" d="m169.23,132.65c0,.42-.34.75-.75.75s-.75-.34-.75-.75.34-.75.75-.75.75.34.75.75Z"/>
                <path class="cls-8" d="m174.63,132.65c0,.42-.34.75-.75.75s-.75-.34-.75-.75.34-.75.75-.75.75.34.75.75Z"/>
                <path class="cls-8" d="m180.04,132.65c0,.42-.34.75-.75.75s-.75-.34-.75-.75.34-.75.75-.75.75.34.75.75Z"/>
              </g>
            </g>
          </g>
        </g>
        <g>
          <path class="cls-3" d="m144.27,119.88s27.49,4.58,36.06,2.82l-1.51,5.37-34.55-8.19Z"/>
          <path class="cls-1" d="m144.27,119.88s27.49,4.58,36.06,2.82l-1.51,5.37-34.55-8.19Z"/>
          <path class="cls-1" d="m160.09,123.63c6.49,2.09,13.79,1.73,20.15-.73"/>
        </g>
        <g>
          <path class="cls-3" d="m45.93,119.88s-27.49,4.58-36.06,2.82l1.51,5.37,34.55-8.19Z"/>
          <path class="cls-1" d="m45.93,119.88s-27.49,4.58-36.06,2.82l1.51,5.37,34.55-8.19Z"/>
          <path class="cls-1" d="m30.11,123.63c-6.49,2.09-13.79,1.73-20.15-.73"/>
        </g>
      </g>
    </g>
  </g>
  <g>
    <rect class="cls-6" x="62.92" y="89.34" width="64.13" height="27.44"/>
    <g>
      <g>
        <rect class="cls-4" x="80.21" y="98.72" width="11.19" height="4.32"/>
        <g>
          <rect class="cls-10" x="82.37" y="98.4" width="2.75" height="2.72"/>
          <rect class="cls-10" x="86.95" y="98.4" width="2.75" height="2.72"/>
        </g>
        <rect class="cls-1" x="80.21" y="98.72" width="11.19" height="4.32"/>
        <g>
          <rect class="cls-1" x="82.37" y="98.4" width="2.75" height="2.72"/>
          <rect class="cls-1" x="86.95" y="98.4" width="2.75" height="2.72"/>
        </g>
      </g>
      <g>
        <rect class="cls-4" x="98.56" y="98.72" width="11.19" height="4.32"/>
        <g>
          <rect class="cls-10" x="100.72" y="98.4" width="2.75" height="2.72"/>
          <rect class="cls-10" x="105.3" y="98.4" width="2.75" height="2.72"/>
        </g>
        <rect class="cls-1" x="98.56" y="98.72" width="11.19" height="4.32"/>
        <g>
          <rect class="cls-1" x="100.72" y="98.4" width="2.75" height="2.72"/>
          <rect class="cls-1" x="105.3" y="98.4" width="2.75" height="2.72"/>
        </g>
      </g>
    </g>
    <rect class="cls-4" x="63.03" y="93.66" width="64.25" height="1.62"/>
    <rect class="cls-4" x="63.03" y="91.23" width="64.25" height="1.62"/>
    <g>
      <g>
        <rect class="cls-8" x="83.2" y="90.75" width="4.11" height="4.98"/>
        <rect class="cls-1" x="83.2" y="90.75" width="4.11" height="4.98"/>
      </g>
      <g>
        <rect class="cls-8" x="102.65" y="90.75" width="4.11" height="4.98"/>
        <rect class="cls-1" x="102.65" y="90.75" width="4.11" height="4.98"/>
      </g>
    </g>
    <rect class="cls-1" x="62.92" y="89.34" width="64.13" height="27.44"/>
    <line class="cls-1" x1="60.81" y1="108.04" x2="129.16" y2="108.04"/>
    <line class="cls-1" x1="60.81" y1="105.26" x2="129.16" y2="105.26"/>
    <line class="cls-1" x1="60.81" y1="111.74" x2="129.16" y2="111.74"/>
    <rect class="cls-4" x="62.92" y="114.64" width="64.19" height="1.85"/>
    <polygon class="cls-4" points="73.51 116.25 71.18 114.69 73.51 111.58 75.84 114.67 73.51 116.25"/>
    <polygon class="cls-4" points="93.65 116.25 91.32 114.69 93.65 111.58 95.98 114.67 93.65 116.25"/>
    <polygon class="cls-4" points="113.79 116.25 111.46 114.69 113.79 111.58 116.13 114.67 113.79 116.25"/>
    <line class="cls-1" x1="85.84" y1="105.32" x2="85.84" y2="115.39"/>
    <line class="cls-1" x1="104.24" y1="105.38" x2="104.24" y2="115.51"/>
    <rect class="cls-4" x="62.92" y="97.27" width="64.19" height="2.66"/>
  </g>
  <g>
    <g>
      <g>
        <rect class="cls-4" x="127.13" y="90.43" width="28.68" height="2.6"/>
        <rect class="cls-1" x="127.13" y="90.43" width="28.68" height="2.6"/>
      </g>
      <polyline class="cls-9" points="126.99 97.44 127.05 101.31 153.62 89.16"/>
      <polygon class="cls-4" points="127.05 101.31 153.62 89.16 146.84 89.16 126.99 97.44 127.05 101.31"/>
      <polyline class="cls-1" points="126.99 97.44 127.05 101.31 153.62 89.16"/>
      <polygon class="cls-1" points="127.05 101.31 153.62 89.16 146.84 89.16 126.99 97.44 127.05 101.31"/>
    </g>
    <g>
      <g>
        <rect class="cls-4" x="34.21" y="90.43" width="28.68" height="2.6" transform="translate(97.09 183.46) rotate(180)"/>
        <rect class="cls-1" x="34.21" y="90.43" width="28.68" height="2.6" transform="translate(97.09 183.46) rotate(180)"/>
      </g>
      <polyline class="cls-9" points="63.03 97.44 62.97 101.31 36.4 89.16"/>
      <polygon class="cls-4" points="62.97 101.31 36.4 89.16 43.18 89.16 63.03 97.44 62.97 101.31"/>
      <polyline class="cls-1" points="63.03 97.44 62.97 101.31 36.4 89.16"/>
      <polygon class="cls-1" points="62.97 101.31 36.4 89.16 43.18 89.16 63.03 97.44 62.97 101.31"/>
    </g>
    <g>
      <g>
        <g>
          <polygon class="cls-3" points="113.48 58.29 71.86 58.45 .35 85.57 93.88 85.57 96.08 85.57 189.62 85.57 113.48 58.29"/>
          <polygon class="cls-1" points="113.48 58.29 71.86 58.45 .35 85.57 93.88 85.57 96.08 85.57 189.62 85.57 113.48 58.29"/>
          <g>
            <line class="cls-1" x1="5.19" y1="83.96" x2="5.19" y2="85.4"/>
            <line class="cls-1" x1="10.99" y1="81.5" x2="10.99" y2="85.4"/>
            <line class="cls-1" x1="16.78" y1="79.36" x2="16.78" y2="85.4"/>
            <line class="cls-1" x1="22.58" y1="77.22" x2="22.58" y2="85.4"/>
            <line class="cls-1" x1="28.37" y1="74.96" x2="28.37" y2="85.4"/>
            <line class="cls-1" x1="34.17" y1="72.96" x2="34.17" y2="85.4"/>
            <line class="cls-1" x1="39.96" y1="70.64" x2="39.96" y2="85.4"/>
            <line class="cls-1" x1="45.76" y1="68.36" x2="45.76" y2="85.4"/>
            <line class="cls-1" x1="51.55" y1="66.31" x2="51.55" y2="85.4"/>
            <line class="cls-1" x1="57.35" y1="64.11" x2="57.35" y2="85.4"/>
            <line class="cls-1" x1="63.15" y1="61.82" x2="63.15" y2="85.4"/>
            <line class="cls-1" x1="68.94" y1="59.66" x2="68.94" y2="85.4"/>
            <line class="cls-1" x1="74.74" y1="58.38" x2="74.74" y2="85.4"/>
            <line class="cls-1" x1="80.53" y1="58.38" x2="80.53" y2="85.4"/>
            <line class="cls-1" x1="86.33" y1="58.37" x2="86.33" y2="85.4"/>
            <line class="cls-1" x1="92.12" y1="58.37" x2="92.12" y2="85.4"/>
            <line class="cls-1" x1="97.92" y1="58.37" x2="97.92" y2="85.4"/>
            <line class="cls-1" x1="103.72" y1="58.37" x2="103.72" y2="85.4"/>
            <line class="cls-1" x1="109.51" y1="58.37" x2="109.51" y2="85.4"/>
            <line class="cls-1" x1="115.31" y1="59.04" x2="115.31" y2="85.4"/>
            <line class="cls-1" x1="121.1" y1="61.01" x2="121.1" y2="85.4"/>
            <line class="cls-1" x1="126.9" y1="63.07" x2="126.9" y2="85.4"/>
            <line class="cls-1" x1="132.69" y1="65.08" x2="132.69" y2="85.4"/>
            <line class="cls-1" x1="138.49" y1="67.2" x2="138.49" y2="85.4"/>
            <line class="cls-1" x1="144.28" y1="69.25" x2="144.28" y2="85.4"/>
            <line class="cls-1" x1="150.08" y1="71.45" x2="150.08" y2="85.4"/>
            <line class="cls-1" x1="155.88" y1="73.38" x2="155.88" y2="85.4"/>
            <line class="cls-1" x1="161.67" y1="75.58" x2="161.67" y2="85.4"/>
            <line class="cls-1" x1="167.47" y1="77.66" x2="167.47" y2="85.4"/>
            <line class="cls-1" x1="173.26" y1="79.76" x2="173.26" y2="85.4"/>
            <line class="cls-1" x1="179.06" y1="81.86" x2="179.06" y2="85.4"/>
            <line class="cls-1" x1="184.85" y1="83.95" x2="184.85" y2="85.4"/>
          </g>
        </g>
        <g>
          <rect class="cls-4" x="8.28" y="85.57" width="173.41" height="3.43"/>
          <g>
            <rect class="cls-1" x="8.28" y="85.57" width="173.41" height="3.43"/>
            <g>
              <path class="cls-8" d="m12.42,87.27c0,.42-.34.75-.75.75s-.75-.34-.75-.75.34-.75.75-.75.75.34.75.75Z"/>
              <path class="cls-8" d="m17.83,87.27c0,.42-.34.75-.75.75s-.75-.34-.75-.75.34-.75.75-.75.75.34.75.75Z"/>
              <path class="cls-8" d="m23.23,87.27c0,.42-.34.75-.75.75s-.75-.34-.75-.75.34-.75.75-.75.75.34.75.75Z"/>
              <circle class="cls-8" cx="27.89" cy="87.27" r=".75"/>
              <path class="cls-8" d="m34.05,87.27c0,.42-.34.75-.75.75s-.75-.34-.75-.75.34-.75.75-.75.75.34.75.75Z"/>
              <path class="cls-8" d="m39.45,87.27c0,.42-.34.75-.75.75s-.75-.34-.75-.75.34-.75.75-.75.75.34.75.75Z"/>
              <path class="cls-8" d="m44.86,87.27c0,.42-.34.75-.75.75s-.75-.34-.75-.75.34-.75.75-.75.75.34.75.75Z"/>
              <path class="cls-8" d="m50.27,87.27c0,.42-.34.75-.75.75s-.75-.34-.75-.75.34-.75.75-.75.75.34.75.75Z"/>
              <circle class="cls-8" cx="54.92" cy="87.27" r=".75"/>
              <path class="cls-8" d="m61.08,87.27c0,.42-.34.75-.75.75s-.75-.34-.75-.75.34-.75.75-.75.75.34.75.75Z"/>
              <circle class="cls-8" cx="65.74" cy="87.27" r=".75"/>
              <path class="cls-8" d="m71.9,87.27c0,.42-.34.75-.75.75s-.75-.34-.75-.75.34-.75.75-.75.75.34.75.75Z"/>
              <path class="cls-8" d="m77.3,87.27c0,.42-.34.75-.75.75s-.75-.34-.75-.75.34-.75.75-.75.75.34.75.75Z"/>
              <path class="cls-8" d="m82.71,87.27c0,.42-.34.75-.75.75s-.75-.34-.75-.75.34-.75.75-.75.75.34.75.75Z"/>
              <path class="cls-8" d="m88.12,87.27c0,.42-.34.75-.75.75s-.75-.34-.75-.75.34-.75.75-.75.75.34.75.75Z"/>
              <circle class="cls-8" cx="92.77" cy="87.27" r=".75"/>
              <path class="cls-8" d="m98.93,87.27c0,.42-.34.75-.75.75s-.75-.34-.75-.75.34-.75.75-.75.75.34.75.75Z"/>
              <path class="cls-8" d="m104.34,87.27c0,.42-.34.75-.75.75s-.75-.34-.75-.75.34-.75.75-.75.75.34.75.75Z"/>
              <path class="cls-8" d="m109.75,87.27c0,.42-.34.75-.75.75s-.75-.34-.75-.75.34-.75.75-.75.75.34.75.75Z"/>
              <path class="cls-8" d="m115.16,87.27c0,.42-.34.75-.75.75s-.75-.34-.75-.75.34-.75.75-.75.75.34.75.75Z"/>
              <path class="cls-8" d="m120.56,87.27c0,.42-.34.75-.75.75s-.75-.34-.75-.75.34-.75.75-.75.75.34.75.75Z"/>
              <path class="cls-8" d="m125.97,87.27c0,.42-.34.75-.75.75s-.75-.34-.75-.75.34-.75.75-.75.75.34.75.75Z"/>
              <circle class="cls-8" cx="130.63" cy="87.27" r=".75"/>
              <path class="cls-8" d="m136.78,87.27c0,.42-.34.75-.75.75s-.75-.34-.75-.75.34-.75.75-.75.75.34.75.75Z"/>
              <circle class="cls-8" cx="141.44" cy="87.27" r=".75"/>
              <path class="cls-8" d="m147.6,87.27c0,.42-.34.75-.75.75s-.75-.34-.75-.75.34-.75.75-.75.75.34.75.75Z"/>
              <path class="cls-8" d="m153.01,87.27c0,.42-.34.75-.75.75s-.75-.34-.75-.75.34-.75.75-.75.75.34.75.75Z"/>
              <path class="cls-8" d="m158.41,87.27c0,.42-.34.75-.75.75s-.75-.34-.75-.75.34-.75.75-.75.75.34.75.75Z"/>
              <path class="cls-8" d="m163.82,87.27c0,.42-.34.75-.75.75s-.75-.34-.75-.75.34-.75.75-.75.75.34.75.75Z"/>
              <path class="cls-8" d="m169.23,87.27c0,.42-.34.75-.75.75s-.75-.34-.75-.75.34-.75.75-.75.75.34.75.75Z"/>
              <path class="cls-8" d="m174.63,87.27c0,.42-.34.75-.75.75s-.75-.34-.75-.75.34-.75.75-.75.75.34.75.75Z"/>
              <path class="cls-8" d="m180.04,87.27c0,.42-.34.75-.75.75s-.75-.34-.75-.75.34-.75.75-.75.75.34.75.75Z"/>
            </g>
          </g>
        </g>
      </g>
      <g>
        <path class="cls-3" d="m144.55,69.12s26.75,7.8,35.47,7.07l-2.13,5.16-33.34-12.23Z"/>
        <path class="cls-1" d="m144.55,69.12s26.75,7.8,35.47,7.07l-2.13,5.16-33.34-12.23Z"/>
        <path class="cls-1" d="m159.81,74.72c6.2,2.85,13.49,3.35,20.1,1.67"/>
      </g>
      <g>
        <path class="cls-3" d="m44.07,69.12s-26.75,7.8-35.47,7.07l2.13,5.16,33.34-12.23Z"/>
        <path class="cls-1" d="m44.07,69.12s-26.75,7.8-35.47,7.07l2.13,5.16,33.34-12.23Z"/>
        <path class="cls-1" d="m28.81,74.72c-6.2,2.85-13.49,3.35-20.1,1.67"/>
      </g>
    </g>
  </g>
  <rect class="cls-8" x="76.1" y="50.03" width="34.42" height="8.33"/>
  <rect class="cls-1" x="76.1" y="50.03" width="34.42" height="8.33"/>
</svg>