<?xml version="1.0" encoding="UTF-8"?>
<svg id="OBJECTS" xmlns="http://www.w3.org/2000/svg" viewBox="0 0 369.93 386.81">
  <defs>
    <style>
      .cls-1 {
        opacity: .3;
      }

      .cls-2 {
        opacity: .55;
      }

      .cls-3 {
        fill: #202020;
      }

      .cls-3, .cls-4, .cls-5 {
        stroke-width: 0px;
      }

      .cls-4 {
        fill: #909293;
      }

      .cls-5 {
        fill: #fff;
      }
    </style>
  </defs>
  <g>
    <path class="cls-3" d="m184.96,320.85c-.51,0-.92-.41-.92-.92V50.01c0-.51.41-.92.92-.92s.92.41.92.92v269.93c0,.51-.41.92-.92.92Z"/>
    <path class="cls-3" d="m161.53,318.8c-.05,0-.11,0-.16-.01-.5-.09-.83-.56-.74-1.06L207.5,51.9c.09-.5.56-.83,1.06-.74.5.09.83.56.74,1.06l-46.87,265.83c-.08.44-.47.76-.9.76Z"/>
    <path class="cls-3" d="m138.8,312.71c-.1,0-.21-.02-.31-.06-.48-.17-.72-.7-.55-1.18L230.26,57.83c.17-.48.7-.72,1.18-.55.48.17.72.7.55,1.18l-92.32,253.65c-.14.37-.49.6-.86.6Z"/>
    <path class="cls-3" d="m117.48,302.77c-.16,0-.31-.04-.46-.12-.44-.25-.59-.81-.34-1.25L251.65,67.63c.25-.44.81-.59,1.25-.34.44.25.59.81.34,1.25l-134.96,233.76c-.17.29-.48.46-.8.46Z"/>
    <path class="cls-3" d="m98.21,289.27c-.21,0-.42-.07-.59-.21-.39-.33-.44-.9-.11-1.29l173.51-206.78c.33-.39.91-.44,1.29-.11.39.33.44.9.11,1.29l-173.51,206.78c-.18.22-.44.33-.7.33Z"/>
    <path class="cls-3" d="m81.57,272.64c-.26,0-.52-.11-.7-.33-.33-.39-.27-.97.11-1.29l206.78-173.5c.39-.33.97-.27,1.29.11.33.39.27.97-.11,1.29l-206.78,173.5c-.17.14-.38.21-.59.21Z"/>
    <path class="cls-3" d="m68.08,253.37c-.32,0-.63-.16-.8-.46-.25-.44-.1-1,.34-1.25l233.76-134.96c.44-.25,1-.1,1.25.34s.1,1-.34,1.25L68.54,253.24c-.15.08-.3.12-.46.12Z"/>
    <path class="cls-3" d="m58.14,232.05c-.38,0-.73-.23-.86-.6-.17-.48.07-1,.55-1.18l253.65-92.32c.48-.17,1,.07,1.18.55.17.48-.07,1-.55,1.18L58.45,231.99c-.1.04-.21.06-.31.06Z"/>
    <path class="cls-3" d="m52.05,209.32c-.44,0-.82-.31-.9-.76-.09-.5.24-.97.74-1.06l265.83-46.87c.5-.09.98.25,1.06.74.09.5-.24.97-.74,1.06L52.21,209.31c-.05,0-.11.01-.16.01Z"/>
    <path class="cls-3" d="m319.93,185.89H50c-.51,0-.92-.41-.92-.92s.41-.92.92-.92h269.93c.51,0,.92.41.92.92s-.41.92-.92.92Z"/>
    <path class="cls-3" d="m317.88,209.32c-.05,0-.11,0-.16-.01L51.89,162.44c-.5-.09-.83-.56-.74-1.06.09-.5.56-.84,1.06-.74l265.83,46.87c.5.09.83.56.74,1.06-.08.44-.47.76-.9.76Z"/>
    <path class="cls-3" d="m311.79,232.05c-.1,0-.21-.02-.31-.06L57.83,139.67c-.48-.17-.72-.7-.55-1.18.17-.48.7-.72,1.18-.55l253.65,92.32c.48.17.72.7.55,1.18-.14.37-.49.6-.86.6Z"/>
    <path class="cls-3" d="m301.84,253.37c-.16,0-.31-.04-.46-.12L67.62,118.28c-.44-.25-.59-.81-.34-1.25.25-.44.82-.59,1.25-.34l233.76,134.96c.44.25.59.81.34,1.25-.17.29-.48.46-.8.46Z"/>
    <path class="cls-3" d="m288.35,272.64c-.21,0-.42-.07-.59-.21L80.99,98.92c-.39-.33-.44-.9-.11-1.29.33-.39.9-.44,1.29-.11l206.78,173.5c.39.33.44.9.11,1.29-.18.22-.44.33-.7.33Z"/>
    <path class="cls-3" d="m271.72,289.27c-.26,0-.52-.11-.7-.33L97.51,82.17c-.33-.39-.27-.97.11-1.29.39-.33.97-.28,1.29.11l173.51,206.78c.33.39.27.97-.11,1.29-.17.14-.38.21-.59.21Z"/>
    <path class="cls-3" d="m252.45,302.77c-.32,0-.63-.16-.8-.46L116.69,68.55c-.25-.44-.1-1,.34-1.25.44-.25,1-.1,1.25.34l134.96,233.76c.25.44.1,1-.34,1.25-.15.08-.3.12-.46.12Z"/>
    <path class="cls-3" d="m231.12,312.71c-.38,0-.73-.23-.86-.6L137.94,58.46c-.17-.48.07-1,.55-1.18.47-.18,1,.07,1.18.55l92.32,253.65c.17.48-.07,1-.55,1.18-.1.04-.21.06-.31.06Z"/>
    <path class="cls-3" d="m208.4,318.8c-.44,0-.82-.31-.9-.76L160.62,52.22c-.09-.5.24-.97.74-1.06.5-.09.98.25,1.06.74l46.87,265.83c.09.5-.24.97-.74,1.06-.05,0-.11.01-.16.01Z"/>
  </g>
  <g>
    <path class="cls-3" d="m264.96,386.81c-.75,0-1.36-.61-1.36-1.36v-57.13l-16.56,9.38v36.13c0,.75-.61,1.36-1.36,1.36s-1.36-.61-1.36-1.36v-36.92c0-.49.26-.94.69-1.18l19.27-10.91c.42-.24.93-.23,1.35,0,.42.24.67.69.67,1.17v59.46c0,.75-.61,1.36-1.36,1.36Z"/>
    <path class="cls-3" d="m264.96,381c-.34,0-.69-.13-.95-.39l-19.27-19.1c-.39-.39-.51-.97-.3-1.48.21-.51.7-.84,1.25-.84h13.88l-14.52-7.8c-.55-.29-.82-.92-.67-1.52.15-.6.69-1.02,1.31-1.02h19.27c.75,0,1.36.61,1.36,1.36s-.61,1.36-1.36,1.36h-13.88l14.52,7.8c.55.29.82.92.67,1.52-.15.6-.69,1.02-1.31,1.02h-15.97l16.93,16.78c.53.53.54,1.39,0,1.92-.26.27-.61.4-.96.4Z"/>
    <path class="cls-3" d="m245.7,344.73c-.5,0-.99-.28-1.22-.77-.33-.67-.04-1.48.63-1.81l19.27-9.29c.67-.33,1.48-.04,1.81.63.33.67.04,1.48-.63,1.81l-19.27,9.29c-.19.09-.39.13-.59.13Z"/>
  </g>
  <g>
    <path class="cls-3" d="m105.1,386.81c-.75,0-1.36-.61-1.36-1.36v-59.46c0-.48.26-.93.67-1.17.41-.24.93-.25,1.35,0l19.27,10.91c.42.24.69.69.69,1.18v36.92c0,.75-.61,1.36-1.36,1.36s-1.36-.61-1.36-1.36v-36.13l-16.55-9.38v57.13c0,.75-.61,1.36-1.36,1.36Z"/>
    <path class="cls-3" d="m105.1,381c-.35,0-.7-.13-.96-.4-.53-.53-.52-1.39,0-1.92l16.93-16.78h-15.97c-.62,0-1.16-.42-1.31-1.02-.15-.6.13-1.23.67-1.52l14.52-7.8h-13.88c-.75,0-1.36-.61-1.36-1.36s.61-1.36,1.36-1.36h19.27c.62,0,1.16.42,1.31,1.02.15.6-.13,1.23-.67,1.52l-14.52,7.8h13.88c.55,0,1.04.33,1.25.84.21.51.09,1.09-.3,1.48l-19.27,19.1c-.26.26-.61.39-.95.39Z"/>
    <path class="cls-3" d="m124.37,344.73c-.2,0-.4-.04-.59-.13l-19.27-9.29c-.67-.33-.96-1.14-.63-1.81.32-.67,1.13-.96,1.81-.63l19.27,9.29c.67.33.96,1.14.63,1.81-.23.48-.72.77-1.22.77Z"/>
  </g>
  <circle class="cls-4" cx="184.96" cy="184.97" r="9.64"/>
  <circle class="cls-4" cx="184.96" cy="184.97" r="3.77"/>
  <path class="cls-3" d="m184.96,195.96c-6.06,0-10.99-4.93-10.99-10.99s4.93-10.99,10.99-10.99,10.99,4.93,10.99,10.99-4.93,10.99-10.99,10.99Zm0-19.27c-4.57,0-8.28,3.71-8.28,8.28s3.71,8.28,8.28,8.28,8.28-3.71,8.28-8.28-3.71-8.28-8.28-8.28Z"/>
  <polyline class="cls-4" points="190.21 197.43 204.27 269.88 218.65 377.21 211 377.21 194.6 271.65 184.96 203.06 175.33 271.65 158.92 377.21 151.28 377.21 165.65 269.88 179.72 197.43"/>
  <rect class="cls-4" x="174.72" y="189.78" width="20.49" height="7.65"/>
  <path class="cls-3" d="m195.21,198.79h-20.49c-.75,0-1.36-.61-1.36-1.36v-7.65c0-.75.61-1.36,1.36-1.36h20.49c.75,0,1.36.61,1.36,1.36v7.65c0,.75-.61,1.36-1.36,1.36Zm-19.13-2.71h17.78v-4.94h-17.78v4.94Z"/>
  <path class="cls-3" d="m184.96,190.1c-2.83,0-5.13-2.3-5.13-5.13s2.3-5.13,5.13-5.13,5.13,2.3,5.13,5.13-2.3,5.13-5.13,5.13Zm0-7.55c-1.33,0-2.42,1.08-2.42,2.42s1.08,2.42,2.42,2.42,2.42-1.08,2.42-2.42-1.08-2.42-2.42-2.42Z"/>
  <path class="cls-3" d="m218.65,378.57h-7.65c-.67,0-1.24-.49-1.34-1.15l-16.41-105.56-8.29-59.05-8.29,59.03-16.41,105.58c-.1.66-.67,1.15-1.34,1.15h-7.65c-.39,0-.76-.17-1.02-.46s-.38-.69-.32-1.07l14.37-107.34,14.08-72.52c.14-.74.85-1.22,1.59-1.07.73.14,1.21.85,1.07,1.59l-14.07,72.44-14.15,105.72h4.94l16.23-104.42,9.63-68.57c.09-.67.67-1.17,1.34-1.17s1.25.5,1.34,1.17l9.63,68.59,16.22,104.4h4.94l-14.17-105.8-14.05-72.36c-.14-.73.34-1.45,1.07-1.59.74-.15,1.45.34,1.59,1.07l14.07,72.44,14.39,107.42c.05.39-.07.78-.32,1.07-.26.29-.63.46-1.02.46Z"/>
  <path class="cls-3" d="m184.96,342.54c-86.89,0-157.57-70.69-157.57-157.57S98.08,27.4,184.96,27.4s157.57,70.69,157.57,157.57-70.69,157.57-157.57,157.57Zm0-312.44C99.57,30.11,30.1,99.58,30.1,184.97s69.47,154.86,154.86,154.86,154.86-69.47,154.86-154.86S270.35,30.11,184.96,30.11Z"/>
  <path class="cls-3" d="m184.96,321.29c-75.17,0-136.32-61.15-136.32-136.32S109.8,48.65,184.96,48.65s136.32,61.15,136.32,136.32-61.15,136.32-136.32,136.32Zm0-269.93c-73.67,0-133.61,59.94-133.61,133.61s59.94,133.61,133.61,133.61,133.61-59.94,133.61-133.61S258.63,51.36,184.96,51.36Z"/>
  <path class="cls-3" d="m184.96,340.94c-.44,0-.85-.21-1.11-.58l-12.46-17.71-15.65,14.96c-.32.31-.77.43-1.2.35-.43-.09-.8-.38-.98-.78l-8.77-19.8-18.29,11.6c-.37.24-.84.28-1.24.11-.41-.17-.71-.53-.8-.96l-4.71-21.14-20.2,7.79c-.41.16-.87.11-1.24-.14-.37-.25-.59-.65-.6-1.1l-.5-21.65-21.33,3.72c-.44.08-.88-.07-1.19-.38-.31-.31-.45-.76-.38-1.19l3.72-21.33-21.65-.5c-.44-.01-.85-.23-1.1-.6-.24-.37-.3-.83-.14-1.24l7.79-20.2-21.14-4.71c-.43-.1-.79-.4-.96-.8-.17-.41-.13-.87.11-1.25l11.6-18.29-19.8-8.77c-.4-.18-.7-.54-.78-.98-.08-.43.05-.88.35-1.2l14.96-15.65-17.71-12.46c-.36-.25-.58-.67-.58-1.11s.22-.85.58-1.11l17.71-12.46-14.96-15.65c-.31-.32-.44-.77-.35-1.2.09-.43.38-.8.78-.98l19.8-8.77-11.6-18.29c-.24-.37-.28-.84-.11-1.24.17-.41.53-.71.96-.8l21.14-4.71-7.8-20.2c-.16-.41-.11-.87.14-1.24.25-.37.65-.59,1.1-.6l21.65-.5-3.72-21.33c-.08-.43.06-.88.38-1.19.31-.31.76-.45,1.19-.38l21.33,3.72.5-21.65c0-.44.23-.85.6-1.1.37-.25.83-.3,1.24-.14l20.2,7.79,4.71-21.14c.1-.43.4-.79.8-.96.41-.17.87-.13,1.24.11l18.29,11.6,8.77-19.8c.18-.4.54-.7.98-.78.44-.08.88.04,1.2.35l15.65,14.96,12.46-17.71c.51-.72,1.71-.72,2.22,0l12.46,17.71,15.65-14.96c.32-.31.77-.43,1.2-.35.43.09.8.38.98.78l8.77,19.8,18.29-11.6c.37-.24.84-.28,1.24-.11.41.17.71.53.8.96l4.71,21.14,20.2-7.79c.41-.16.88-.11,1.24.14.37.25.59.65.6,1.1l.5,21.65,21.33-3.72c.44-.08.88.07,1.19.38s.45.76.38,1.19l-3.72,21.33,21.65.5c.44.01.85.23,1.1.6.24.37.3.83.14,1.24l-7.79,20.2,21.14,4.71c.43.1.79.4.96.8.17.41.13.87-.11,1.25l-11.6,18.29,19.8,8.77c.4.18.7.54.78.98.08.43-.05.88-.35,1.2l-14.96,15.65,17.71,12.46c.36.25.58.67.58,1.11s-.22.85-.58,1.11l-17.71,12.46,14.96,15.65c.31.32.44.77.35,1.2-.09.43-.38.8-.78.98l-19.8,8.77,11.6,18.29c.24.37.28.84.11,1.24-.17.41-.53.71-.96.8l-21.14,4.71,7.79,20.2c.16.41.11.87-.14,1.24-.25.37-.65.59-1.1.6l-21.65.5,3.72,21.33c.08.43-.06.88-.38,1.19-.31.31-.75.45-1.19.38l-21.33-3.72-.5,21.65c0,.44-.23.85-.6,1.1-.37.24-.83.3-1.24.14l-20.2-7.79-4.71,21.14c-.1.43-.4.79-.8.96-.41.17-.87.13-1.24-.11l-18.29-11.6-8.77,19.8c-.18.4-.54.7-.98.78-.43.09-.88-.04-1.2-.35l-15.65-14.96-12.46,17.71c-.25.36-.67.58-1.11.58Zm-13.37-21.71s.09,0,.13,0c.39.04.75.25.98.57l12.26,17.42,12.26-17.42c.23-.32.58-.53.98-.57.39-.04.78.1,1.07.37l15.4,14.72,8.63-19.47c.16-.36.47-.63.85-.75.38-.11.79-.06,1.12.15l17.99,11.41,4.63-20.79c.09-.39.34-.71.68-.9.35-.19.76-.21,1.13-.07l19.87,7.67.49-21.3c0-.39.19-.77.49-1.02.3-.25.7-.35,1.09-.29l20.99,3.66-3.65-20.99c-.07-.39.04-.79.29-1.09.25-.31.62-.49,1.02-.49l21.3-.49-7.67-19.87c-.14-.37-.12-.78.07-1.13.19-.35.51-.6.9-.68l20.79-4.63-11.41-17.99c-.21-.33-.27-.74-.15-1.12.11-.38.39-.69.75-.85l19.47-8.63-14.72-15.4c-.27-.29-.41-.68-.37-1.07.04-.39.25-.75.57-.98l17.42-12.26-17.42-12.26c-.32-.23-.53-.58-.57-.98-.04-.39.1-.78.37-1.07l14.72-15.4-19.47-8.63c-.36-.16-.63-.47-.75-.85s-.06-.79.15-1.12l11.41-17.98-20.79-4.63c-.39-.09-.71-.34-.9-.68-.19-.35-.21-.76-.07-1.13l7.67-19.87-21.3-.49c-.39,0-.77-.19-1.02-.49-.25-.31-.36-.7-.29-1.09l3.66-20.99-20.99,3.65c-.39.07-.79-.04-1.09-.29-.31-.25-.49-.62-.49-1.02l-.49-21.3-19.87,7.67c-.37.14-.78.12-1.13-.07-.35-.19-.6-.51-.68-.9l-4.63-20.79-17.99,11.41c-.33.21-.74.27-1.12.15-.38-.11-.69-.39-.85-.75l-8.63-19.47-15.4,14.72c-.29.27-.68.41-1.07.37-.39-.04-.75-.25-.98-.57l-12.26-17.42-12.26,17.42c-.23.32-.58.53-.98.57-.39.04-.78-.1-1.07-.37l-15.4-14.72-8.63,19.47c-.16.36-.47.63-.85.75-.37.11-.78.06-1.12-.15l-17.99-11.41-4.63,20.79c-.09.39-.34.71-.68.9-.35.19-.76.21-1.13.07l-19.87-7.67-.49,21.3c0,.39-.19.77-.49,1.02-.3.25-.7.36-1.09.29l-20.99-3.66,3.66,20.99c.07.39-.04.79-.29,1.09-.25.31-.62.49-1.02.49l-21.3.49,7.67,19.87c.14.37.12.78-.07,1.13-.19.35-.51.6-.9.68l-20.79,4.63,11.41,17.99c.21.33.27.74.15,1.12s-.39.69-.75.85l-19.47,8.63,14.72,15.4c.27.29.41.68.37,1.07-.04.39-.25.75-.57.98l-17.42,12.26,17.42,12.26c.32.23.53.58.57.98.04.39-.1.78-.37,1.07l-14.72,15.4,19.47,8.63c.36.16.63.47.75.85s.06.79-.15,1.12l-11.41,17.99,20.79,4.63c.39.09.71.34.9.68.19.35.21.76.07,1.13l-7.67,19.87,21.3.49c.39,0,.77.19,1.02.49s.36.7.29,1.09l-3.66,20.99,20.99-3.66c.39-.07.79.04,1.09.29.31.25.49.62.49,1.02l.49,21.3,19.87-7.67c.37-.14.78-.12,1.13.07.35.19.6.51.68.9l4.64,20.79,17.99-11.41c.33-.21.74-.27,1.12-.15.38.11.69.39.85.75l8.63,19.47,15.4-14.72c.25-.24.59-.38.94-.38Z"/>
  <path class="cls-3" d="m184.96,360.3c-.45,0-.87-.23-1.13-.6l-12.23-18.23c-.42-.62-.25-1.46.37-1.88.62-.42,1.46-.25,1.88.37l11.1,16.55,11.1-16.55c.42-.62,1.26-.79,1.88-.37.62.42.79,1.26.37,1.88l-12.23,18.23c-.25.38-.67.6-1.13.6Z"/>
  <path class="cls-3" d="m172.73,30.58c-.26,0-.52-.07-.75-.23-.62-.42-.79-1.26-.37-1.88l12.23-18.23c.5-.75,1.75-.75,2.25,0l12.23,18.23c.42.62.25,1.46-.37,1.88-.62.42-1.46.25-1.88-.37l-11.1-16.55-11.1,16.55c-.26.39-.69.6-1.13.6Z"/>
  <path class="cls-3" d="m139.93,354.37c-.12,0-.23-.02-.35-.05-.44-.12-.79-.44-.93-.87l-7.09-20.77c-.24-.71.14-1.48.84-1.72.71-.24,1.48.14,1.72.84l6.44,18.86,15.01-13.11c.56-.49,1.42-.43,1.91.13.49.56.43,1.42-.13,1.91l-16.53,14.44c-.25.22-.57.34-.89.34Z"/>
  <path class="cls-3" d="m237.08,39.05c-.56,0-1.09-.35-1.28-.92l-6.44-18.86-15.01,13.11c-.56.49-1.42.43-1.91-.13-.49-.56-.43-1.42.13-1.91l16.53-14.44c.34-.3.81-.4,1.24-.29.44.12.79.44.93.87l7.09,20.77c.24.71-.14,1.48-.84,1.72-.15.05-.29.07-.44.07Z"/>
  <path class="cls-3" d="m97.97,336.99c-.23,0-.47-.06-.68-.18-.39-.23-.64-.63-.68-1.08l-1.47-21.9c-.05-.75.51-1.39,1.26-1.44.73-.06,1.39.51,1.44,1.26l1.34,19.89,17.89-8.78c.67-.33,1.48-.05,1.81.62.33.67.05,1.48-.62,1.81l-19.7,9.67c-.19.09-.39.14-.6.14Z"/>
  <path class="cls-3" d="m273.42,57.56c-.71,0-1.3-.55-1.35-1.26l-1.34-19.89-17.89,8.78c-.67.33-1.48.05-1.81-.62-.33-.67-.05-1.48.62-1.81l19.7-9.67c.4-.2.88-.18,1.27.04.39.23.64.63.68,1.08l1.47,21.9c.05.75-.51,1.39-1.26,1.44-.03,0-.06,0-.09,0Z"/>
  <path class="cls-3" d="m61.94,309.34c-.36,0-.7-.14-.96-.4-.32-.32-.46-.78-.37-1.22l4.24-21.54c.14-.73.86-1.21,1.59-1.07.73.14,1.21.86,1.07,1.59l-3.85,19.55,19.55-3.85c.73-.15,1.45.33,1.59,1.07.14.73-.33,1.45-1.07,1.59l-21.54,4.24c-.09.02-.17.03-.26.03Z"/>
  <path class="cls-3" d="m303.74,84.84c-.09,0-.17,0-.26-.03-.73-.14-1.21-.86-1.07-1.59l3.85-19.55-19.55,3.85c-.73.14-1.45-.33-1.59-1.07-.14-.73.33-1.45,1.07-1.59l21.54-4.24c.44-.09.9.05,1.22.37.32.32.46.78.37,1.22l-4.24,21.54c-.13.65-.69,1.09-1.33,1.09Z"/>
  <path class="cls-3" d="m56.2,274.78s-.06,0-.09,0l-21.9-1.47c-.45-.03-.86-.28-1.08-.67-.23-.39-.24-.87-.04-1.28l9.67-19.7c.33-.67,1.14-.95,1.81-.62.67.33.95,1.14.62,1.81l-8.78,17.89,19.89,1.34c.75.05,1.31.7,1.26,1.44-.05.72-.64,1.26-1.35,1.26Z"/>
  <path class="cls-3" d="m325.96,119.04c-.2,0-.4-.04-.6-.14-.67-.33-.95-1.14-.62-1.81l8.78-17.89-19.89-1.34c-.75-.05-1.31-.7-1.26-1.44.05-.75.7-1.32,1.44-1.26l21.9,1.47c.45.03.86.28,1.08.67.23.39.24.87.04,1.28l-9.67,19.7c-.23.48-.72.76-1.22.76Z"/>
  <path class="cls-3" d="m37.69,238.44c-.15,0-.29-.02-.44-.07l-20.77-7.09c-.43-.15-.75-.5-.87-.93s0-.9.29-1.24l14.44-16.53c.49-.56,1.35-.62,1.91-.13.56.49.62,1.35.13,1.91l-13.11,15.01,18.86,6.44c.71.24,1.09,1.01.84,1.72-.19.56-.72.92-1.28.92Z"/>
  <path class="cls-3" d="m338.57,157.82c-.32,0-.63-.11-.89-.34-.56-.49-.62-1.35-.13-1.91l13.12-15.01-18.86-6.44c-.71-.24-1.09-1.01-.84-1.72s1.01-1.09,1.72-.84l20.77,7.09c.43.15.75.5.87.93.12.44,0,.9-.29,1.24l-14.44,16.53c-.27.31-.64.46-1.02.46Z"/>
  <path class="cls-3" d="m29.22,198.55c-.26,0-.52-.07-.75-.23l-18.23-12.23c-.38-.25-.6-.67-.6-1.13s.23-.87.6-1.13l18.23-12.23c.62-.42,1.46-.25,1.88.37.42.62.25,1.46-.37,1.88l-16.55,11.1,16.55,11.1c.62.42.79,1.26.37,1.88-.26.39-.69.6-1.13.6Z"/>
  <path class="cls-3" d="m340.71,198.55c-.44,0-.86-.21-1.13-.6-.42-.62-.25-1.46.37-1.88l16.55-11.1-16.55-11.1c-.62-.42-.79-1.26-.37-1.88.42-.62,1.26-.79,1.88-.37l18.23,12.23c.38.25.6.67.6,1.13s-.23.87-.6,1.13l-18.23,12.23c-.23.16-.49.23-.75.23Z"/>
  <path class="cls-3" d="m31.36,157.82c-.38,0-.75-.16-1.02-.46l-14.44-16.53c-.3-.34-.4-.81-.29-1.24.12-.44.44-.79.87-.93l20.77-7.09c.71-.24,1.48.14,1.72.84s-.14,1.48-.84,1.72l-18.86,6.44,13.11,15.01c.49.56.43,1.42-.13,1.91-.26.22-.57.34-.89.34Z"/>
  <path class="cls-3" d="m332.24,238.44c-.56,0-1.09-.35-1.28-.92-.24-.71.14-1.48.84-1.72l18.86-6.44-13.12-15.01c-.49-.56-.43-1.42.13-1.91.56-.49,1.42-.43,1.91.13l14.44,16.53c.3.34.4.81.29,1.24-.12.44-.44.79-.87.93l-20.77,7.09c-.15.05-.29.07-.44.07Z"/>
  <path class="cls-3" d="m43.97,119.04c-.5,0-.98-.28-1.22-.76l-9.67-19.7c-.2-.41-.18-.88.04-1.28.23-.39.63-.64,1.08-.67l21.9-1.47c.73-.07,1.39.51,1.44,1.26.05.75-.51,1.39-1.26,1.44l-19.89,1.34,8.78,17.89c.33.67.05,1.48-.62,1.81-.19.09-.4.14-.6.14Z"/>
  <path class="cls-3" d="m313.73,274.78c-.71,0-1.3-.55-1.35-1.26-.05-.75.51-1.39,1.26-1.44l19.89-1.34-8.78-17.89c-.33-.67-.05-1.48.62-1.81.67-.33,1.48-.05,1.81.62l9.67,19.7c.2.41.18.88-.04,1.28-.23.39-.63.64-1.08.67l-21.9,1.47s-.06,0-.09,0Z"/>
  <path class="cls-3" d="m66.19,84.84c-.63,0-1.2-.45-1.33-1.09l-4.24-21.54c-.09-.44.05-.9.37-1.22.32-.32.78-.46,1.22-.37l21.54,4.24c.73.14,1.21.86,1.07,1.59-.15.73-.86,1.21-1.59,1.07l-19.55-3.85,3.85,19.55c.14.73-.33,1.45-1.07,1.59-.09.02-.18.03-.26.03Z"/>
  <path class="cls-3" d="m307.98,309.34c-.09,0-.17,0-.26-.03l-21.54-4.24c-.73-.15-1.21-.86-1.07-1.59.15-.73.86-1.21,1.59-1.07l19.55,3.85-3.85-19.55c-.14-.73.33-1.45,1.07-1.59.74-.15,1.45.33,1.59,1.07l4.24,21.54c.09.44-.05.9-.37,1.22-.26.26-.6.4-.96.4Z"/>
  <path class="cls-3" d="m96.5,57.56s-.06,0-.09,0c-.75-.05-1.31-.7-1.26-1.44l1.47-21.9c.03-.45.28-.86.68-1.08.39-.23.87-.24,1.27-.04l19.7,9.67c.67.33.95,1.14.62,1.81-.33.67-1.14.95-1.81.62l-17.89-8.78-1.34,19.89c-.05.72-.64,1.26-1.35,1.26Z"/>
  <path class="cls-3" d="m271.95,336.99c-.2,0-.41-.05-.6-.14l-19.7-9.67c-.67-.33-.95-1.14-.62-1.81.33-.67,1.14-.95,1.81-.62l17.89,8.78,1.34-19.89c.05-.75.7-1.33,1.44-1.26.75.05,1.31.7,1.26,1.44l-1.47,21.9c-.03.45-.28.86-.68,1.08-.21.12-.44.18-.68.18Z"/>
  <path class="cls-3" d="m132.84,39.05c-.15,0-.29-.02-.44-.07-.71-.24-1.09-1.01-.84-1.72l7.09-20.77c.15-.43.5-.75.93-.87.43-.12.9,0,1.24.29l16.53,14.44c.56.49.62,1.35.13,1.91-.49.56-1.35.62-1.91.13l-15.01-13.11-6.44,18.86c-.19.56-.72.92-1.28.92Z"/>
  <path class="cls-3" d="m229.99,354.37c-.32,0-.64-.12-.89-.34l-16.53-14.44c-.56-.49-.62-1.35-.13-1.91.49-.56,1.35-.62,1.91-.13l15.01,13.11,6.44-18.86c.24-.71,1.01-1.09,1.72-.84.71.24,1.09,1.01.84,1.72l-7.09,20.77c-.15.43-.5.75-.93.87-.12.03-.23.05-.35.05Z"/>
  <g>
    <g>
      <circle class="cls-4" cx="184.96" cy="10.99" r="9.63"/>
      <g class="cls-1">
        <path class="cls-3" d="m194.6,10.99c0,5.32-4.31,9.63-9.63,9.63s-9.63-4.31-9.63-9.63c0-1,.15-1.96.43-2.86,1.23,3.92,4.88,6.76,9.2,6.76s7.97-2.84,9.2-6.76c.28.9.43,1.86.43,2.86Z"/>
      </g>
      <g class="cls-2">
        <path class="cls-5" d="m194.6,10.99c0,.55-.05,1.08-.14,1.61-.76-4.56-4.72-8.03-9.5-8.03s-8.73,3.47-9.5,8.03c-.09-.52-.14-1.05-.14-1.61,0-5.32,4.31-9.63,9.63-9.63s9.63,4.31,9.63,9.63Z"/>
      </g>
      <path class="cls-3" d="m184.96,21.98c-6.06,0-10.99-4.93-10.99-10.99s4.93-10.99,10.99-10.99,10.99,4.93,10.99,10.99-4.93,10.99-10.99,10.99Zm0-19.27c-4.56,0-8.28,3.71-8.28,8.28s3.71,8.28,8.28,8.28,8.28-3.71,8.28-8.28-3.71-8.28-8.28-8.28Z"/>
    </g>
    <g>
      <circle class="cls-4" cx="184.96" cy="358.94" r="9.63" transform="translate(-206.87 456.49) rotate(-76.72)"/>
      <g class="cls-1">
        <path class="cls-3" d="m194.6,358.94c0,5.32-4.31,9.63-9.63,9.63s-9.63-4.31-9.63-9.63c0-1,.15-1.96.43-2.86,1.23,3.92,4.88,6.76,9.2,6.76s7.97-2.84,9.2-6.76c.28.9.43,1.86.43,2.86Z"/>
      </g>
      <g class="cls-2">
        <path class="cls-5" d="m194.6,358.94c0,.55-.05,1.08-.14,1.61-.76-4.56-4.72-8.03-9.5-8.03s-8.73,3.47-9.5,8.03c-.09-.52-.14-1.05-.14-1.61,0-5.32,4.31-9.63,9.63-9.63s9.63,4.31,9.63,9.63Z"/>
      </g>
      <path class="cls-3" d="m184.96,369.93c-6.06,0-10.99-4.93-10.99-10.99s4.93-10.99,10.99-10.99,10.99,4.93,10.99,10.99-4.93,10.99-10.99,10.99Zm0-19.27c-4.56,0-8.28,3.71-8.28,8.28s3.71,8.28,8.28,8.28,8.28-3.71,8.28-8.28-3.71-8.28-8.28-8.28Z"/>
    </g>
  </g>
  <g>
    <g>
      <circle class="cls-4" cx="229.99" cy="16.92" r="9.63" transform="translate(174.35 240.72) rotate(-80.25)"/>
      <g class="cls-1">
        <path class="cls-3" d="m239.3,19.41c-1.38,5.14-6.66,8.19-11.8,6.81-5.14-1.38-8.19-6.66-6.81-11.8.26-.97.65-1.86,1.16-2.65.17,4.1,2.96,7.79,7.14,8.91,4.17,1.12,8.44-.68,10.64-4.15.04.94-.07,1.91-.32,2.88Z"/>
      </g>
      <g class="cls-2">
        <path class="cls-5" d="m239.3,19.41c-.14.53-.32,1.03-.55,1.52.44-4.6-2.49-8.98-7.09-10.21-4.61-1.23-9.33,1.09-11.25,5.3.05-.53.14-1.05.28-1.59,1.38-5.14,6.66-8.19,11.8-6.81s8.19,6.66,6.81,11.8Z"/>
      </g>
      <path class="cls-3" d="m230.01,27.91c-.95,0-1.92-.13-2.86-.38-2.84-.76-5.2-2.58-6.67-5.12-1.47-2.54-1.86-5.5-1.1-8.34,1.57-5.85,7.6-9.34,13.46-7.77,2.84.76,5.2,2.58,6.67,5.12,1.47,2.54,1.86,5.5,1.1,8.34-.76,2.83-2.58,5.2-5.12,6.67-1.69.98-3.57,1.48-5.48,1.48Zm-.02-19.27c-3.65,0-7.01,2.44-8,6.14-.57,2.14-.28,4.37.83,6.28,1.11,1.91,2.89,3.28,5.03,3.86,2.14.57,4.37.28,6.28-.83,1.91-1.11,3.28-2.89,3.86-5.03h0c.57-2.14.28-4.37-.83-6.28-1.11-1.91-2.89-3.28-5.03-3.86-.71-.19-1.43-.28-2.14-.28Z"/>
    </g>
    <g>
      <circle class="cls-4" cx="139.93" cy="353.01" r="9.63" transform="translate(-231.68 431.12) rotate(-80.25)"/>
      <g class="cls-1">
        <path class="cls-3" d="m149.24,355.51c-1.38,5.14-6.66,8.19-11.8,6.81-5.14-1.38-8.19-6.66-6.81-11.8.26-.97.65-1.86,1.16-2.65.17,4.1,2.96,7.79,7.14,8.91,4.17,1.12,8.44-.68,10.64-4.15.04.94-.07,1.91-.32,2.88Z"/>
      </g>
      <g class="cls-2">
        <path class="cls-5" d="m149.24,355.51c-.14.53-.32,1.03-.55,1.52.44-4.6-2.49-8.98-7.09-10.21-4.61-1.23-9.33,1.09-11.25,5.3.05-.53.14-1.05.28-1.59,1.38-5.14,6.66-8.19,11.8-6.81,5.14,1.38,8.19,6.66,6.81,11.8Z"/>
      </g>
      <path class="cls-3" d="m139.93,364c-.94,0-1.89-.12-2.84-.38-2.84-.76-5.2-2.58-6.67-5.12-1.47-2.54-1.86-5.5-1.1-8.34,1.57-5.85,7.61-9.34,13.46-7.77,2.84.76,5.2,2.58,6.67,5.12,1.47,2.54,1.86,5.5,1.1,8.34-1.31,4.9-5.77,8.15-10.62,8.15Zm0-19.27c-3.65,0-7.01,2.44-8,6.14-1.18,4.41,1.44,8.96,5.85,10.14,4.41,1.18,8.96-1.44,10.14-5.85.57-2.14.28-4.37-.83-6.28-1.11-1.91-2.89-3.28-5.03-3.86-.71-.19-1.43-.28-2.14-.28Z"/>
    </g>
  </g>
  <g>
    <g>
      <circle class="cls-4" cx="271.95" cy="34.3" r="9.63" transform="translate(-1.79 48.34) rotate(-10.13)"/>
      <g class="cls-1">
        <path class="cls-3" d="m280.29,39.12c-2.66,4.61-8.55,6.19-13.16,3.53-4.61-2.66-6.19-8.55-3.53-13.16.5-.87,1.11-1.63,1.8-2.26-.89,4.01.85,8.3,4.59,10.46,3.74,2.16,8.33,1.52,11.35-1.25-.2.92-.56,1.83-1.06,2.69Z"/>
      </g>
      <g class="cls-2">
        <path class="cls-5" d="m280.29,39.12c-.28.48-.58.91-.92,1.32,1.62-4.33-.08-9.31-4.21-11.7-4.13-2.39-9.3-1.36-12.24,2.2.18-.5.41-.98.68-1.46,2.66-4.61,8.55-6.19,13.16-3.53,4.61,2.66,6.19,8.55,3.53,13.16Z"/>
      </g>
      <path class="cls-3" d="m271.93,45.28c-1.86,0-3.75-.47-5.48-1.47-5.25-3.03-7.05-9.76-4.02-15.01,1.47-2.54,3.84-4.36,6.67-5.12,2.84-.76,5.8-.37,8.34,1.1,5.25,3.03,7.05,9.76,4.02,15.01h0c-2.03,3.52-5.74,5.49-9.54,5.49Zm.03-19.27c-.72,0-1.44.09-2.16.29-2.14.57-3.92,1.94-5.03,3.86-2.28,3.95-.92,9.03,3.03,11.31,3.95,2.28,9.03.92,11.31-3.03h0c2.28-3.95.92-9.03-3.03-11.31-1.28-.74-2.69-1.11-4.12-1.11Zm8.33,13.1h0,0Z"/>
    </g>
    <g>
      <circle class="cls-4" cx="97.98" cy="335.63" r="9.63"/>
      <g class="cls-1">
        <path class="cls-3" d="m106.32,340.45c-2.66,4.61-8.55,6.19-13.16,3.53-4.61-2.66-6.19-8.55-3.53-13.16.5-.87,1.11-1.63,1.8-2.26-.89,4.01.85,8.3,4.59,10.46,3.74,2.16,8.33,1.52,11.35-1.25-.2.92-.56,1.83-1.06,2.69Z"/>
      </g>
      <g class="cls-2">
        <path class="cls-5" d="m106.32,340.45c-.28.48-.58.91-.92,1.32,1.62-4.33-.08-9.31-4.21-11.7s-9.3-1.36-12.24,2.2c.18-.5.41-.98.68-1.46,2.66-4.61,8.55-6.19,13.16-3.53,4.61,2.66,6.19,8.55,3.53,13.16Z"/>
      </g>
      <path class="cls-3" d="m97.96,346.62c-1.86,0-3.75-.47-5.47-1.47-5.25-3.03-7.05-9.76-4.02-15.01,1.47-2.54,3.84-4.36,6.67-5.12,2.84-.76,5.8-.37,8.34,1.1,5.25,3.03,7.05,9.76,4.02,15.01h0c-2.03,3.52-5.74,5.49-9.54,5.49Zm.03-19.27c-.72,0-1.44.09-2.16.29-2.14.57-3.92,1.94-5.03,3.86-2.28,3.95-.92,9.03,3.03,11.31,3.95,2.28,9.03.92,11.31-3.03h0c2.28-3.95.92-9.03-3.03-11.31-1.28-.74-2.69-1.11-4.12-1.11Zm8.33,13.1h0,0Z"/>
    </g>
  </g>
  <g>
    <g>
      <circle class="cls-4" cx="307.98" cy="61.95" r="9.63"/>
      <g class="cls-1">
        <path class="cls-3" d="m314.79,68.76c-3.76,3.76-9.86,3.76-13.62,0-3.76-3.76-3.76-9.86,0-13.62.71-.71,1.49-1.28,2.33-1.72-1.9,3.64-1.33,8.23,1.73,11.29,3.06,3.06,7.65,3.63,11.29,1.73-.43.84-1.01,1.62-1.72,2.33Z"/>
      </g>
      <g class="cls-2">
        <path class="cls-5" d="m314.79,68.76c-.39.39-.8.73-1.23,1.04,2.69-3.76,2.34-9.02-1.04-12.39s-8.63-3.72-12.39-1.04c.3-.43.65-.84,1.04-1.23,3.76-3.76,9.86-3.76,13.62,0,3.76,3.76,3.76,9.86,0,13.62Z"/>
      </g>
      <path class="cls-3" d="m307.98,72.93c-2.94,0-5.69-1.14-7.77-3.22-4.28-4.28-4.28-11.26,0-15.54,4.28-4.28,11.26-4.28,15.54,0,4.28,4.28,4.28,11.26,0,15.54h0c-2.08,2.08-4.83,3.22-7.77,3.22Zm0-19.26c-2.12,0-4.24.81-5.85,2.42-3.23,3.23-3.23,8.48,0,11.71,1.56,1.56,3.64,2.42,5.85,2.42s4.29-.86,5.85-2.42h0c3.23-3.23,3.23-8.48,0-11.71-1.61-1.61-3.73-2.42-5.85-2.42Z"/>
    </g>
    <g>
      <circle class="cls-4" cx="61.94" cy="307.98" r="9.63"/>
      <g class="cls-1">
        <path class="cls-3" d="m68.75,314.8c-3.76,3.76-9.86,3.76-13.62,0-3.76-3.76-3.76-9.86,0-13.62.71-.71,1.49-1.28,2.33-1.72-1.9,3.64-1.33,8.23,1.73,11.29,3.06,3.06,7.65,3.63,11.29,1.73-.43.84-1.01,1.62-1.72,2.33Z"/>
      </g>
      <g class="cls-2">
        <path class="cls-5" d="m68.75,314.8c-.39.39-.8.73-1.23,1.04,2.69-3.76,2.34-9.02-1.04-12.39-3.37-3.37-8.63-3.72-12.39-1.04.3-.43.65-.84,1.04-1.23,3.76-3.76,9.86-3.76,13.62,0s3.76,9.86,0,13.62Z"/>
      </g>
      <path class="cls-3" d="m61.94,318.97c-2.81,0-5.63-1.07-7.77-3.21-2.08-2.08-3.22-4.83-3.22-7.77s1.14-5.69,3.22-7.77c2.08-2.08,4.83-3.22,7.77-3.22s5.69,1.14,7.77,3.22c2.08,2.07,3.22,4.83,3.22,7.77s-1.14,5.69-3.22,7.77h0c-2.14,2.14-4.96,3.21-7.77,3.21Zm0-19.26c-2.21,0-4.29.86-5.85,2.42-1.56,1.56-2.42,3.64-2.42,5.85s.86,4.29,2.42,5.85c3.23,3.23,8.48,3.23,11.71,0h0c1.56-1.56,2.42-3.64,2.42-5.85s-.86-4.29-2.42-5.85c-1.56-1.56-3.64-2.42-5.85-2.42Z"/>
    </g>
  </g>
  <g>
    <g>
      <circle class="cls-4" cx="335.63" cy="97.98" r="9.63" transform="translate(12.56 231.67) rotate(-38.75)"/>
      <g class="cls-1">
        <path class="cls-3" d="m340.45,106.32c-4.61,2.66-10.5,1.08-13.16-3.53-2.66-4.61-1.08-10.5,3.53-13.16.87-.5,1.77-.85,2.69-1.06-2.78,3.02-3.42,7.61-1.25,11.35,2.16,3.74,6.45,5.48,10.46,4.59-.64.7-1.4,1.3-2.26,1.8Z"/>
      </g>
      <g class="cls-2">
        <path class="cls-5" d="m340.45,106.32c-.48.28-.96.5-1.46.68,3.57-2.94,4.59-8.11,2.2-12.24s-7.37-5.83-11.7-4.21c.41-.34.84-.65,1.32-.92,4.61-2.66,10.5-1.08,13.16,3.53,2.66,4.61,1.08,10.5-3.53,13.16Z"/>
      </g>
      <path class="cls-3" d="m335.65,108.96c-3.8,0-7.5-1.97-9.53-5.49-1.47-2.54-1.86-5.5-1.1-8.34.76-2.83,2.58-5.2,5.12-6.67,5.25-3.03,11.98-1.22,15.01,4.02,1.47,2.54,1.86,5.5,1.1,8.34-.76,2.83-2.58,5.2-5.12,6.67h0c-1.73,1-3.61,1.47-5.48,1.47Zm4.8-2.64h0,0Zm-4.83-16.62c-1.4,0-2.82.36-4.12,1.11-1.91,1.11-3.28,2.89-3.86,5.03-.57,2.14-.28,4.37.83,6.28,2.28,3.95,7.35,5.31,11.31,3.03,1.91-1.11,3.28-2.89,3.86-5.03.57-2.14.28-4.37-.83-6.28-1.53-2.65-4.32-4.14-7.18-4.14Z"/>
    </g>
    <g>
      <circle class="cls-4" cx="34.3" cy="271.95" r="9.63" transform="translate(-223.93 180) rotate(-63.21)"/>
      <g class="cls-1">
        <path class="cls-3" d="m39.11,280.3c-4.61,2.66-10.5,1.08-13.16-3.53-2.66-4.61-1.08-10.5,3.53-13.16.87-.5,1.77-.85,2.69-1.06-2.78,3.02-3.42,7.61-1.25,11.35,2.16,3.74,6.45,5.48,10.46,4.59-.64.7-1.4,1.3-2.26,1.8Z"/>
      </g>
      <g class="cls-2">
        <path class="cls-5" d="m39.11,280.3c-.48.28-.96.5-1.46.68,3.57-2.94,4.59-8.11,2.2-12.24-2.39-4.13-7.37-5.83-11.7-4.21.41-.34.84-.65,1.32-.92,4.61-2.66,10.5-1.08,13.16,3.53,2.66,4.61,1.08,10.5-3.53,13.16Z"/>
      </g>
      <path class="cls-3" d="m34.31,282.94c-3.8,0-7.5-1.97-9.53-5.49-3.03-5.25-1.23-11.98,4.02-15.01,5.25-3.03,11.98-1.22,15.01,4.02,1.47,2.54,1.86,5.5,1.1,8.34-.76,2.83-2.58,5.2-5.12,6.67h0c-1.73,1-3.61,1.47-5.48,1.47Zm4.8-2.64h0,0Zm-4.83-16.62c-1.4,0-2.82.36-4.12,1.11-3.95,2.28-5.31,7.35-3.03,11.31,2.28,3.95,7.35,5.31,11.31,3.03,1.91-1.11,3.28-2.89,3.86-5.03.57-2.14.28-4.37-.83-6.28-1.53-2.65-4.32-4.14-7.18-4.14Z"/>
    </g>
  </g>
  <g>
    <g>
      <circle class="cls-4" cx="353.01" cy="139.94" r="9.63"/>
      <g class="cls-1">
        <path class="cls-3" d="m355.5,149.24c-5.14,1.38-10.42-1.67-11.8-6.81-1.38-5.14,1.67-10.42,6.81-11.8.97-.26,1.93-.37,2.88-.32-3.47,2.2-5.27,6.46-4.15,10.64,1.12,4.17,4.81,6.96,8.91,7.14-.79.51-1.69.9-2.65,1.16Z"/>
      </g>
      <g class="cls-2">
        <path class="cls-5" d="m355.5,149.24c-.53.14-1.06.24-1.59.28,4.21-1.92,6.53-6.64,5.3-11.25-1.23-4.61-5.61-7.54-10.21-7.09.48-.22.98-.41,1.52-.55,5.14-1.38,10.42,1.67,11.8,6.81,1.38,5.14-1.67,10.42-6.81,11.8Z"/>
      </g>
      <path class="cls-3" d="m353,150.93c-1.9,0-3.78-.5-5.48-1.48-2.54-1.47-4.36-3.84-5.12-6.67-.76-2.83-.37-5.8,1.1-8.34,1.47-2.54,3.84-4.36,6.67-5.12,5.86-1.57,11.89,1.92,13.46,7.77,1.57,5.85-1.92,11.89-7.77,13.46h0c-.95.25-1.91.38-2.86.38Zm2.51-1.69h0,0Zm-2.5-17.58c-.71,0-1.43.09-2.14.28-4.41,1.18-7.03,5.73-5.85,10.14.57,2.14,1.94,3.92,3.86,5.03,1.92,1.11,4.14,1.4,6.28.83h0c2.14-.57,3.92-1.94,5.03-3.86,1.1-1.91,1.4-4.15.83-6.28-.99-3.69-4.34-6.14-8-6.14Z"/>
    </g>
    <g>
      <circle class="cls-4" cx="16.92" cy="229.99" r="9.63"/>
      <g class="cls-1">
        <path class="cls-3" d="m19.41,239.3c-5.14,1.38-10.42-1.67-11.8-6.81-1.38-5.14,1.67-10.42,6.81-11.8.97-.26,1.93-.37,2.88-.32-3.47,2.2-5.27,6.46-4.15,10.64,1.12,4.17,4.81,6.96,8.91,7.14-.79.51-1.69.9-2.65,1.16Z"/>
      </g>
      <g class="cls-2">
        <path class="cls-5" d="m19.41,239.3c-.53.14-1.06.24-1.59.28,4.21-1.92,6.53-6.64,5.3-11.25-1.23-4.61-5.61-7.54-10.21-7.09.48-.22.98-.41,1.52-.55,5.14-1.38,10.42,1.67,11.8,6.81,1.38,5.14-1.67,10.42-6.81,11.8Z"/>
      </g>
      <path class="cls-3" d="m16.92,240.98c-4.85,0-9.3-3.24-10.62-8.15-.76-2.83-.37-5.8,1.1-8.34,1.47-2.54,3.84-4.36,6.67-5.12,5.85-1.57,11.89,1.92,13.46,7.77.76,2.83.37,5.8-1.1,8.34-1.47,2.54-3.84,4.36-6.67,5.12-.95.25-1.9.38-2.84.38Zm0-19.27c-.72,0-1.44.09-2.16.29-2.14.57-3.92,1.94-5.03,3.86-1.1,1.91-1.4,4.15-.83,6.28,1.18,4.41,5.73,7.04,10.14,5.85,2.14-.57,3.92-1.94,5.03-3.86,1.1-1.91,1.4-4.15.83-6.28-.57-2.14-1.94-3.92-3.86-5.03-1.27-.74-2.69-1.11-4.12-1.11Z"/>
    </g>
  </g>
  <g>
    <g>
      <circle class="cls-4" cx="358.94" cy="184.97" r="9.63"/>
      <g class="cls-1">
        <path class="cls-3" d="m358.94,194.6c-5.32,0-9.63-4.31-9.63-9.63s4.31-9.63,9.63-9.63c1,0,1.96.15,2.86.43-3.92,1.23-6.76,4.88-6.76,9.2s2.84,7.97,6.76,9.2c-.9.28-1.86.43-2.86.43Z"/>
      </g>
      <g class="cls-2">
        <path class="cls-5" d="m358.94,194.6c-.55,0-1.08-.05-1.61-.14,4.56-.76,8.03-4.72,8.03-9.5s-3.47-8.73-8.03-9.5c.52-.09,1.05-.14,1.61-.14,5.32,0,9.63,4.31,9.63,9.63s-4.31,9.63-9.63,9.63Z"/>
      </g>
      <path class="cls-3" d="m358.94,195.95c-6.06,0-10.99-4.93-10.99-10.99s4.93-10.99,10.99-10.99,10.99,4.93,10.99,10.99-4.93,10.99-10.99,10.99Zm0-19.27c-4.56,0-8.28,3.71-8.28,8.28s3.71,8.28,8.28,8.28,8.28-3.71,8.28-8.28-3.71-8.28-8.28-8.28Z"/>
    </g>
    <g>
      <circle class="cls-4" cx="10.99" cy="184.97" r="9.63"/>
      <g class="cls-1">
        <path class="cls-3" d="m10.99,194.6c-5.32,0-9.63-4.31-9.63-9.63s4.31-9.63,9.63-9.63c1,0,1.96.15,2.86.43-3.92,1.23-6.76,4.88-6.76,9.2s2.84,7.97,6.76,9.2c-.9.28-1.86.43-2.86.43Z"/>
      </g>
      <g class="cls-2">
        <path class="cls-5" d="m10.99,194.6c-.55,0-1.08-.05-1.61-.14,4.56-.76,8.03-4.72,8.03-9.5s-3.47-8.73-8.03-9.5c.52-.09,1.05-.14,1.61-.14,5.32,0,9.63,4.31,9.63,9.63s-4.31,9.63-9.63,9.63Z"/>
      </g>
      <path class="cls-3" d="m10.99,195.95c-6.06,0-10.99-4.93-10.99-10.99s4.93-10.99,10.99-10.99,10.99,4.93,10.99,10.99-4.93,10.99-10.99,10.99Zm0-19.27c-4.56,0-8.28,3.71-8.28,8.28s3.71,8.28,8.28,8.28,8.28-3.71,8.28-8.28-3.71-8.28-8.28-8.28Z"/>
    </g>
  </g>
  <g>
    <g>
      <circle class="cls-4" cx="353.01" cy="229.99" r="9.63"/>
      <g class="cls-1">
        <path class="cls-3" d="m350.52,239.3c-5.14-1.38-8.19-6.66-6.81-11.8s6.66-8.19,11.8-6.81c.97.26,1.86.65,2.65,1.16-4.1.17-7.79,2.96-8.91,7.14-1.12,4.17.68,8.44,4.15,10.64-.94.04-1.91-.07-2.88-.32Z"/>
      </g>
      <g class="cls-2">
        <path class="cls-5" d="m350.52,239.3c-.53-.14-1.03-.32-1.52-.55,4.6.44,8.98-2.49,10.21-7.09,1.23-4.61-1.09-9.33-5.3-11.25.53.05,1.05.14,1.59.28,5.14,1.38,8.19,6.66,6.81,11.8-1.38,5.14-6.66,8.19-11.8,6.81Z"/>
      </g>
      <path class="cls-3" d="m353.01,240.98c-.94,0-1.89-.12-2.84-.38h0c-2.84-.76-5.2-2.58-6.67-5.12-1.47-2.54-1.86-5.5-1.1-8.34,1.57-5.85,7.6-9.34,13.46-7.77,5.85,1.57,9.34,7.61,7.77,13.46-1.31,4.9-5.77,8.14-10.62,8.14Zm0-19.27c-3.65,0-7.01,2.44-8,6.14-.57,2.14-.28,4.37.83,6.28,1.11,1.91,2.89,3.28,5.03,3.86h0c4.41,1.18,8.96-1.44,10.14-5.85,1.18-4.41-1.44-8.96-5.85-10.14-.71-.19-1.43-.28-2.14-.28Z"/>
    </g>
    <g>
      <circle class="cls-4" cx="16.92" cy="139.94" r="9.63" transform="translate(-67.7 27.21) rotate(-30)"/>
      <g class="cls-1">
        <path class="cls-3" d="m14.42,149.24c-5.14-1.38-8.19-6.66-6.81-11.8s6.66-8.19,11.8-6.81c.97.26,1.86.65,2.65,1.16-4.1.17-7.79,2.96-8.91,7.14-1.12,4.17.68,8.44,4.15,10.64-.94.04-1.91-.07-2.88-.32Z"/>
      </g>
      <g class="cls-2">
        <path class="cls-5" d="m14.42,149.24c-.53-.14-1.03-.32-1.52-.55,4.6.44,8.98-2.49,10.21-7.09s-1.09-9.33-5.3-11.25c.53.05,1.05.14,1.59.28,5.14,1.38,8.19,6.66,6.81,11.8-1.38,5.14-6.66,8.19-11.8,6.81Z"/>
      </g>
      <path class="cls-3" d="m16.91,150.93c-.94,0-1.89-.12-2.84-.38-2.84-.76-5.2-2.58-6.67-5.12-1.47-2.54-1.86-5.5-1.1-8.34,1.57-5.85,7.61-9.34,13.46-7.77,2.84.76,5.2,2.58,6.67,5.12,1.47,2.54,1.86,5.5,1.1,8.34-1.31,4.9-5.77,8.14-10.62,8.14Zm0-19.27c-3.65,0-7.01,2.44-8,6.14-.57,2.14-.28,4.37.83,6.28,1.11,1.91,2.89,3.28,5.03,3.86,4.41,1.18,8.96-1.44,10.14-5.85.57-2.14.28-4.37-.83-6.28-1.11-1.91-2.89-3.28-5.03-3.86-.71-.19-1.43-.28-2.14-.28Z"/>
    </g>
  </g>
  <g>
    <g>
      <circle class="cls-4" cx="34.29" cy="97.98" r="9.63" transform="translate(-48.43 35.26) rotate(-33.54)"/>
      <g class="cls-1">
        <path class="cls-3" d="m39.11,89.64c4.61,2.66,6.19,8.55,3.53,13.16-2.66,4.61-8.55,6.19-13.16,3.53-.87-.5-1.63-1.11-2.26-1.8,4.01.89,8.3-.85,10.46-4.59,2.16-3.74,1.52-8.33-1.25-11.35.92.2,1.83.56,2.69,1.06Z"/>
      </g>
      <g class="cls-2">
        <path class="cls-5" d="m39.11,89.64c.48.28.91.58,1.32.92-4.33-1.62-9.31.08-11.7,4.21-2.39,4.13-1.36,9.3,2.2,12.24-.5-.18-.98-.41-1.46-.68-4.61-2.66-6.19-8.55-3.53-13.16,2.66-4.61,8.55-6.19,13.16-3.53Z"/>
      </g>
      <path class="cls-3" d="m34.28,108.97c-1.9,0-3.78-.5-5.48-1.48-5.25-3.03-7.05-9.76-4.02-15.01,3.03-5.25,9.76-7.05,15.01-4.02h0c5.25,3.03,7.05,9.76,4.02,15.01-1.47,2.54-3.84,4.36-6.67,5.12-.95.25-1.91.38-2.86.38Zm.03-19.27c-2.86,0-5.65,1.48-7.18,4.14-2.28,3.95-.92,9.03,3.03,11.31,1.92,1.11,4.15,1.4,6.28.83,2.14-.57,3.92-1.94,5.03-3.86,2.28-3.95.92-9.03-3.03-11.31h0c-1.3-.75-2.72-1.11-4.12-1.11Z"/>
    </g>
    <g>
      <circle class="cls-4" cx="335.63" cy="271.95" r="9.63" transform="translate(-21.05 515.65) rotate(-73.36)"/>
      <g class="cls-1">
        <path class="cls-3" d="m340.45,263.61c4.61,2.66,6.19,8.55,3.53,13.16-2.66,4.61-8.55,6.19-13.16,3.53-.87-.5-1.63-1.11-2.26-1.8,4.01.89,8.3-.85,10.46-4.59,2.16-3.74,1.52-8.33-1.25-11.35.92.2,1.83.56,2.69,1.06Z"/>
      </g>
      <g class="cls-2">
        <path class="cls-5" d="m340.45,263.61c.48.28.91.58,1.32.92-4.33-1.62-9.31.08-11.7,4.21-2.39,4.13-1.36,9.3,2.2,12.24-.5-.18-.98-.41-1.46-.68-4.61-2.66-6.19-8.55-3.53-13.16,2.66-4.61,8.55-6.19,13.16-3.53Z"/>
      </g>
      <path class="cls-3" d="m335.61,282.94c-1.86,0-3.75-.47-5.47-1.47-5.25-3.03-7.05-9.76-4.02-15.01,1.47-2.54,3.84-4.36,6.67-5.12,2.84-.76,5.8-.37,8.34,1.1h0c5.25,3.03,7.05,9.76,4.02,15.01-2.03,3.52-5.74,5.49-9.54,5.49Zm.03-19.27c-.72,0-1.44.09-2.16.29-2.14.57-3.92,1.94-5.03,3.86-2.28,3.95-.92,9.03,3.03,11.31,3.95,2.28,9.03.92,11.31-3.03,2.28-3.95.92-9.03-3.03-11.31h0c-1.28-.74-2.69-1.11-4.12-1.11Z"/>
    </g>
  </g>
  <g>
    <g>
      <circle class="cls-4" cx="61.94" cy="61.95" r="9.63"/>
      <g class="cls-1">
        <path class="cls-3" d="m68.76,55.14c3.76,3.76,3.76,9.86,0,13.62-3.76,3.76-9.86,3.76-13.62,0-.71-.71-1.28-1.49-1.72-2.33,3.64,1.9,8.23,1.33,11.29-1.73,3.06-3.06,3.63-7.65,1.73-11.29.84.43,1.62,1.01,2.33,1.72Z"/>
      </g>
      <g class="cls-2">
        <path class="cls-5" d="m68.76,55.14c.39.39.73.8,1.04,1.23-3.76-2.69-9.02-2.34-12.39,1.04-3.37,3.37-3.72,8.63-1.04,12.39-.43-.3-.84-.65-1.23-1.04-3.76-3.76-3.76-9.86,0-13.62s9.86-3.76,13.62,0Z"/>
      </g>
      <path class="cls-3" d="m61.94,72.93c-2.94,0-5.69-1.14-7.77-3.22-2.08-2.08-3.22-4.83-3.22-7.77s1.14-5.69,3.22-7.77c2.08-2.08,4.83-3.22,7.77-3.22s5.69,1.14,7.77,3.22c4.28,4.28,4.28,11.25,0,15.54-2.08,2.08-4.83,3.22-7.77,3.22Zm0-19.27c-2.21,0-4.29.86-5.85,2.42-1.56,1.56-2.42,3.64-2.42,5.85s.86,4.29,2.42,5.85c1.56,1.56,3.64,2.42,5.85,2.42s4.29-.86,5.85-2.42c3.23-3.23,3.23-8.48,0-11.71-1.56-1.56-3.64-2.42-5.85-2.42Z"/>
    </g>
    <g>
      <circle class="cls-4" cx="307.98" cy="307.99" r="9.63"/>
      <g class="cls-1">
        <path class="cls-3" d="m314.8,301.18c3.76,3.76,3.76,9.86,0,13.62-3.76,3.76-9.86,3.76-13.62,0-.71-.71-1.28-1.49-1.72-2.33,3.64,1.9,8.23,1.33,11.29-1.73,3.06-3.06,3.63-7.65,1.73-11.29.84.43,1.62,1.01,2.33,1.72Z"/>
      </g>
      <g class="cls-2">
        <path class="cls-5" d="m314.8,301.18c.39.39.73.8,1.04,1.23-3.76-2.69-9.02-2.34-12.39,1.04s-3.72,8.63-1.04,12.39c-.43-.3-.84-.65-1.23-1.04-3.76-3.76-3.76-9.86,0-13.62,3.76-3.76,9.86-3.76,13.62,0Z"/>
      </g>
      <path class="cls-3" d="m307.98,318.97c-2.81,0-5.63-1.07-7.77-3.21-4.28-4.28-4.28-11.26,0-15.54,4.28-4.28,11.26-4.28,15.54,0h0c4.28,4.28,4.28,11.26,0,15.54-2.14,2.14-4.96,3.21-7.77,3.21Zm0-19.26c-2.12,0-4.24.81-5.85,2.42-3.23,3.23-3.23,8.48,0,11.71,3.23,3.23,8.48,3.23,11.71,0,3.23-3.23,3.23-8.48,0-11.71-1.61-1.61-3.73-2.42-5.85-2.42Z"/>
    </g>
  </g>
  <g>
    <g>
      <circle class="cls-4" cx="97.97" cy="34.3" r="9.63"/>
      <g class="cls-1">
        <path class="cls-3" d="m106.32,29.48c2.66,4.61,1.08,10.5-3.53,13.16-4.61,2.66-10.5,1.08-13.16-3.53-.5-.87-.85-1.77-1.06-2.69,3.02,2.78,7.61,3.42,11.35,1.25,3.74-2.16,5.48-6.45,4.59-10.46.7.64,1.3,1.4,1.8,2.26Z"/>
      </g>
      <g class="cls-2">
        <path class="cls-5" d="m106.32,29.48c.28.48.5.96.68,1.46-2.94-3.57-8.11-4.59-12.24-2.2-4.13,2.39-5.83,7.37-4.21,11.7-.34-.41-.65-.84-.92-1.32-2.66-4.61-1.08-10.5,3.53-13.16,4.61-2.66,10.5-1.08,13.16,3.53Z"/>
      </g>
      <path class="cls-3" d="m97.99,45.29c-.95,0-1.91-.13-2.86-.38-2.84-.76-5.2-2.58-6.67-5.12-1.47-2.54-1.86-5.5-1.1-8.34.76-2.83,2.58-5.2,5.12-6.67,2.54-1.47,5.5-1.86,8.34-1.1,2.84.76,5.2,2.58,6.67,5.12h0c1.47,2.54,1.86,5.5,1.1,8.34-.76,2.83-2.58,5.2-5.12,6.67-1.69.98-3.57,1.48-5.48,1.48Zm-.03-19.27c-1.43,0-2.85.38-4.13,1.11-1.91,1.11-3.28,2.89-3.86,5.03-.57,2.14-.28,4.37.83,6.28,1.1,1.91,2.89,3.28,5.03,3.86,2.14.57,4.37.28,6.28-.83,1.91-1.11,3.28-2.89,3.86-5.03.57-2.14.28-4.37-.83-6.28h0c-1.11-1.92-2.89-3.28-5.03-3.86-.71-.19-1.44-.29-2.16-.29Z"/>
    </g>
    <g>
      <circle class="cls-4" cx="271.95" cy="335.63" r="9.63"/>
      <g class="cls-1">
        <path class="cls-3" d="m280.29,330.82c2.66,4.61,1.08,10.5-3.53,13.16-4.61,2.66-10.5,1.08-13.16-3.53-.5-.87-.85-1.77-1.06-2.69,3.02,2.78,7.61,3.42,11.35,1.25,3.74-2.16,5.48-6.45,4.59-10.46.7.64,1.3,1.4,1.8,2.26Z"/>
      </g>
      <g class="cls-2">
        <path class="cls-5" d="m280.29,330.82c.28.48.5.96.68,1.46-2.94-3.57-8.11-4.59-12.24-2.2-4.13,2.39-5.83,7.37-4.21,11.7-.34-.41-.65-.84-.92-1.32-2.66-4.61-1.08-10.5,3.53-13.16,4.61-2.66,10.5-1.08,13.16,3.53Z"/>
      </g>
      <path class="cls-3" d="m271.97,346.63c-.95,0-1.91-.13-2.86-.38-2.84-.76-5.2-2.58-6.67-5.12-1.47-2.54-1.86-5.5-1.1-8.34.76-2.83,2.58-5.2,5.12-6.67,2.54-1.47,5.5-1.86,8.34-1.1,2.84.76,5.2,2.58,6.67,5.12h0c1.47,2.54,1.86,5.5,1.1,8.34-.76,2.83-2.58,5.2-5.12,6.67-1.69.98-3.57,1.48-5.48,1.48Zm-.03-19.27c-1.43,0-2.85.38-4.13,1.11-1.91,1.11-3.28,2.89-3.86,5.03-.57,2.14-.28,4.37.83,6.28,1.1,1.91,2.89,3.28,5.03,3.86,2.14.57,4.37.28,6.28-.83,1.91-1.11,3.28-2.89,3.86-5.03.57-2.14.28-4.37-.83-6.28h0c-1.11-1.92-2.89-3.28-5.03-3.86-.71-.19-1.44-.29-2.16-.29Z"/>
    </g>
  </g>
  <g>
    <g>
      <circle class="cls-4" cx="139.93" cy="16.92" r="9.63" transform="translate(6.27 61.66) rotate(-25.4)"/>
      <g class="cls-1">
        <path class="cls-3" d="m149.24,14.43c1.38,5.14-1.67,10.42-6.81,11.8-5.14,1.38-10.42-1.67-11.8-6.81-.26-.97-.37-1.93-.32-2.88,2.2,3.47,6.46,5.27,10.64,4.15,4.17-1.12,6.96-4.81,7.14-8.91.51.79.9,1.69,1.16,2.65Z"/>
      </g>
      <g class="cls-2">
        <path class="cls-5" d="m149.24,14.43c.14.53.24,1.06.28,1.59-1.92-4.21-6.64-6.53-11.25-5.3s-7.54,5.61-7.09,10.21c-.22-.48-.41-.98-.55-1.52-1.38-5.14,1.67-10.42,6.81-11.8,5.14-1.38,10.42,1.67,11.8,6.81Z"/>
      </g>
      <path class="cls-3" d="m139.94,27.91c-4.85,0-9.3-3.24-10.62-8.15-1.57-5.85,1.92-11.89,7.77-13.46,2.83-.76,5.8-.37,8.34,1.1,2.54,1.47,4.36,3.84,5.12,6.67h0c1.57,5.85-1.92,11.89-7.77,13.46-.95.25-1.9.38-2.84.38Zm0-19.27c-.72,0-1.44.09-2.16.29-4.41,1.18-7.03,5.73-5.85,10.14,1.18,4.41,5.73,7.04,10.14,5.85,4.41-1.18,7.03-5.73,5.85-10.14h0c-.57-2.14-1.94-3.92-3.86-5.03-1.28-.74-2.69-1.11-4.13-1.11Z"/>
    </g>
    <g>
      <circle class="cls-4" cx="229.99" cy="353.01" r="9.63" transform="translate(-129.19 132.78) rotate(-25.4)"/>
      <g class="cls-1">
        <path class="cls-3" d="m239.3,350.52c1.38,5.14-1.67,10.42-6.81,11.8-5.14,1.38-10.42-1.67-11.8-6.81-.26-.97-.37-1.93-.32-2.88,2.2,3.47,6.46,5.27,10.64,4.15,4.17-1.12,6.96-4.81,7.14-8.91.51.79.9,1.69,1.16,2.65Z"/>
      </g>
      <g class="cls-2">
        <path class="cls-5" d="m239.3,350.52c.14.53.24,1.06.28,1.59-1.92-4.21-6.64-6.53-11.25-5.3s-7.54,5.61-7.09,10.21c-.22-.48-.41-.98-.55-1.52-1.38-5.14,1.67-10.42,6.81-11.8,5.14-1.38,10.42,1.67,11.8,6.81Z"/>
      </g>
      <path class="cls-3" d="m229.99,364c-4.85,0-9.3-3.24-10.62-8.14-1.57-5.85,1.92-11.89,7.77-13.46,2.84-.76,5.8-.37,8.34,1.1,2.54,1.47,4.36,3.84,5.12,6.67h0c.76,2.83.37,5.8-1.1,8.34-1.47,2.54-3.84,4.36-6.67,5.12-.95.25-1.9.38-2.84.38Zm.01-19.27c-.72,0-1.44.09-2.16.29-4.41,1.18-7.03,5.73-5.85,10.14,1.18,4.41,5.73,7.03,10.14,5.85,2.14-.57,3.92-1.94,5.03-3.86,1.1-1.91,1.4-4.15.83-6.28h0c-.57-2.14-1.94-3.92-3.86-5.03-1.27-.74-2.69-1.11-4.12-1.11Z"/>
    </g>
  </g>
  <path class="cls-4" d="m244.73,373.84h-118.35c-5.65,0-10.23,4.58-10.23,10.23v1.4h138.8v-1.4c0-5.65-4.58-10.23-10.23-10.23Z"/>
  <path class="cls-3" d="m254.96,386.81H116.16c-.75,0-1.36-.61-1.36-1.36v-1.4c0-6.39,5.19-11.58,11.58-11.58h118.35c6.39,0,11.58,5.19,11.58,11.58v1.4c0,.75-.61,1.36-1.36,1.36Zm-137.44-2.71h136.09v-.04c0-4.89-3.98-8.87-8.87-8.87h-118.35c-4.89,0-8.87,3.98-8.87,8.87v.04Z"/>
</svg>